<svg width="970" height="738" fill="none" xmlns="http://www.w3.org/2000/svg"><g clip-path="url(#clip0)"><path opacity=".1" d="M352.723 114.594c53.97-1.876 105.38-19.296 154.463-38.36 49.084-19.062 97.7-40.185 150.377-50.283 33.882-6.496 72.633-7.413 99.926 10.749 26.276 17.512 34.766 47.657 39.327 75.659 3.436 21.065 5.454 43.23-3.961 62.951-6.53 13.693-18.129 25.201-26.143 38.36-27.91 45.631-8.189 101.902 22.057 146.457 14.176 20.906 30.646 40.861 41.586 63.093 10.941 22.232 16.011 47.741 6.438 70.439-9.498 22.516-32.122 39.394-56.622 51.277-49.775 24.141-108.406 31.046-165.62 34.957-126.611 8.664-253.889 4.912-380.833 1.159-46.982-1.393-94.164-2.802-140.379-10.065-25.667-4.036-52.16-10.432-70.798-25.893-23.65-19.621-29.512-52.852-13.667-77.452 26.593-41.27 100.067-51.518 118.68-95.815 10.224-24.375-.283-51.527-15.144-74.142-31.888-48.5-85.332-91.053-88.15-146.491-1.936-38.084 23.765-76.21 63.492-94.23 41.637-18.955 99.392-16.553 130.097 14.71 31.638 32.213 87.225 44.571 134.874 42.92z" fill="#D56CFF"/><path d="M489.823 575.807l285.427-1.392 28.361-66.521-100.285-7.279 17.479-72.933-198.351-25.709 189.937-66.028-16.778-3.987-305.415 49.826 16.819 113.819 24.042 62.551 58.764 17.653z" fill="#D56CFF"/><path d="M770.873 546.554s-17.512-2.802-28.019 9.573c0 0 7.705 6.071 24.283-2.335l3.736-7.238zm1.834-.275s11.174 13.751 5.67 29.061c0 0-9.106-3.644-10.098-22.207l4.428-6.854zm10.04-22.607s-7.004-12.851-35.023 5.137c0 0 3.735 8.639 16.11 7.938 12.376-.7 15.644-6.304 18.913-13.075zm1.81-.926s14.535-1.668 15.944 31.605c0 0-9.215 1.909-15.761-8.615-6.546-10.523-3.861-16.427-.183-22.99z" fill="#D56CFF"/><path d="M793.021 496.203s-8.173-22.649-37.826-6.538c0 0 6.771 20.781 34.79 14.243l3.036-7.705zm9.105-33.856s-15.41-22.882-42.729-1.668c0 0 9.574 21.481 40.395 9.807l2.334-8.139zm3.27-32.222s-17.979-21.023-45.03 0c0 0 17.045 18.446 45.03 5.37v-5.37zm2.802-31.296s-18.213-21.948-44.13-1.168c0 0 20.547 19.38 44.13 6.305v-5.137zm-1.635-27.786s-19.179-28.252-43.429-9.106c0 0 20.547 24.283 43.429 14.477v-5.371zm-4.437-32.455s-20.313-28.019-43.896-6.538c0 0 24.05 24.283 43.896 11.675v-5.137zm-6.77-29.011s-24.05-26.335-45.031-15.844c0 0 25.059 27.969 46.081 22.832l-1.05-6.988zm-8.406-27.503s-27.752-32.255-43.897-21.481c0 0 20.448 25.017 45.865 27.519l-1.968-6.038zm-12.133-31.896s-24.292-26.334-42.037-19.797c0 0 20.781 27.319 45.297 28.019l-3.26-8.222zm-10.983-29.837s-26.851-25.217-38.526-20.781c0 0 19.38 28.019 39.694 26.385l-1.168-5.604zm-10.74-27.552s-23.116-30.129-35.733-27.794c0 0 14.018 26.86 35.733 30.854v-3.06zm-11.658-37.15s-20.431-23.091-31.471-23.041c0 0 16.127 30.854 32.313 30.571l-.842-7.53zm-6.905-24.734l-19.738-48.099s-.984 43.48 22.248 57.022l-2.51-8.923zm-8.014-53.044s-3.269-40.169-1.167-43.438c0 0-14.11 33.398 1.301 61.183l-.134-17.745zm67.271 417.808s20.464-12.683 33.715 18.346c0 0-18.213 12.091-36.125-10.432l2.41-7.914zm8.998-34.615s25.1-11.449 37.275 20.948c0 0-19.388 13.342-39.56-12.759l2.285-8.189zm3.777-29.003s17.979-21.022 45.031 0c0 0-17.045 18.446-45.031 5.371v-5.371zm2.252-33.222s18.212-21.948 44.13-1.168c0 0-20.548 19.38-44.13 6.305v-5.137zm-2.252-26.985s12.776-31.647 40.544-18.037c0 0-15.01 28.06-39.41 23.291l-1.134-5.254z" fill="#700CA2"/><path d="M800.517 338.429s12.701-32.197 40.861-17.27c0 0-17.245 29.512-39.61 22.24l-1.251-4.97zm-7.871-28.694s5.003-35.299 28.352-38.46c0 0-4.953 37.226-25.208 44.822l-3.144-6.362zm-6.288-27.594s1.951-42.529 21.256-44.013c0 0-.651 32.28-19.08 50.034l-2.176-6.021zm-13.543-33.155s5.754-35.366 24.184-39.686c0 0-2.285 34.249-22.357 48.366l-1.827-8.68zm-11.165-28.353s.192-36.842 11.449-42.254c0 0 6.98 33.356-8.189 46.957l-3.26-4.703zm-9.415-28.261s1.576-37.934 13.234-43.279c0 0 3.986 30.02-11.491 45.764l-1.743-2.485zm-12.426-33.706s.067-30.855 8.389-38.093c0 0 8.273 33.798-4.044 44.297l-4.345-6.204z" fill="#700CA2"/><path d="M735.507 129.388l8.097-51.352s10.999 42.079-8.481 60.625l.384-9.273z" fill="#700CA2"/><g filter="url(#filter0_f)"><path d="M818.447 574.281l-208.909-38.084-276.812 44.096 171.933 61.901 313.788-67.913z" fill="#BA62E7"/></g><path d="M733.93 78.345s20.781-34.524 20.356-38.36c0 0-2.21 36.183-28.353 54.204l7.997-15.844zm-2.435-10.199s19.614-49.033 28.486-53.002c0 0-28.019 14.243-30.12 51.601l1.634 1.401z" fill="#700CA2"/><path d="M742.378 163.461l1.342-.409c-16.553-53.978-20.68-88.393-11.633-97.024l-.959-1.017c-9.598 9.106-5.703 43.146 11.25 98.45z" fill="#444053"/><path d="M787.959 289.847l1.985-.709a404.255 404.255 0 00-5.637-14.91c-17.279-43.063-31.989-83.123-41.42-113.877l-1.726-.834c9.448 30.812 23.899 72.407 41.194 115.528a328.015 328.015 0 015.604 14.802z" fill="#444053"/><path d="M746.198 586.948c.266-.292 27.093-30.504 45.797-82.081a303.687 303.687 0 0018.071-94.047c1.284-40.135-7.138-84.949-21.565-125.66l-1.568 1.835c32.389 91.37 19.522 169.665 2.452 216.813-18.504 51.11-45.03 80.989-45.289 81.289l2.102 1.851z" fill="#444053"/><path d="M326.98 522.805s18.904 23.074 3.894 57.956l150.936 65.46 14.484 3.036 6.672-29.187-4.462-36.833v-20.13L326.98 522.805z" fill="#D5D6DB"/><path d="M803.611 507.894L594.703 469.81 317.89 513.907l171.933 61.9 313.788-67.913z" fill="#D56CFF"/><path d="M803.611 507.894L594.703 469.81 317.89 513.907l171.933 61.9 313.788-67.913z" fill="#D56CFF"/><path d="M803.612 507.886s19.538 37.017-2.977 71.206l-309.794 67.129s19.23-29.486-.992-70.414l313.763-67.921z" fill="#D56CFF"/><path opacity=".1" d="M803.612 507.886s19.538 37.017-2.977 71.206l-309.794 67.129s19.23-29.486-.992-70.414l313.763-67.921z" fill="#000"/><path opacity=".1" d="M794.38 520.72s11.166 27.085 0 44.613z" fill="#000"/><path d="M490.841 646.221l-172.951-73.8s-9.673 2.085-3.419 9.173 173.034 71.716 173.034 71.716l313.129-74.217-309.793 67.128z" fill="#D56CFF"/><path opacity=".1" d="M490.841 646.221l-172.951-73.8s-9.673 2.085-3.419 9.173 173.034 71.716 173.034 71.716l313.129-74.217-309.793 67.128z" fill="#000"/><path opacity=".1" d="M505.017 583.262s16.678 20.014 0 50.034zm-80.743-.339l74.808 24.958-.264.791-74.808-24.958.264-.791zm-14.984-2.483l89.815 34.154-.296.779-89.816-34.154.297-.779zm-13.761-.119l103.075 42.19-.316.771-103.075-42.19.316-.771zm-14.964-3.614l116.836 52.778-.343.76-116.836-52.778.343-.76zm-12.572.018l128.483 56.159-.334.764-128.483-56.159.334-.764zm-27.497-4.67l154.043 66.532-.331.766-154.043-66.533.331-.765z" fill="#000"/><path opacity=".3" d="M726 511.964l-146.766-30.855-89.411 17.095 120.265 38.777L726 511.964z" fill="#fff"/><path d="M317.89 513.907s-7.588 3.06-3.135 7.788c4.453 4.729 175.094 54.112 175.094 54.112l-171.959-61.9z" fill="#D56CFF"/><path d="M244.182 442.6s18.896 23.066 3.886 57.956l150.936 65.461 14.484 3.052 6.672-29.186-4.528-36.825v-20.156L244.182 442.6z" fill="#D5D6DB"/><path d="M720.805 427.682l-208.9-38.076-276.821 44.097 171.934 61.9 313.787-67.921z" fill="#700CA1"/><path d="M720.838 427.682s19.547 37.016-2.968 71.206l-309.794 67.129s19.222-29.512-1.025-70.423l313.787-67.912z" fill="#700CA1"/><path opacity=".1" d="M720.838 427.682s19.547 37.016-2.968 71.206l-309.794 67.129s19.222-29.512-1.025-70.423l97.966-21.206 215.821-46.706z" fill="#000"/><path opacity=".1" d="M711.582 440.515s11.158 27.077 0 44.614z" fill="#000"/><path d="M408.044 566.017l-172.959-73.8s-9.665 2.085-3.411 9.173 173.034 71.715 173.034 71.715l313.129-74.217-309.793 67.129z" fill="#700CA1"/><path opacity=".1" d="M408.044 566.017l-172.959-73.8s-9.665 2.085-3.411 9.173 173.034 71.715 173.034 71.715l313.129-74.217-309.793 67.129z" fill="#000"/><path opacity=".1" d="M422.22 503.058s16.678 20.013 0 50.033zm-80.751-.33l74.808 24.958-.264.791-74.808-24.958.264-.791zm-14.994-2.488l89.816 34.154-.297.779-89.815-34.153.296-.78zm-13.749-.13l103.075 42.19-.316.772-103.075-42.191.316-.771zm-14.974-3.612l116.836 52.778-.343.76-116.836-52.778.343-.76zm-12.559.007l128.483 56.159-.334.764-128.483-56.159.334-.764zm-27.504-4.67l154.043 66.533-.331.765L257.358 492.6l.331-.765z" fill="#000"/><path opacity=".45" d="M643.194 431.76l-146.766-30.855L407.017 418l120.265 38.776 115.912-25.016z" fill="#fff"/><path d="M235.084 433.702s-7.58 3.061-3.135 7.78c4.445 4.72 175.069 54.112 175.069 54.112l-171.934-61.892z" fill="#700CA1"/><path d="M236.343 350.846s18.905 41.42 3.895 76.302l150.935 47.115 14.452 3.061 6.671-29.187-4.461-36.833v-20.156l-171.492-40.302z" fill="#D5D6DB"/><path d="M712.942 335.936l-208.908-38.084-276.821 44.097 171.941 61.9 313.788-67.913z" fill="#D56CFF"/><path d="M712.942 335.928s19.571 37.016-2.944 71.206l-309.793 67.129s19.23-29.512-1.017-70.414l313.754-67.921z" fill="#D56CFF"/><path opacity=".1" d="M712.942 335.928s19.571 37.016-2.944 71.206l-309.793 67.129s19.23-29.512-1.017-70.414l313.754-67.921z" fill="#000"/><path opacity=".1" d="M703.71 348.761s11.166 27.085 0 44.614z" fill="#000"/><path d="M400.171 474.263l-172.95-55.454s-9.674 2.085-3.419 9.173c6.254 7.088 173.034 53.369 173.034 53.369l313.128-74.217-309.793 67.129z" fill="#D56CFF"/><path opacity=".1" d="M400.171 474.263l-172.95-55.454s-9.674 2.085-3.419 9.173c6.254 7.088 173.034 53.369 173.034 53.369l313.128-74.217-309.793 67.129z" fill="#000"/><path opacity=".1" d="M414.347 411.304s16.678 20.013 0 50.034zm-80.753-.331l74.809 24.958-.264.791-74.809-24.958.264-.791zm-14.988-2.484l89.815 34.154-.296.78-89.816-34.154.297-.78zm-13.741-.127l103.075 42.19-.316.772-103.075-42.19.316-.772zm-14.985-3.618l116.836 52.777-.343.76-116.836-52.778.343-.759zm-12.563.014l128.482 56.159-.334.765-128.482-56.16.334-.764zm-27.502-4.664l154.043 66.532-.331.766-154.043-66.533.331-.765z" fill="#000"/><path opacity=".3" d="M635.331 340.006l-146.767-30.855-89.41 17.095 120.265 38.777 115.912-25.017z" fill="#fff"/><path d="M227.221 341.949s-7.589 3.06-3.136 7.788c4.453 4.729 175.069 54.112 175.069 54.112l-171.933-61.9zM594.086 88.81s31.688-1.91 27.986 20.322c0 0 .742 3.928-2.819 5.712 0 0-.058-1.667-3.252-1.092-1.14.196-2.299.252-3.452.167a7.19 7.19 0 01-4.212-1.735s-8.914-3.686-12.383-18.262c0 0-2.568-3.177-2.502-3.995l5.371 2.285s-1.827 3.861-.392 7.072c0 0 .175-6.93 1.209-6.771.208 0 2.777 1.342 2.777 1.342s-3.144 6.73-.768 11.616c0 0-.9-8.289 1.752-11.132l3.769 2.201s-3.678 6.947-1.184 12.617c0 0-.642-8.697 1.976-12.083l3.419 2.669s-3.461 6.846-1.351 11.549c0 0 .275-10.124 2.085-10.891 0 0 2.994 2.635 3.444 3.719 0 0-2.368 5.004-.892 7.597 0 0 .892-6.746 1.667-6.779 0 0 2.977 4.469 3.286 7.505a16.23 16.23 0 00-2.56-7.956 8.93 8.93 0 014.553 2.36s-.459-3.16-5.295-3.435c0 0-2.46-3.394-3.119-3.595 0 0 4.812-.408 7.722.884 0 0-2.569-2.976-8.598-1.667l-3.335-2.752s6.321-.834 9.006.092c0 0-3.094-2.636-9.915-.718l-3.678-2.193s5.396-1.159 8.606-.742c0 0-3.385-1.826-9.681.15l-2.619-1.176s3.945-.775 5.104-.9c1.159-.125 1.217-.442 1.217-.442a13.77 13.77 0 00-7.422.834s-5.628-2.027-5.52-2.377z" fill="#D56CFF"/><path opacity=".1" d="M148.283 180.189s31.688-1.91 27.986 20.322c0 0 .742 3.928-2.819 5.712 0 0-.058-1.667-3.252-1.092-1.14.191-2.299.247-3.452.167a7.166 7.166 0 01-4.17-1.735s-8.922-3.686-12.383-18.262c0 0-2.568-3.177-2.502-3.995l5.354 2.285s-1.826 3.861-.392 7.072c0 0 .175-6.93 1.201-6.771.208 0 2.785 1.342 2.785 1.342s-3.144 6.73-.776 11.616c0 0-.9-8.289 1.76-11.132l3.769 2.201s-3.677 6.947-1.184 12.617c0 0-.642-8.697 1.976-12.083l3.411 2.668s-3.452 6.847-1.343 11.55c0 0 .276-10.124 2.085-10.891 0 0 2.986 2.635 3.444 3.719 0 0-2.368 5.004-.9 7.597 0 0 .9-6.746 1.667-6.779 0 0 2.977 4.469 3.286 7.505a16.18 16.18 0 00-2.568-7.956 8.982 8.982 0 014.561 2.36s-.467-3.16-5.295-3.435c0 0-2.46-3.394-3.119-3.603 0 0 4.803-.4 7.722.892 0 0-2.569-2.977-8.598-1.667l-3.335-2.752s6.329-.834 9.006.091c0 0-3.086-2.635-9.915-.717l-3.669-2.193s5.395-1.159 8.605-.742c0 0-3.385-1.826-9.681.15l-2.627-1.176s3.953-.775 5.112-.9c1.159-.125 1.217-.442 1.217-.442a13.656 13.656 0 00-7.421.834s-5.646-2.027-5.546-2.377zm392.433 45.964s13.81-28.627 31.388-14.518c0 0 3.794 1.268 3.611 5.245 0 0-1.459-.758-2.502 2.31a14.755 14.755 0 01-1.534 3.086 7.197 7.197 0 01-3.578 2.835s-7.563 5.987-21.981 1.901c0 0-4.028.692-4.687.209l4.604-3.561s2.501 3.477 5.987 3.786c0 0-5.971-3.527-5.329-4.345.134-.166 2.502-1.776 2.502-1.776s4.345 6.029 9.765 6.338c0 0-7.672-3.252-8.856-6.963l3.753-2.218s4.277 6.604 10.44 7.188c0 0-7.905-3.678-9.582-7.614l3.986-1.668s4.295 6.355 9.432 6.813c0 0-8.706-5.178-8.489-7.138 0 0 3.761-1.317 4.928-1.192 0 0 3.186 4.494 6.188 4.494 0 0-5.446-4.077-5.112-4.736 0 0 5.353-.417 8.172.834a16.225 16.225 0 00-8.197-1.668 8.983 8.983 0 014.286-2.827s-2.985-1.134-5.579 2.944c0 0-4.169.492-4.661.967 0 0 1.993-4.386 4.536-6.296 0 0-3.852.776-5.612 6.671l-4.044 1.601s2.326-5.937 4.469-7.813c0 0-3.802 1.409-5.462 8.339l-3.702 2.135s1.609-5.279 3.544-7.872c0 0-3.244 2.068-4.587 8.522l-2.309 1.718s1.25-3.828 1.667-4.895c.417-1.068.209-1.284.209-1.284a13.674 13.674 0 00-2.902 6.879s-4.462 3.82-4.762 3.569zm-320.033-86.408s13.801-28.628 31.388-14.518c0 0 3.786 1.267 3.611 5.245 0 0-1.468-.751-2.502 2.31a14.415 14.415 0 01-1.543 3.093 7.15 7.15 0 01-3.569 2.827s-7.571 5.988-21.981 1.91c0 0-4.028.684-4.695.2l4.578-3.569s2.502 3.486 5.979 3.794c0 0-5.962-3.535-5.32-4.353.133-.166 2.501-1.776 2.501-1.776s4.337 6.029 9.765 6.338c0 0-7.68-3.252-8.864-6.955l3.811-2.201s4.27 6.596 10.44 7.188c0 0-7.905-3.686-9.589-7.622l3.994-1.668s4.295 6.363 9.423 6.813c0 0-8.698-5.178-8.481-7.13 0 0 3.753-1.326 4.92-1.192 0 0 3.186 4.486 6.196 4.486 0 0-5.454-4.078-5.12-4.736 0 0 5.354-.417 8.181.833a16.237 16.237 0 00-8.198-1.667 8.93 8.93 0 014.278-2.827s-2.985-1.134-5.579 2.943c0 0-4.169.501-4.661.976 0 0 1.993-4.395 4.545-6.304 0 0-3.853.784-5.612 6.713l-4.053 1.601s2.326-5.946 4.47-7.822c0 0-3.803 1.409-5.454 8.339l-3.711 2.135s1.618-5.271 3.552-7.872c0 0-3.252 2.068-4.586 8.522l-2.31 1.718s1.243-3.828 1.668-4.895c.425-1.068.208-1.276.208-1.276a13.714 13.714 0 00-2.893 6.88s-4.528 3.786-4.787 3.519zm-44.105 141.604s13.801-28.636 31.413-14.527c0 0 3.786 1.268 3.611 5.246 0 0-1.468-.751-2.502 2.309a14.416 14.416 0 01-1.535 3.094 7.15 7.15 0 01-3.569 2.827s-7.571 5.996-21.989 1.91c0 0-4.02.692-4.687.2l4.603-3.561s2.502 3.486 5.988 3.794c0 0-5.963-3.535-5.321-4.353.134-.166 2.502-1.776 2.502-1.776s4.336 6.029 9.765 6.346c0 0-7.68-3.26-8.864-6.963l3.76-2.218s4.27 6.604 10.441 7.188c0 0-7.906-3.686-9.59-7.622l3.994-1.667s4.295 6.354 9.423 6.812c0 0-8.705-5.178-8.489-7.138 0 0 3.761-1.326 4.929-1.192 0 0 3.185 4.486 6.196 4.486 0 0-5.454-4.078-5.121-4.736 0 0 5.354-.417 8.181.834a16.28 16.28 0 00-8.206-1.668 8.91 8.91 0 014.287-2.827s-2.986-1.143-5.579 2.944c0 0-4.17.492-4.662.967 0 0 1.993-4.386 4.537-6.304 0 0-3.853.783-5.612 6.712l-4.045 1.602s2.327-5.946 4.47-7.814c0 0-3.803 1.401-5.454 8.339l-3.711 2.126s1.618-5.27 3.553-7.872c0 0-3.252 2.068-4.595 8.531l-2.31 1.668s1.251-3.828 1.668-4.895c.417-1.067.208-1.276.208-1.276a13.642 13.642 0 00-2.893 6.88s-4.537 3.844-4.795 3.594zM684.539 653.91c-10.588 0-19.171-.96-19.171-2.143 0-1.184 8.583-2.143 19.171-2.143s19.171.959 19.171 2.143c0 1.183-8.583 2.143-19.171 2.143zm125.677-36.425c-10.588 0-19.172-.959-19.172-2.143 0-1.183 8.584-2.143 19.172-2.143 10.588 0 19.171.96 19.171 2.143 0 1.184-8.583 2.143-19.171 2.143zm-221.475 60.617c-10.588 0-19.172-.96-19.172-2.144 0-1.183 8.584-2.143 19.172-2.143 10.588 0 19.171.96 19.171 2.143 0 1.184-8.583 2.144-19.171 2.144zM97.825 625.407c-10.589 0-19.172-.959-19.172-2.143 0-1.183 8.583-2.143 19.171-2.143 10.589 0 19.172.96 19.172 2.143 0 1.184-8.583 2.143-19.171 2.143zm159.532-10.399c-10.588 0-19.171-.959-19.171-2.143 0-1.183 8.583-2.143 19.171-2.143s19.172.96 19.172 2.143c0 1.184-8.584 2.143-19.172 2.143zm103.204 50.718c-12.522 0-22.673-1.743-22.673-3.894s10.151-3.894 22.673-3.894c12.523 0 22.674 1.743 22.674 3.894s-10.151 3.894-22.674 3.894z" fill="#D56CFF"/><path d="M350.446 622.689s31.571 16.311 15.26 35.524c0 0-1.534 4.17-5.97 3.878 0 0 .883-1.618-2.502-2.911a16.25 16.25 0 01-3.411-1.809 8.019 8.019 0 01-3.052-4.078s-6.454-8.639-1.451-24.625c0 0-.65-4.52-.083-5.254l3.836 5.262s-3.961 2.66-4.42 6.571c0 0 4.17-6.562 5.003-5.837.184.15 1.902 2.877 1.902 2.877s-6.872 4.662-7.38 10.716c0 0 3.869-8.481 8.047-9.69l2.393 4.269s-7.505 4.57-8.339 11.441c0 0 4.361-8.714 8.814-10.473l1.76 4.511s-7.238 4.603-7.905 10.324c0 0 6.054-9.565 8.23-9.265 0 0 1.368 4.236 1.184 5.546 0 0-5.111 3.419-5.203 6.779 0 0 4.72-5.962 5.445-5.57 0 0 .3 5.995-1.151 9.114 0 0 2.502-4.453 2.093-9.114a9.998 9.998 0 013.027 4.87s1.36-3.294-3.118-6.33c0 0-.426-4.661-.943-5.236 0 0 4.845 2.368 6.905 5.27 0 0-.759-4.328-7.33-6.48l-1.668-4.569s6.571 2.785 8.598 5.237c0 0-1.46-4.295-9.115-6.355l-2.268-4.169s5.837 1.968 8.689 4.169c0 0-2.21-3.694-9.389-5.395l-1.843-2.627s4.236 1.509 5.42 2.051c1.184.542 1.418.276 1.418.276a15.341 15.341 0 00-7.597-3.453s-4.178-5.162-3.886-5.445z" fill="#D56CFF"/><path d="M256.741 314.622c5.453-14.819 35.474-16.211 48.499-12.434 9.256 2.694 28.77 5.729 39.193 7.255l.676-.642c-1.351-.4-1.385-1.384-1.218-2.844.097-1.923.069-3.85-.083-5.77-6.388 1.985-12.075-2.71-12.075-2.71-7.505-3.336-5.487-17.612-6.921-21.515-1.076-2.919-2.235-20.114-2.752-28.686h-.109l-.058-2.877c-.075-1.242-.108-1.968-.108-1.968s-.734-20.964-2.169-25.209c-1.334-3.902-2.418-23.566-2.585-26.684v-.409l.109-1.818a70.802 70.802 0 01-.1-4.353c0-7.13.742-16.111.834-17.562v-.759c-.059-3.043.325-18.287 13.292-24.049 4.778-2.135 10.524-4.678 16.086-7.155 1.434-12.384 4.711-24.7 4.428-37.175 0-1.877-.167-3.753-.35-5.62 0 .541.058 1.092.066 1.667v3.636c-.492-15.603-6.387-31.288-5.837-46.557a74.15 74.15 0 00.3 4.495 48.485 48.485 0 011.601-15.335c.501-1.76 1.176-3.578 2.619-4.754a10.776 10.776 0 014.57-1.81 91.852 91.852 0 0111.999-2.234 18.538 18.538 0 012.702-5.245c8.456-11.608 20.981-22.516 35.791-25.017 7.43-1.251 15.978-.209 21.031 5.103a15.69 15.69 0 011.484 1.501c2.719 3.244 3.886 7.505 6.671 10.74.184.218.392.418.593.626 5.453 4.878 13.951 5.896 20.013 10.274a24.03 24.03 0 012.994 2.61 50.787 50.787 0 016.538 7.947c2.726 3.836 5.528 7.83 6.396 12.408 1.742 9.173-4.503 17.87-5.663 27.102-2.585 20.656 20.272 38.985 15.945 59.365a27.196 27.196 0 01-7.355 13.201 396.89 396.89 0 0116.502 15.902v.467h1.41l-.142 1.668h.142l-.776 9.048.776 13.176v1.242h-.05c-.259 4.828-1.285 22.19-2.502 25.851-1.434 4.245-2.16 25.209-2.16 25.209s-1.584 29.628-3.035 33.547c-1.451 3.92.609 18.154-6.922 21.515a15.833 15.833 0 01-7.563 3.135c.384 3.119.142 5.379-1.101 6.088a3.625 3.625 0 01-1.751.5 18.56 18.56 0 011.359 2.377 35.309 35.309 0 008.74-2.06c8.088-3.335 34.932-10.841 42.728-5.562 7.797 5.279 26.56 10.065 17.896 31.313-8.664 21.248-12.7 21.781-12.7 21.781a30.853 30.853 0 00-6.93 6.963c-2.602 3.911-26.843 12.859-32.906 12.859a59.337 59.337 0 00-7.713.384s6.579 5.77 5.704 9.123c-.876 3.352 2.001 30.187 2.001 30.187s-6.671 6.721-9.523-2.093l-.1.133c-.534.726-3.419 4.003-8.848-.133a49.591 49.591 0 00-7.055-4.47l-26.284-3.719a74.344 74.344 0 00-8.231-.059c-4.169.342-8.264-2.126-10.84-4.036-5.446 2.068-11.566 4.328-14.477 5.154-5.904 1.668-33.039 8.948-39.385 6.671a8.822 8.822 0 01-3.419-2.435l-6.054.192 2.835.567s-5.52.092-13.025.192l.317.183-9.415-.083c-13.776.125-29.253.166-31.288-.292-3.185-.709-19.738-.209-24.617 0h-1.359s-18.187-3.628-10.682-22.082c5.771-14.176 23.508-18.296 31.38-19.43a148.154 148.154 0 00-5.396-.984c-5.495-.834-16.169-5.837-17.036-7.546-.868-1.71-9.815-6.672-12.125-9.498-2.31-2.827-8.906-22.866-3.427-37.684zm150.643 41.469l.893.292.6.2 1.151 1.135a213.22 213.22 0 012.927-1.935c-1.81.108-3.669.217-5.571.308z" fill="url(#paint0_linear)"/><path d="M354.215 268.165s-12.759 33.356-20.014 30.02c-7.255-3.335-5.287-17.512-6.671-21.398-1.384-3.885-2.919-33.355-2.919-33.355s-.7-20.848-2.084-25.067c-1.285-3.878-2.327-23.433-2.502-26.51v-.409l1.376-24.183 7.789-1.943 18.062 6.671 2.502 14.285.975 5.579.417 2.377 3.069 73.933z" fill="#BE6F72"/><path opacity=".1" d="M350.012 262.578s-12.175 9.965-15.844 10.841c-3.669.875-5.921 8.647-5.921 8.647" fill="#000"/><path d="M453.991 269.625s12.759 33.355 20.014 30.02c7.255-3.336 5.287-17.512 6.671-21.398 1.384-3.886 2.918-33.356 2.918-33.356s.701-20.847 2.085-25.067c1.284-3.878 2.327-23.432 2.502-26.51v-.408l-1.384-24.183-7.789-1.943-18.062 6.671-2.502 14.285-.976 5.578-.417 2.377-3.06 73.934z" fill="#BE6F72"/><path d="M370.909 91.12h28.478v44.389h-28.478V91.12z" fill="#3E373A"/><path opacity=".1" d="M370.909 91.12h28.478v44.389h-28.478V91.12z" fill="#000"/><path d="M458.995 302.847s9.731 10.699 6.121 12.642c-3.611 1.943-26.969 38.359-26.969 38.359s-76.718 9.448-91.186-4.728c-14.469-14.176-14.177-39.502-14.177-39.502s11.625 2.502 12.892 1.143c1.268-1.36 8.231-7.914 8.231-7.914s98.417-5.971 105.088 0z" fill="#4B4B5B"/><path opacity=".02" d="M458.995 302.847s9.731 10.699 6.121 12.642c-3.611 1.943-26.969 38.359-26.969 38.359s-76.718 9.448-91.186-4.728c-14.469-14.176-14.177-39.502-14.177-39.502s11.625 2.502 12.892 1.143c1.268-1.36 8.231-7.914 8.231-7.914s98.417-5.971 105.088 0z" fill="#000"/><path d="M320.884 167.613l25.017 20.014 7.563.55 2.777.2 46.64 3.419 48.366-3.535 7.197-.526 9.173-.667 19.179-18.346s-13.576-14.543-25.467-24.358c-4.686-3.877-9.114-7.013-12.342-8.247l-.55-.192a13.719 13.719 0 01-5.287-3.686c-9.39-9.681-18.07-33.572-18.07-33.572s-41.42-21.398-36.417 6.671c5.004 28.069-18.621 21.131-18.621 21.131l-7.788 3.552-3.078 1.41-7.846 3.594-17.704 8.122c-13.893 6.396-12.742 24.466-12.742 24.466z" fill="#BE6F72"/><path opacity=".1" d="M404.824 121.524c-20.573 0-37.25-16.678-37.25-37.25 0-20.573 16.677-37.25 37.25-37.25s37.25 16.677 37.25 37.25c0 20.572-16.677 37.25-37.25 37.25zm-83.998 72.624h167.355v-.408l-1.384-24.183s-13.576-14.544-25.468-24.359l-105.071-4.169-4.887-5.154-17.703 8.123c-13.901 6.387-12.784 24.458-12.784 24.458s-1.901 20.939-.058 25.692z" fill="#000"/><path d="M320.826 193.314h167.355v-.408l-1.384-24.183s-13.576-14.544-25.468-24.359l-105.071-4.169-4.887-5.153-17.703 8.122c-13.901 6.387-12.784 24.458-12.784 24.458s-1.901 20.939-.058 25.692z" fill="#E7C7CA"/><path opacity=".1" d="M431.651 125.502s-26.402 33.639-61.567-.692c-35.165-34.332-3.894 76.577-3.894 76.577l75.884 9.006-10.423-84.891z" fill="#000"/><path d="M431.651 127.17s-26.402 33.639-61.567-.692c-35.165-34.332-3.894 76.577-3.894 76.577l75.884 9.006-10.423-84.891z" fill="#E7C7CA"/><path opacity=".1" d="M359.218 133.074l-2.793 42.604-2.994 14.176-2.285 10.841s-5.837 83.389-4.169 87.559c1.668 4.169-.834 7.505-1.184 9.723-.351 2.218.35 7.789.075 10.29-.276 2.502 0 3.611 6.387 2.719 6.388-.892 15.294-2.443 15.294-2.443s22.515 1.667 30.295-1.109c7.781-2.777 22.516-2.786 22.516-2.786s22.24.559 29.461-.275c7.222-.834 11.125 8.898 15.844 6.113 4.72-2.786-5.553-29.737-8.889-37.526-3.335-7.788 4.445-27.518 4.445-27.518l-10.007-55.513-2.227-12.584v-39.56l-.55-.192a13.727 13.727 0 01-5.287-3.685l-2.502 39.81-78.386 2.785v-44.805" fill="#000"/><path d="M359.218 131.406l-2.793 42.604-2.994 14.176-2.285 10.841s-5.837 83.389-4.169 87.559c1.668 4.169-.834 7.505-1.184 9.723-.351 2.218.35 7.789.075 10.29-.276 2.502 0 3.611 6.387 2.719 6.388-.892 15.294-2.443 15.294-2.443s22.515 1.667 30.295-1.109c7.781-2.777 22.516-2.786 22.516-2.786s22.24.559 29.461-.275c7.222-.834 11.125 8.898 15.844 6.113 4.72-2.786-5.553-29.737-8.889-37.526-3.335-7.788 4.445-27.518 4.445-27.518l-10.007-55.513-2.227-12.584v-39.56l-.55-.192a13.727 13.727 0 01-5.287-3.685l-2.502 39.81-78.386 2.785V130.03" fill="#E7C7CA"/><path opacity=".1" d="M350.204 42.495c.475-1.742 1.134-3.552 2.501-4.72a10.245 10.245 0 014.403-1.8 87.02 87.02 0 0111.575-2.219 18.536 18.536 0 012.502-5.195c8.172-11.541 20.263-22.424 34.49-24.884 7.446-1.292 16.077-.133 20.847 5.738 2.619 3.227 3.744 7.505 6.388 10.674 5.095 6.154 14.293 6.913 20.714 11.674 3.427 2.502 5.912 6.13 8.339 9.648 2.627 3.811 5.328 7.78 6.162 12.334 1.668 9.098-4.344 17.77-5.453 26.951-2.502 20.539 19.513 38.76 15.352 59.024-2.427 11.816-13.343 20.138-24.634 24.358-3.977 1.493-8.522 2.977-10.382 6.796-.834 1.668-.975 3.594-1.759 5.279-2.635 5.62-11.299 5.837-15.953 1.743-4.653-4.095-6.12-10.716-6.671-16.895-2.235-26.985 8.573-53.645 7.313-80.697-.375-8.18-2.676-17.461-10.006-21.164-9.865-5.003-21.732 3.336-32.589 1.743a64.65 64.65 0 00-3.119 39.452c1.726 7.196 4.712 14.176 4.929 21.598.325 11.299-5.771 21.623-11.041 31.613a16.823 16.823 0 00-2.227 6.096 14.694 14.694 0 001.193 6.379c2.977 8.014 8.113 15.452 8.697 23.983a3.878 3.878 0 01-.625 2.852 3.589 3.589 0 01-2.152.967c-9.006 1.543-16.794-6.438-21.189-14.451a67.75 67.75 0 01-8.356-28.787c-.909-16.978 5.179-33.681 4.804-50.676-.434-19.321-9.165-38.776-4.053-57.414z" fill="#000"/><path d="M349.37 41.661c.475-1.742 1.134-3.552 2.501-4.72a10.244 10.244 0 014.403-1.8c3.804-1 7.671-1.742 11.575-2.219a18.536 18.536 0 012.502-5.195c8.172-11.541 20.263-22.424 34.49-24.884 7.446-1.292 16.077-.133 20.847 5.738 2.619 3.227 3.744 7.505 6.388 10.674 5.095 6.154 14.293 6.913 20.714 11.674 3.427 2.502 5.912 6.13 8.339 9.648 2.627 3.811 5.329 7.78 6.162 12.334 1.668 9.098-4.344 17.77-5.453 26.951-2.502 20.539 19.513 38.76 15.352 59.024-2.427 11.816-13.343 20.138-24.634 24.358-3.977 1.493-8.522 2.977-10.382 6.796-.834 1.668-.975 3.594-1.759 5.279-2.635 5.62-11.299 5.837-15.953 1.743-4.653-4.095-6.12-10.716-6.671-16.895-2.235-26.985 8.573-53.645 7.313-80.697-.375-8.18-2.676-17.461-10.006-21.164-9.865-5.003-21.732 3.336-32.589 1.743A64.65 64.65 0 00379.39 99.5c1.726 7.196 4.712 14.176 4.928 21.598.326 11.299-5.77 21.623-11.04 31.613a16.823 16.823 0 00-2.227 6.096 14.694 14.694 0 001.193 6.379c2.977 8.014 8.113 15.452 8.697 23.983a3.878 3.878 0 01-.625 2.852 3.589 3.589 0 01-2.152.967c-9.006 1.543-16.794-6.438-21.189-14.451a67.75 67.75 0 01-8.356-28.787c-.909-16.978 5.179-33.681 4.804-50.676-.434-19.321-9.165-38.776-4.053-57.414z" fill="#3E373A"/><path d="M367.791 410.887l-33.081 1.059 4.745-24.533 25.342 2.41 2.994 21.064z" fill="#C3C7D9"/><path d="M265.288 352.739c2.227 2.777 10.841 7.78 11.675 9.448.834 1.668 11.116 6.671 16.403 7.505 5.287.834 21.956 4.453 25.017 6.396 2.193 1.401 19.796 5.838 31.362 8.298a88.898 88.898 0 009.499 1.709c5.003.275 59.757-18.346 59.757-18.346l-10.557-10.84-.584-.2c-2.985-1.009-16.778-5.671-24.433-7.889-8.623-2.502-18.63-12.784-18.63-12.784s-14.726-5.003-16.678-5.562c-1.951-.559 5.004-19.455 5.004-19.455s-31.964-4.436-44.472-8.197c-12.508-3.761-41.42-2.368-46.698 12.367-5.279 14.735 1.075 34.773 3.335 37.55z" fill="#4B4B5B"/><path d="M410.945 399.713s6.388 6.671 12.784 6.12c6.396-.55 28.761 1.668 28.761 1.668a44.86 44.86 0 0111.266 6.53c5.228 4.119 8.005.834 8.522.133l.092-.133c2.785 8.764 9.173 2.084 9.173 2.084s-2.777-26.684-1.926-30.02c.85-3.336-5.496-9.064-5.496-9.064l-7.505-1.91-19.013-4.87-27.243 9.448-9.415 20.014z" fill="#E7C7CA"/><path opacity=".1" d="M466.65 375.121l5.628 39.043.092-.133c2.785 8.764 9.173 2.085 9.173 2.085s-2.777-26.685-1.926-30.021c.85-3.335-5.496-9.064-5.496-9.064l-7.471-1.91zm-39.344-111.059s-14.726 5.004-27.518 0zm-50.276 9.457s-6.112 3.052-10.84 0zm0 7.238s-10.282 1.376-12.233-1.401zm3.336 15.552s-19.313-2.502-24.108-5.837zm58.932-5.837s-10.841 6.112-18.905 5.837zm-89.544 93.914a89.085 89.085 0 009.498 1.709c5.003.275 59.757-18.346 59.757-18.346l-10.557-10.84-.584-.201c-1.668 1.176-3.035 2.185-4.011 2.953-4.595 3.619-9.031-1.11-10.699-1.11-1.668 0-16.119 11.95-16.119 11.95s-13.343 3.061-15.569 5.837c-2.227 2.777-10.007 2.227-11.391 4.17-.417.6-.467 2.076-.325 3.878z" fill="#000"/><path d="M452.49 312.153s13.492.776 21.273-2.501c7.78-3.278 33.631-10.841 41.136-5.529 7.505 5.312 25.575 10.007 17.236 31.138-8.339 21.131-12.233 21.681-12.233 21.681a30.125 30.125 0 00-6.671 6.921c-2.502 3.895-25.851 12.784-31.688 12.784-5.838 0-16.119 0-30.571 10.007-14.451 10.007-27.519 11.124-27.519 11.124s-18.345 7.505-24.058 9.173c-5.712 1.668-31.813 8.889-37.934 6.671-6.12-2.218-10.006-16.127-10.006-16.127s-2.777-12.509-1.385-14.452c1.393-1.943 9.173-1.393 11.391-4.169 2.219-2.777 15.569-5.838 15.569-5.838s14.418-11.958 16.086-11.958c1.668 0 6.104 4.72 10.699 1.109a244.21 244.21 0 0128.778-18.346c10.557-5.562 19.897-31.688 19.897-31.688z" fill="#4B4B5B"/><path opacity=".1" d="M479.616 320.217a15.928 15.928 0 00-13.667 3.611c-6.671 5.562-29.12 16.728-29.12 16.728m-124.008-20.689s29.745 4.503 35.298 10.615z" fill="#000"/><path d="M278.63 411.946h1.31c4.703-.167 20.639-.667 23.707 0 3.611.834 51.427 0 51.427 0l-9.348-1.943s3.469-12.158 1.267-13.167c0 0 12.509-8.239 3.077-13.801-9.431-5.562-19.596-3.219-19.596-3.219l-23.675-8.022-4.544-1.543s-26.685 1.393-33.907 19.738c-7.221 18.346 10.282 21.957 10.282 21.957z" fill="#E7C7CA"/><path opacity=".1" d="M278.631 411.946h1.309c-7.764-6.404-25.326-25.901 26.86-40.11l-4.545-1.543s-26.685 1.393-33.906 19.738c-7.222 18.346 10.282 21.915 10.282 21.915z" fill="#000"/><path d="M327.689 390.331a1.46 1.46 0 110-2.92 1.46 1.46 0 010 2.92zm8.481 2.41a1.46 1.46 0 110-2.92 1.46 1.46 0 010 2.92z" fill="#4B4B5B"/><path opacity=".1" d="M377.489 82.898a64.699 64.699 0 014.787-26.802c10.84 1.618 22.715-6.746 32.588-1.742 7.305 3.702 9.599 12.983 10.007 21.164.1 2.16.117 4.32.075 6.48 0-.768 0-1.543-.075-2.31-.383-8.181-2.677-17.462-10.007-21.165-9.873-5.003-21.731 3.336-32.588 1.743a64.518 64.518 0 00-4.787 22.632zm84.007-1.526a27.766 27.766 0 01.108-5.454c.884-7.338 4.895-14.352 5.621-21.506.934 8.63-4.562 16.92-5.621 25.675-.108.45-.108.85-.108 1.285zm-43.938 74.834c.517 6.187 1.976 12.8 6.671 16.903 4.695 4.103 13.342 3.877 15.952-1.743.834-1.668.959-3.611 1.768-5.279 1.852-3.819 6.405-5.303 10.382-6.796 11.3-4.228 22.199-12.508 24.625-24.358.217-1.074.365-2.16.442-3.252a26.254 26.254 0 01-.442 7.421c-2.426 11.817-13.342 20.131-24.625 24.359-3.977 1.492-8.53 2.977-10.382 6.796-.834 1.668-.975 3.594-1.768 5.278-2.626 5.621-11.291 5.838-15.952 1.743-4.662-4.094-6.113-10.715-6.671-16.903a95.462 95.462 0 01-.259-9.79c0 1.893.109 3.761.259 5.621zm-64.411-61.083v3.61c-.467-15.51-6.154-31.104-5.595-46.29.434 14.044 5.279 28.403 5.595 42.68zm17.896 62.742a10.746 10.746 0 01-.192-3.01 16.689 16.689 0 012.227-6.096c4.82-9.173 10.315-18.562 10.965-28.744 0 .433.059.834.067 1.301.334 11.291-5.762 21.623-11.032 31.613a20.006 20.006 0 00-2.035 4.936zm-22.69-12.066a67.842 67.842 0 008.414 28.786c4.403 8.014 12.183 15.994 21.197 14.451a3.546 3.546 0 002.152-.975 2.1 2.1 0 00.392-.651c.1.651.183 1.309.233 1.977a3.841 3.841 0 01-.625 2.843 3.547 3.547 0 01-2.152.976c-9.014 1.542-16.794-6.438-21.197-14.452a67.837 67.837 0 01-8.414-28.786 71.495 71.495 0 01-.05-5.837c.016.559.016 1.109.05 1.668z" fill="#000"/><path opacity=".1" d="M346.993 396.836s-21.106 8.856-35.024-10.741m30.872 26.218s-17.237-11.208-39.194-.367m154.572-2.176s-7.238-16.328-26.568-3.878" stroke="#000" stroke-miterlimit="10"/><path opacity=".1" d="M481.685 168.306l-14.76-13.343s-57.231-3.752-59.599 15.703c0 0-20.289-23.066-62.959-17.929l-18.054 14.376 49.9 21.899 48.491 16.819 35.716-15.986 21.265-21.539z" fill="#000"/><path d="M481.685 169.14l-14.76-13.343s-57.231-3.752-59.599 15.703c0 0-20.289-23.066-62.959-17.929l-18.054 14.376 49.9 21.899 48.491 16.819 35.716-15.986 21.265-21.539z" fill="#D5D6DB"/><path opacity=".1" d="M488.214 170.808l-6.529 78.111-69.214 3.477 3.002-77.777.059-1.31 72.682-2.501z" fill="#000"/><path d="M488.214 169.14l-6.529 78.111-69.214 3.477 3.002-77.777.059-1.31 72.682-2.501z" fill="#D56CFF"/><path opacity=".1" d="M323.144 169.14l71.398 10.707v78.461l-69.772-10.081-1.626-79.087z" fill="#000"/><path d="M323.144 167.472l71.398 10.707v78.461l-69.772-10.081-1.626-79.087z" fill="#D56CFF"/><path opacity=".3" d="M339.981 186.618l38.567 4.286-.842 13.143-37.7-4.12-.025-13.309z" fill="#fff"/><path d="M477.932 289.079l-3.927 10.566s-5.838 5.003-12.225 2.501c-6.388-2.501-11.959-3.744-14.735-6.179-2.777-2.435-6.672-14.668-6.672-14.668s-3.894-13.343-7.78-16.678c-3.886-3.336-14.176-49.292 0-44.797 14.176 4.494 25.017 46.189 25.017 46.189s2.502 3.052 6.113 3.336c3.61.284 10.84-.559 12.233 2.502 1.392 3.06 6.146 11.116 1.976 17.228z" fill="#BE6F72"/><path opacity=".1" d="M394.543 179.838a24.014 24.014 0 0020.939-5.22l-3.011 77.77s-7.088 7.671-17.928 5.92v-78.47z" fill="#000"/><path d="M394.543 178.171a24.016 24.016 0 0020.939-5.22l-3.011 77.769s-7.088 7.672-17.928 5.921v-78.47z" fill="#D56CFF"/><path opacity=".1" d="M394.543 178.171a24.016 24.016 0 0020.939-5.22l-3.011 77.769s-7.088 7.672-17.928 5.921v-78.47zm-1.668-8.764s-29.045-8.881-36.617-7.631zm32.489-3.878s28.152-6.671 32.855-4.778zm-50.802 4.986s-19.421-7.121-26.443-3.735zm9.781 178.647a63.768 63.768 0 00-9.573-5.946c-5.003-2.41-14.176-8.664-14.176-8.664m97.625-70.49s12.183 9.966 15.844 10.841c3.661.876 5.921 8.648 5.921 8.648" fill="#000"/><path d="M330.307 287.595l3.886 10.591s5.837 5.003 12.233 2.501c6.396-2.501 11.95-3.744 14.735-6.179 2.786-2.435 6.672-14.668 6.672-14.668s3.885-13.343 7.78-16.678c3.894-3.336 14.176-49.292 0-44.797-14.176 4.494-25.017 46.189-25.017 46.189s-2.502 3.052-6.113 3.336c-3.61.284-10.84-.559-12.233 2.502-1.392 3.06-6.112 11.116-1.943 17.203z" fill="#BE6F72"/><path opacity=".1" d="M337.12 268.115s-7.964 5.12-7.93 11.241z" fill="#000"/><path d="M404.691 119.698c-20.573 0-37.251-16.678-37.251-37.25 0-20.573 16.678-37.25 37.251-37.25 20.572 0 37.25 16.677 37.25 37.25 0 20.572-16.678 37.25-37.25 37.25z" fill="#BE6F72"/><path d="M428.082 72.45c-4.52-.71-8.481-3.337-12.8-4.846-9.665-3.394-20.356-1.067-30.138 1.993-3.752 1.176-7.563 2.502-11.499 2.502-3.936 0-8.114-1.61-10.124-5.004-1.851-3.118-1.492-7.171.067-10.448 1.56-3.277 4.17-5.913 6.805-8.398 8.672-8.189 19.43-15.844 31.329-15.01 4.787.342 9.365 2.052 13.768 3.945a151.733 151.733 0 0116.161 8.138c4.011 2.327 11.441 5.437 13.751 9.69 5.253 9.582-9.148 18.721-17.32 17.437z" fill="#3E373A"/><path opacity=".1" d="M363.521 63.593c2.01 3.394 6.187 5.004 10.123 5.004 3.936 0 7.747-1.276 11.508-2.452 9.782-3.06 20.464-5.395 30.137-1.993 4.312 1.51 8.281 4.17 12.801 4.837 6.588 1.034 17.195-4.704 18.346-12 1.292 8.43-11.008 15.652-18.346 14.501-4.52-.709-8.489-3.335-12.801-4.836-9.673-3.403-20.355-1.068-30.137 1.993-3.761 1.175-7.563 2.501-11.508 2.451-3.944-.05-8.113-1.6-10.123-5.003a9.764 9.764 0 01-1.168-6.096 9.01 9.01 0 001.168 3.594z" fill="#000"/><path d="M61.225 515.524s-4.945 6.463 2.285 16.228 13.184 18.004 10.782 24.091c0 0-10.908-18.129-19.78-18.387-8.873-.259-3.036-11.033 6.713-21.932z" fill="#D56CFF"/><path opacity=".1" d="M61.224 515.524a8.017 8.017 0 00-1.008 2.027c-8.656 10.173-13.276 19.671-4.946 19.905 7.756.225 17.054 14.093 19.28 17.587a8.17 8.17 0 01-.258.834s-10.908-18.129-19.78-18.388c-8.873-.258-3.036-11.066 6.712-21.965z" fill="#000"/><path d="M52.052 523.763c0 2.277.259 4.12.567 4.12.309 0 .575-1.843.575-4.12 0-2.276-.316-1.2-.633-1.2s-.509-1.076-.509 1.2z" fill="#FFD037"/><path d="M48.892 526.482c1.993 1.084 3.736 1.743 3.886 1.467.15-.275-1.343-1.384-3.336-2.501-1.993-1.118-1.209-.3-1.36 0-.15.3-1.192-.059.81 1.034z" fill="#FFD037"/><path d="M87.359 515.524s4.945 6.463-2.285 16.228S71.89 549.756 74.3 555.843c0 0 10.899-18.129 19.78-18.387 8.881-.259 3.002-11.033-6.721-21.932z" fill="#D56CFF"/><path opacity=".1" d="M87.359 515.524c.43.625.77 1.307 1.009 2.027 8.656 10.173 13.275 19.671 4.945 19.905-7.747.225-17.053 14.093-19.28 17.587.07.284.16.562.267.834 0 0 10.9-18.129 19.78-18.388 8.881-.258 3.002-11.066-6.721-21.965z" fill="#000"/><path d="M96.55 523.763c0 2.277-.251 4.12-.568 4.12-.317 0-.575-1.843-.575-4.12 0-2.276.325-1.2.633-1.2.309 0 .51-1.076.51 1.2z" fill="#FFD037"/><path d="M99.701 526.482c-1.993 1.084-3.735 1.743-3.886 1.467-.15-.275 1.343-1.384 3.336-2.501 1.993-1.118 1.209-.3 1.359 0 .15.3 1.193-.059-.809 1.034z" fill="#FFD037"/><path opacity=".1" d="M74.292 605.31c-28.554 0-51.702-3.55-51.702-7.93s23.148-7.93 51.702-7.93 51.702 3.55 51.702 7.93-23.148 7.93-51.702 7.93z" fill="#D56CFF"/><path d="M47.683 547.129l.25 2.018.35 2.852.142 1.193.35 2.851.15 1.193.342 2.844 3.961 32.438c.35 2.894 5.078 5.154 10.79 5.154h20.556c5.712 0 10.432-2.26 10.79-5.154l3.962-32.438.35-2.844.142-1.193.35-2.851.15-1.193.342-2.852.25-2.018c.192-1.668-2.36-3.019-5.595-3.019H53.27c-3.228 0-5.788 1.376-5.587 3.019z" fill="#65617D"/><path d="M47.932 549.147l.342 2.852h52.036l.35-2.852H47.933zm.493 4.045l.342 2.852h51.05l.351-2.852H48.425zm.491 4.044l.35 2.852h50.06l.341-2.852h-50.75z" fill="#9D9CB5"/></g><defs><linearGradient id="paint0_linear" x1="397.102" y1="418.55" x2="397.102" y2="0" gradientUnits="userSpaceOnUse"><stop stop-color="gray" stop-opacity=".25"/><stop offset=".54" stop-color="gray" stop-opacity=".12"/><stop offset="1" stop-color="gray" stop-opacity=".1"/></linearGradient><clipPath id="clip0"><path fill="#fff" transform="matrix(-1 0 0 1 994.007 0)" d="M0 0h994.007v738H0z"/></clipPath><filter id="filter0_f" x="264.726" y="468.197" width="621.721" height="241.997" filterUnits="userSpaceOnUse" color-interpolation-filters="sRGB"><feFlood flood-opacity="0" result="BackgroundImageFix"/><feBlend in="SourceGraphic" in2="BackgroundImageFix" result="shape"/><feGaussianBlur stdDeviation="34" result="effect1_foregroundBlur"/></filter></defs></svg>