<svg width="310" height="1106" fill="none" xmlns="http://www.w3.org/2000/svg"><path d="M159.205 1027.55s33.867-5.41 54.188 18.52c0 0-14.902 11.73-46.957-4.52l-7.231-14zm-3.624-.52s-21.604 26.64-10.996 56.26c0 0 17.594-7.03 19.529-42.93l-8.533-13.33zm-19.405-43.696s13.546-24.827 67.734 9.917c0 0-7.231 16.699-31.158 15.349-23.927-1.35-30.26-12.184-36.576-25.266zm-3.502-1.793s-28.15-3.2-30.824 61.079c0 0 17.822 3.71 30.472-16.63 12.649-20.34 7.424-31.754.352-44.449zm-16.361-51.218s15.834-43.781 73.153-12.642c0 0-13.107 40.176-67.294 27.534l-5.859-14.892zm-17.629-65.514s29.82-44.22 82.688-3.164c0 0-18.526 41.53-78.132 18.971l-4.556-15.807zm-6.316-62.277s34.782-40.616 87.157 0c0 0-32.969 35.657-87.157 10.374v-10.374zm-5.418-60.467s35.186-42.426 85.344-2.268c0 0-39.725 37.469-85.345 12.185v-9.917zm3.166-53.715s36.946-54.611 83.99-17.582c0 0-39.743 46.928-83.99 27.974V688.35zm8.568-62.734s39.303-54.155 84.905-12.625c0 0-46.517 46.928-84.905 22.559v-9.934zm13.107-56.072s46.517-50.884 87.157-30.576c0 0-48.469 54.049-89.11 44.115l1.953-13.539zm16.327-53.134s53.659-62.278 84.817-41.478c0 0-39.532 48.3-88.758 53.258l3.941-11.78zm23.399-61.663s46.974-50.884 81.299-38.259c0 0-40.201 52.747-87.615 54.154l6.316-15.895zm21.235-57.671s51.935-48.739 74.507-40.159c0 0-37.473 54.155-76.759 50.99l2.252-10.831zm20.778-53.24s44.704-58.216 69.089-53.715c0 0-27.094 51.904-69.089 59.57v-5.855zm22.554-71.79s39.515-44.642 60.855-44.537c0 0-31.192 59.606-62.473 59.096l1.618-14.559zm13.336-47.807l38.159-92.977s1.918 84.045-43.015 110.226l4.856-17.249zm15.498-102.524s6.351-77.557 2.252-83.957c0 0 27.287 64.546-2.516 118.243l.264-34.286zm-130.083 807.5s-39.585-24.51-65.201 35.482c0 0 35.187 23.367 69.845-20.168l-4.644-15.314zm-17.4-66.902s-48.558-22.119-72.133 40.44c0 0 37.492 25.723 76.514-24.616l-4.381-15.824zm-7.319-56.054s-34.782-40.615-87.157 0c0 0 32.97 35.64 87.157 10.374v-10.374zm-4.346-64.194S50.585 699.639.427 739.797c0 0 39.725 37.469 85.345 12.185v-9.917zm4.346-52.168s-24.718-61.17-78.413-34.866c0 0 28.976 54.243 76.232 45.012l2.181-10.146z" fill="#B862FF"/><path d="M101.727 625.316s-24.542-62.225-79.064-33.407c0 0 33.427 57.038 76.601 42.99l2.463-9.583zm15.307-55.438s-9.747-68.22-54.768-74.321c0 0 9.57 71.93 48.751 86.612l6.017-12.291zm12.156-53.363s-3.764-82.146-41.115-85.047c0 0 1.267 62.383 36.946 96.704l4.169-11.657zm26.198-64.106s-11.137-68.361-46.746-76.713c0 0 4.416 66.198 43.245 93.434l3.501-16.721zm21.585-54.84s-.369-71.21-22.15-81.672c0 0-13.494 64.458 15.834 90.762l6.316-9.09zm18.209-54.506s-3.043-73.338-25.598-83.659c0 0-7.706 58.023 22.221 88.459l3.377-4.8zm24.034-65.179s-.141-59.605-16.221-73.619c0 0-16.01 65.32 7.811 85.61l8.41-11.991z" fill="#B862FF"/><path d="M227.52 221.303l-15.64-99.272s-21.288 81.338 16.397 117.171l-.757-17.899zm3.06-98.657s-40.183-66.708-39.356-74.18c0 0 4.258 69.925 54.856 104.792l-15.5-30.612zm4.716-19.692S197.365 8.166 180.194.5c0 0 54.187 27.534 58.268 99.746l-3.166 2.708z" fill="#B862FF"/><path d="M214.324 287.149l-2.586-.791c32.002-104.318 39.989-170.921 22.484-187.501l1.865-1.97c18.473 17.601 10.943 83.378-21.763 190.262z" fill="#444053"/><path d="M126.095 531.355l-3.835-1.354c3.395-9.565 7.037-19.341 10.908-28.836 33.427-83.218 61.857-160.635 80.084-220.082l3.343-1.67c-18.28 59.552-46.253 139.94-79.68 223.264a793.227 793.227 0 00-10.82 28.678z" fill="#444053"/><path d="M206.865 1105.64c-.528-.58-52.41-58.96-88.582-158.649a587.23 587.23 0 01-34.975-181.769c-2.481-77.54 13.81-164.187 41.713-242.817l3.026 3.517c-62.632 176.582-37.755 327.898-4.75 418.994 35.802 98.784 87.087 156.484 87.597 157.104l-4.029 3.62z" fill="#444053"/><path d="M254.35 950.402s15.975-2.549 25.563 8.791c0 0-7.037 5.539-22.15-2.127l-3.413-6.664zm-1.707-.246s-10.204 12.571-5.278 26.514c0 0 8.322-3.34 9.219-20.255l-3.941-6.259zm-9.167-20.625s6.387-11.71 31.967 4.695c0 0-3.413 7.877-14.708 7.244s-14.268-5.75-17.259-11.939zm-1.654-.844s-13.265-1.512-14.549 28.836c0 0 8.409 1.758 14.391-7.86 5.982-9.617 3.501-14.98.158-20.976zm-7.723-24.194s7.46-20.659 34.518-5.96c0 0-6.175 18.954-31.668 12.993l-2.85-7.033zm-8.304-30.875s14.075-20.87 38.987-1.494c0 0-8.797 19.587-36.946 8.932l-2.041-7.438zm-2.991-29.45s16.415-19.165 41.134 0c0 0-15.553 16.826-41.134 4.905v-4.905zm-2.55-28.484s16.625-20.027 40.271-1.073c0 0-18.755 17.689-40.271 5.75v-4.677zm1.495-25.337s17.47-25.776 39.62-8.317c0 0-18.737 22.154-39.62 13.205v-4.888zm4.046-29.609s18.526-25.548 40.06-5.961c0 0-21.956 22.155-40.06 10.55v-4.589zm6.122-26.462s21.939-24.018 41.133-14.435c0 0-22.871 25.512-42.065 20.818l.932-6.383zm7.725-25.073s25.352-29.398 40.06-19.604c0 0-18.667 22.857-41.89 25.143l1.83-5.539zm11.066-29.099s22.167-24.018 38.371-18.057c0 0-18.966 24.914-41.345 25.565l2.974-7.508zm10.028-27.218s24.507-22.998 35.186-18.954c0 0-17.698 25.565-36.224 24.071l1.038-5.117zm9.887-25.125s21.112-27.464 32.6-25.337c0 0-12.773 24.493-32.6 28.132v-2.795zm10.556-33.865s18.649-21.099 28.712-21.099c0 0-14.708 28.132-29.486 27.886l.774-6.787zm6.298-22.576l18.015-43.868s.897 39.666-20.303 52.009l2.288-8.141zm7.318-48.369s2.974-36.643 1.056-39.614c0 0 12.878 30.453-1.179 55.79l.123-16.176zm-61.382 380.998s-18.684-11.57-30.771 16.738c0 0 16.608 11.024 32.952-9.512l-2.181-7.226zm-8.215-31.509s-22.871-10.444-34.025 19.095c0 0 17.698 12.132 36.101-11.639l-2.076-7.456zm-3.449-26.514s-16.414-19.165-41.133 0c0 0 15.553 16.826 41.133 4.905v-4.905zm-2.059-30.242s-16.625-20.027-40.271-1.073c0 0 18.755 17.689 40.271 5.75v-4.677zm2.058-24.616s-11.664-28.871-36.946-16.457c0 0 13.67 25.6 35.979 21.239l.967-4.782z" fill="#B862FF"/><path d="M227.257 760.597s-11.577-29.363-37.316-15.824c0 0 15.834 26.919 36.154 20.29l1.162-4.466zm7.177-26.163s-4.592-32.194-25.827-35.077c0 0 4.504 33.934 22.995 40.88l2.832-5.803zm5.753-25.178s-1.76-38.682-19.353-40.141c0 0 .598 29.451 17.417 45.627l1.936-5.486zm12.35-30.26s-5.278-32.246-22.062-36.203c0 0 2.094 31.245 20.409 44.098l1.653-7.895zm10.186-25.864s-.175-33.6-10.45-38.541c0 0-6.369 30.418 7.477 42.831l2.973-4.29zm8.604-25.741s-1.442-34.602-12.086-39.473c0 0-3.642 27.377 10.556 41.742l1.53-2.269zm11.33-30.752s0-28.132-7.653-34.725c0 0-7.547 30.822 3.695 40.44l3.958-5.715z" fill="#B862FF"/><path d="M286.58 569.878l-7.372-46.84s-10.045 38.365 7.724 55.28l-.352-8.44zm1.443-46.488s-18.965-31.491-18.578-35.007c0 0 2.023 33.002 25.897 49.46l-7.319-14.453zm2.234-1.301s-17.875-49.338-26.003-53.335c0 0 25.563 14.338 27.481 51.938l-1.478 1.397z" fill="#B862FF"/><path d="M280.317 609.017l-1.232-.39c15.113-51.973 18.878-85.143 10.556-93.422l.88-.965c8.814 8.761 5.278 41.486-10.204 94.777z" fill="#444053"/><path d="M238.727 724.254l-1.76-.659a380.536 380.536 0 015.138-14.182c15.833-40.931 29.187-79.005 37.807-108.228l1.566-.825c-8.62 29.316-21.798 68.818-37.597 109.804a303.084 303.084 0 00-5.154 14.09z" fill="#444053"/><path d="M276.833 995.255c-.246-.286-24.736-28.321-41.802-76.226a286.774 286.774 0 01-16.502-87.362c-1.179-37.272 6.509-78.894 19.687-116.686l1.425 1.791c-29.557 84.837-17.805 157.537-2.235 201.308 16.89 47.458 41.081 75.188 41.327 75.493l-1.9 1.682z" fill="#444053"/></svg>