<svg width="415" height="224" fill="none" xmlns="http://www.w3.org/2000/svg"><path d="M200.868 195.323s35.486 50.145 64.515 17.582c0 0 6.826-3.639 5.278-11.165 0 0-2.551 1.917-5.578-3.516a28.892 28.892 0 00-3.923-5.398 13.9 13.9 0 00-7.723-4.255s-16.344-8.985-42.541 3.393c0 0-7.899 0-9.007 1.126l9.922 5.275s3.624-7.438 10.204-9.143c0 0-10.257 8.65-8.796 10.004.299.264 5.383 2.567 5.383 2.567s6.351-12.87 16.608-15.209c0 0-13.599 8.668-14.673 16.106l7.865 3.024s6.034-13.943 17.593-17.037c0 0-13.899 9.547-15.834 17.582l8.146 1.934s6.157-13.486 15.833-16c0 0-14.936 12.66-13.898 16.317 0 0 7.583 1.318 9.764.685 0 0 4.645-9.565 10.38-10.549 0 0-9.096 9.512-8.233 10.673 0 0 10.327-.915 15.323-4.15a31.4 31.4 0 01-15.112 5.75 17.334 17.334 0 009.078 4.026s-5.278 3.112-11.577-3.833c0 0-8.093.387-9.201-.352 0 0 5.278 7.719 10.679 10.55 0 0-7.6-.264-12.86-10.989l-8.234-1.759s6.351 10.55 11.031 13.469c0 0-7.706-1.46-13.072-14.066l-7.759-2.884s4.786 9.53 9.29 13.873c0 0-6.844-2.901-11.471-14.787l-5.014-2.444s3.606 6.892 4.838 8.791c1.231 1.899.792 2.374.792 2.374a26.515 26.515 0 01-7.724-12.185s-9.887-6.013-10.292-5.38zM413.392 2.842s-59.641-15.104-60.626 28.378c0 0-2.85 7.191 3.272 11.868 0 0 .704-3.094 6.58-.879a28.165 28.165 0 006.474 1.583 13.978 13.978 0 008.639-1.759s18.279-3.745 30.172-30.154c0 0 6.035-5.099 6.14-6.699l-10.996 2.391s2.059 8-1.759 13.574c0 0 2.182-13.222.176-13.292-.405 0-5.771 1.53-5.771 1.53s3.519 13.925-2.762 22.347c0 0 4.733-15.42.722-21.785l-7.97 2.813s4.451 14.524-2.34 24.387c0 0 4.381-16.281.651-23.648l-7.548 3.78s4.064 14.26-1.653 22.418c0 0 3.166-19.341 0-21.416 0 0-6.633 3.904-7.882 5.802 0 0 2.674 10.286-1.073 14.735 0 0 .756-13.135-.634-13.451 0 0-7.283 7.402-8.99 13.1a31.342 31.342 0 017.776-14.173 17.252 17.252 0 00-9.518 2.814s2.024-5.82 11.295-4.59c0 0 5.912-5.538 7.231-5.696 0 0-8.972-2.514-14.972-1.125 0 0 5.947-4.713 16.925 0l7.389-4.01s-11.682-3.938-17.136-3.094c0 0 6.826-3.886 19.089 2.25l7.776-2.83s-9.817-4.167-16.062-4.536c0 0 7.037-2.25 18.314 3.798l5.419-1.284s-7.213-2.901-9.377-3.517c-2.164-.615-2.147-1.283-2.147-1.283a26.399 26.399 0 0113.793 4.255s11.383-1.881 11.383-2.602zM10.14 44.622s-28.537 54.4 13.634 65.425c0 0 6.351 4.431 12.316-.439 0 0-2.868-1.407.668-6.594a28.753 28.753 0 003.026-5.943 13.847 13.847 0 00.264-8.791s.58-18.638-22.379-36.308c0 0-3.518-7.033-5.102-7.508l-.21 11.253s8.268-.176 12.79 4.905c0 0-12.316-5.275-12.896-3.235-.106.387.158 5.96.158 5.96s14.356-.21 21.112 7.842c0 0-13.899-8.158-21.024-5.731l.897 8.386s15.166-.967 23.188 7.93c0 0-14.831-8.035-22.871-6.1l1.988 8.122s14.813-.65 21.446 6.787c0 0-18.068-7.543-20.866-4.94 0 0 2.288 7.349 3.836 9.002 0 0 10.644-.229 14.075 4.448 0 0-12.615-3.763-13.266-2.479 0 0 5.524 8.791 10.68 11.745a31.33 31.33 0 01-12-10.83 17.415 17.415 0 00.546 9.916s-5.278-3.323-1.865-12.062c0 0-4.029-7.033-3.87-8.334 0 0-4.522 8.14-4.54 14.295 0 0-3.237-6.875 3.941-16.44l-2.181-8.123S5.09 87.242 4.598 92.728c0 0-2.2-7.525 6.597-18.04l-.95-8.21s-6.334 8.58-8.128 14.575c0 0-.545-7.42 7.935-16.95v-5.555s-4.504 6.347-5.63 8.299c-1.126 1.951-1.76 1.758-1.76 1.758A26.371 26.371 0 0110 56.174s.827-11.446.14-11.552z" fill="#B862FF"/></svg>