<svg width="375" height="2001" xmlns="http://www.w3.org/2000/svg"><path fill="none" d="M-1-1h377v2003H-1z"/><path fill="#B04FFD" d="M1808.07 1620.11c-137.75 65.54-2246.388 491.14-2333.676 388.03C-799.778 1684.26-953.68 304.23-953.68 304.23c823.322-341.72 1749.262-420.09 2218.42 46.24 469.16 466.34 478.36 843.56 723.18 918.98 647.51 140.28 1759.14-276.73 1844.19-227.92-135.49-131.27 151.18 86.8 0 0-80.63-107.17 96.6 93.6 0 0 224.96 299.24-851.84 41.85-741.71 355.96 48.34 137.8 81.24 279.09 50.47 381.78-30.77 102.68-140.68 154.36-273.12 89-54.79-27.04-107.89-70.57-159.6-113.46-76.1-63.16-153.11-127.57-233.53-173.93-83.06-47.87-192.17-120.36-314.45-8.33s-254.87 1.29-352.1 47.56z" opacity=".1"/></svg>