<svg width="132" height="911" fill="none" xmlns="http://www.w3.org/2000/svg"><g opacity=".06"><path d="M92 803.91s-26.25-4.216-42 14.401c0 0 11.55 9.133 36.4-3.512L92 803.91zm2.858-.41s17.306 20.346 8.782 43c0 0-14.103-5.392-15.64-32.858l6.858-10.142zM110 769.084s-10.6-19.024-53 7.604c0 0 5.653 12.789 24.38 11.752 18.727-1.037 23.673-9.332 28.62-19.356zm2.771-1.563S134.858 765 137 815.295c0 0-14.003 2.887-23.95-13.021-9.948-15.908-5.867-24.833-.279-34.753z" fill="#D56CFF"/><path d="M126 727.013s-12.531-34.024-58-9.821c0 0 10.383 31.218 53.346 21.396L126 727.013zm13-50.702s-23.082-33.867-64-2.469c0 0 14.339 31.793 60.503 14.514L139 676.311zm5-48.843s-27.15-31.428-68 0c0 0 25.739 27.576 68 8.028v-8.028zm5-47.633s-27.651-33.291-67-1.771c0 0 31.196 29.396 67 9.563v-7.792zm-3-41.825s-29.147-42.142-66-13.583c0 0 31.226 36.221 66 21.593v-8.01zm-7-48.618s-30.543-41.893-66-9.775c0 0 36.16 36.307 66 17.455v-7.68zm-9.596-44.349S92.871 405.436 61 421.213c0 0 38.066 42.065 70 34.34l-1.596-10.51zm-13.365-41.684S74.288 354.522 50 370.835c0 0 30.761 37.877 69 41.665l-2.961-9.141zm-17.934-48.025S61.64 316.37 35 326.043c0 0 31.196 40.421 68 41.457l-4.895-12.166zm-16.87-44.455S40.647 272.553 23 279.296c0 0 29.294 42.583 60 40.099l-1.765-8.516zM65 268.858s-34.933-45.704-54-42.162c0 0 21.184 40.745 54 46.804v-4.642zm-17.277-55.937S16.743 177.423 0 177.5c0 0 24.456 47.433 49 46.997l-1.277-11.576zm-10.558-37.878L7.01 102.5s-1.504 65.575 33.99 86l-3.835-13.457zM24.796 94.817S19.805 34.415 23.014 29.5c0 0-21.547 50.22 1.986 92l-.204-26.683zm101.873 631.614s31.157-19.43 51.331 28.103c0 0-27.729 18.523-55-15.98l3.669-12.123z" fill="#700CA2"/><path d="M125 445.847s7.588-53.552 43-58.347c0 0-7.512 56.475-38.232 68L125 445.847zm-9-42.372s2.938-63.75 32-65.975c0 0-.979 48.387-28.723 75L116 403.475zm-21-50.077s8.803-53.378 37-59.898c0 0-3.496 51.692-34.206 73L95 353.398zm-17-42.909s.294-54.921 17.544-62.989c0 0 10.695 49.725-12.548 70L78 310.489zm-14-42.736s2.417-57.194 20.293-65.253c0 0 6.113 45.262-17.62 69L64 267.753zm-19-50.637s.102-46.668 12.84-57.616c0 0 12.66 51.12-6.19 67L45 217.116z" fill="#700CA2"/><path d="M38.596 172.581L51.19 95.5s17.105 63.162-13.189 91l.596-13.919zm-2.47-77.051S67.636 43.304 66.99 37.5c0 0-3.35 54.738-42.99 82l12.126-23.97zm-3.63-15.03S62.45 6.491 76 .5c0 0-42.79 21.498-46 77.885l2.496 2.115z" fill="#700CA2"/><path d="M48.956 224.5l2.044-.618C25.796 142.188 19.51 90.102 33.287 77.04l-1.46-1.54c-14.614 13.782-8.685 65.3 17.129 149z" fill="#444053"/><path d="M117.989 415.5l3.011-1.071a607.576 607.576 0 00-8.551-22.538C86.239 326.8 63.925 266.247 49.619 219.76L47 218.5c14.332 46.575 36.254 109.447 62.489 174.627a495.38 495.38 0 018.5 22.373z" fill="#444053"/><path d="M55.18 864.5c.403-.441 40.989-46.091 69.287-124.023a458.412 458.412 0 0027.339-142.105c1.942-60.645-10.8-128.358-32.626-189.872l-2.371 2.772c49 138.06 29.534 256.363 3.709 327.604C92.523 816.103 52.391 861.249 52 861.703l3.18 2.797z" fill="#444053"/><path opacity=".1" d="M128 764.5s15.75 40.676 0 67v-67zM2 643.5s18 40.663 0 67v-67z" fill="#000"/><path opacity=".1" d="M152 910.5c-16.016 0-29-1.343-29-3s12.984-3 29-3 29 1.343 29 3-12.984 3-29 3z" fill="#D56CFF"/></g></svg>