<svg width="375" height="587" fill="none" xmlns="http://www.w3.org/2000/svg"><path opacity=".1" d="M34.04 97.168c56.16-1.952 109.656-20.08 160.731-39.916 51.076-19.837 101.665-41.816 156.48-52.325 35.257-6.76 75.581-7.714 103.982 11.185 27.343 18.223 36.176 49.592 40.923 78.73 3.575 21.92 5.675 44.984-4.122 65.507-6.794 14.248-18.865 26.223-27.204 39.916-29.043 47.483-8.521 106.038 22.952 152.401 14.752 21.755 31.89 42.52 43.274 65.654 11.385 23.134 16.661 49.678 6.699 73.298-9.883 23.429-33.425 40.992-58.919 53.358-51.796 25.121-112.807 32.306-172.343 36.375-131.749 9.016-264.193 5.111-396.289 1.206-48.889-1.449-97.985-2.915-146.076-10.473-26.709-4.2-54.277-10.856-73.671-26.944-24.609-20.418-30.71-54.997-14.222-80.596 27.672-42.944 104.129-53.609 123.497-99.703 10.638-25.364-.295-53.618-15.758-77.151-33.183-50.468-88.797-94.749-91.73-152.437-2.013-39.63 24.731-79.302 66.07-98.054 43.327-19.724 103.427-17.225 135.377 15.306C-73.387 86.026-15.543 98.886 34.04 97.168z" fill="#D56CFF"/></svg>