<svg width="159" height="971" fill="none" xmlns="http://www.w3.org/2000/svg"><g opacity=".58" clip-path="url(#clip0)"><path d="M20.131 824.019s23.483-3.749 37.578 12.929c0 0-10.345 8.145-32.56-3.129l-5.018-9.8zm-2.509-.362s-15 18.488-7.759 38.993c0 0 12.233-4.913 13.552-29.788l-5.793-9.205zM4.148 793.326s9.388-17.221 46.991 6.904c0 0-5.017 11.584-21.62 10.653-16.604-.931-20.975-8.455-25.371-17.557zm-2.432-1.241s-19.5-2.224-21.388 42.406c0 0 12.362 2.586 21.155-11.558 8.793-14.144 5.147-22.031.233-30.848zm-11.353-35.58s10.965-30.383 50.742-8.766c0 0-9.078 27.874-46.552 19.109l-4.19-10.343zm-12.207-45.406s20.69-30.693 57.31-2.198c0 0-12.93 28.806-54.31 13.136l-3-10.938zm-4.397-43.311s24.13-28.185 60.466 0c0 0-22.862 24.745-60.466 7.214v-7.214zm-3.749-41.89s24.44-29.451 59.198-1.577c0 0-27.57 26.013-59.199 8.456v-6.879zm2.198-37.26s25.681-37.907 58.242-12.231c0 0-27.544 32.581-58.242 19.419v-7.188zm5.948-43.544s27.233-37.571 58.889-8.766c0 0-32.277 32.581-58.889 15.515v-6.749zm9-38.916s32.25-35.321 60.466-21.229c0 0-33.621 37.519-61.837 30.615l1.37-9.386zm11.354-36.872s37.267-43.234 58.888-28.832c0 0-27.44 33.615-61.578 36.977l2.69-8.145zm16.267-42.795s32.587-35.321 56.406-26.555c0 0-27.88 36.639-60.777 37.596l4.371-11.041zm14.743-40.027s36.026-33.821 51.724-27.874c0 0-26.017 37.596-53.25 35.399l1.525-7.525zm14.533-36.95s31.034-40.39 47.922-37.261c0 0-18.776 36.019-47.922 41.372v-4.111zm15.517-49.802s27.414-31.029 42.207-31.029c0 0-21.62 41.372-43.345 41.01l1.138-9.981zm9.258-33.201l26.483-64.515s1.32 58.335-29.845 76.487l3.362-11.972zm10.759-71.134s4.371-53.887 1.552-58.257c0 0 18.931 44.785-1.733 82.046l.181-23.789z" fill="#B862FF"/><path d="M17.468 424.882s-7.759-47.422-32.432-53.24c0 0 3.078 45.948 30 64.85l2.432-11.61zm14.972-38.036s-.258-49.414-15.362-56.68c0 0-9.362 44.734 10.992 62.989l4.37-6.309zm12.648-37.856s-2.12-50.887-17.767-58.05c0 0-5.354 40.261 15.517 61.386l2.25-3.336zm16.655-45.224s0-41.372-11.25-51.069c0 0-11.095 45.328 5.431 59.473l5.82-8.404z" fill="#B862FF"/><path d="M67.51 264.41l-10.836-68.884s-14.768 56.421 11.353 81.296l-.517-12.412zm2.122-68.367s-27.88-46.31-27.31-51.482c0 0 2.973 48.535 38.068 72.737l-10.758-21.255zm3.284-13.679s-26.276-65.755-38.224-71.082c0 0 37.578 19.109 40.397 69.221l-2.173 1.861z" fill="#B862FF"/><path d="M58.303 310.204l-1.81-.543C78.708 237.26 84.243 191.053 72.01 179.52l1.293-1.344c12.957 12.205 7.759 57.791-15 132.028z" fill="#444053"/><path d="M-2.834 479.674l-2.587-.931a526 526 0 017.552-20.014c23.276-57.765 42.906-111.497 55.578-152.74l2.302-1.163c-12.672 41.372-32.043 97.12-55.268 154.964a415.998 415.998 0 00-7.577 19.884z" fill="#444053"/><path d="M53.181 878.217c-.362-.414-36.362-40.907-61.448-110.102a407.837 407.837 0 01-24.26-126.185c-1.732-53.835 9.57-113.954 28.94-168.539l2.095 2.586C-44.94 598.516-27.664 703.523-4.776 766.745c24.828 68.548 60.388 108.601 60.75 109.041l-2.793 2.431z" fill="#444053"/></g><defs><clipPath id="clip0"><path fill="#fff" transform="translate(-120 .5)" d="M0 0h279v970H0z"/></clipPath></defs></svg>