<svg width="1920" height="1259" xmlns="http://www.w3.org/2000/svg"><path fill="none" d="M-1-1h1922v1261H-1z"/><path fill="#B04FFD" d="M1848.08 1605.782c-129.8 58.34-2137.794 392.77-2225.329 289.88-274.947-323.18-473.08-1663.14-473.08-1663.14 777.608-300.31 1663.32-342.24 2130.588 125.8 467.27 468.05 489.89 833.11 727.59 914.99 626.52 159.3 1678.05-203.27 1761.44-152.97-134.82-131.87 148.26 89.45 0 0-81.28-106.56 96.13 94.03 0 0 226.83 297.55-815.93 9.33-698.77 317.07 51.44 135 88.17 272.81 62.4 370.98-25.78 98.16-129.36 144.11-258.85 76.07-53.57-28.15-106.11-72.18-157.31-115.54-75.34-63.85-151.59-128.95-230.47-176.71-81.46-49.32-188.81-123.39-302.06-19.55-113.25 103.85-244.54-8.06-336.15 33.12z" opacity=".1"/></svg>