<svg width="224" height="201" fill="none" xmlns="http://www.w3.org/2000/svg"><path d="M108.26 111.069l-87.361-.417-8.68-19.944 30.694-2.182-5.35-21.867 60.71-7.707-58.135-19.796 5.136-1.196 93.479 14.94-5.148 34.124-7.359 18.754-17.986 5.292z" fill="#EAA7FF"/><g filter="url(#filter0_f)"><path d="M8 111.44l63.493-11.618 84.131 13.452-52.256 18.884L8 111.44z" fill="#BA62E7"/></g><path d="M157.032 95.603s-5.739 6.927-1.182 17.399l-45.821 19.651-4.397.911-2.026-8.762 1.355-11.057v-6.043l52.071-12.099z" fill="#D5D6DB"/><path d="M12.218 91.252l63.493-11.113 84.131 12.867-52.255 18.063-95.369-19.817z" fill="#EAA7FF"/><path d="M12.218 91.252l63.493-11.113 84.131 12.867-52.255 18.063-95.369-19.817z" fill="#EAA7FF"/><path d="M13.184 91.386s-5.893 11.287.898 21.711l93.441 20.467s-5.8-8.99.299-21.469L13.184 91.386z" fill="#EAA7FF"/><path opacity=".1" d="M13.184 91.386s-5.893 11.287.898 21.711l93.441 20.467s-5.8-8.99.299-21.469L13.184 91.386z" fill="#000"/><path d="M107.288 132.876l52.29-21.807s2.925.616 1.034 2.711c-1.891 2.094-52.316 21.19-52.316 21.19l-94.672-21.929 93.664 19.835z" fill="#EAA7FF"/><path opacity=".1" d="M107.288 132.876l52.29-21.807s2.925.616 1.034 2.711c-1.891 2.094-52.316 21.19-52.316 21.19l-94.672-21.929 93.664 19.835z" fill="#000"/><path opacity=".1" d="M103.603 113.881s-6.326 6.186 0 15.466v-15.466zm24.197.166l-22.736 7.585.08.24 22.736-7.585-.08-.24zm4.553-.755l-27.297 10.38.09.237 27.297-10.38-.09-.237zm4.181-.036l-31.327 12.822.096.235 31.327-12.823-.096-.234zm4.547-1.099l-35.509 16.041.105.231 35.509-16.041-.105-.231zm3.823.006l-39.049 17.068.101.232 39.049-17.068-.101-.232zm8.359-1.419l-46.817 20.22.1.233 46.817-20.221-.1-.232z" fill="#000"/><path opacity=".3" d="M36.12 92.268l44.557-9.317 27.145 5.162L71.31 99.822l-35.19-7.554z" fill="#fff"/><path d="M159.875 92.792s2.297.904.949 2.3c-1.348 1.396-53.002 15.977-53.002 15.977l52.053-18.277z" fill="#EAA7FF"/><path d="M182.337 71.703s-5.737 6.923-1.18 17.396l-45.823 19.648-4.398.917-2.025-8.761 1.375-11.053V83.8l52.051-12.097z" fill="#D5D6DB"/><path d="M37.524 66.447l63.491-11.616 84.133 13.453-52.255 18.884-95.369-20.72z" fill="#700CA1"/><path d="M37.121 66.08s-5.98 11.662.909 22.434l94.785 21.149s-5.881-9.298.314-22.187L37.121 66.079z" fill="#700CA1"/><path opacity=".1" d="M37.121 66.08s-5.98 11.662.909 22.434l94.785 21.149s-5.881-9.298.314-22.187l-29.974-6.681-66.034-14.716z" fill="#000"/><path d="M132.079 108.975l52.791-21.807s2.95.616 1.041 2.71c-1.909 2.095-52.813 21.191-52.813 21.191l-95.574-21.93 94.555 19.836z" fill="#700CA1"/><path opacity=".1" d="M132.079 108.975l52.791-21.807s2.95.616 1.041 2.71c-1.909 2.095-52.813 21.191-52.813 21.191l-95.574-21.93 94.555 19.836z" fill="#000"/><path opacity=".1" d="M127.506 89.98s-3.163 5.624 0 14.059V89.98zm25.459-.307l-22.736 7.585.08.24 22.736-7.585-.08-.24zm4.557-.756l-27.297 10.38.09.237 27.297-10.38-.09-.237zm4.182-.039L130.377 101.7l.096.235L161.8 89.112l-.096-.234zm4.55-1.098l-35.51 16.04.105.231 35.509-16.04-.104-.231zm3.816.002l-39.048 17.068.101.232 39.049-17.068-.102-.232zm8.357-1.419l-46.817 20.22.1.233 46.817-20.22-.1-.233z" fill="#000"/><path opacity=".45" d="M61.427 68.367l44.558-9.317 27.145 5.162-36.512 11.71-35.191-7.555z" fill="#fff"/><path d="M185.183 68.891s2.295.904.949 2.298c-1.346 1.394-53.003 15.98-53.003 15.98l52.054-18.278z" fill="#700CA1"/><path d="M185.15 43.584s-5.74 12.431-1.182 22.9l-45.83 14.142-4.388.918-2.025-8.76 1.354-11.055V55.68l52.071-12.096z" fill="#D5D6DB"/><path d="M40.34 38.331l63.491-11.618 84.132 13.453-52.257 18.884-95.367-20.72zm-.437 1.035S34 50.653 40.791 61.077l93.436 20.467s-5.8-8.998.307-21.469l-94.63-20.709z" fill="#EAA7FF"/><path opacity=".1" d="M39.903 39.366S34 50.653 40.791 61.077l93.436 20.467s-5.8-8.998.307-21.469l-94.63-20.709z" fill="#000"/><path d="M135.406 80.802l52.29-16.808s2.925.632 1.034 2.78c-1.891 2.148-52.315 16.176-52.315 16.176L41.743 60.455l93.663 20.347z" fill="#EAA7FF"/><path opacity=".1" d="M135.406 80.802l52.29-16.808s2.925.632 1.034 2.78c-1.891 2.148-52.315 16.176-52.315 16.176L41.743 60.455l93.663 20.347z" fill="#000"/><path opacity=".1" d="M130.317 61.861s-3.163 6.187 0 15.466V61.86zm25.041-.074l-22.736 7.585.081.24 22.736-7.585-.081-.24zm4.557-.755l-27.297 10.38.09.236 27.297-10.38-.09-.236zm4.175-.039l-31.327 12.823.096.234 31.327-12.822-.096-.235zm4.554-1.1l-35.509 16.04.104.232 35.509-16.04-.104-.232zm3.818.005l-39.049 17.068.102.233 39.049-17.069-.102-.232zm8.359-1.418l-46.817 20.221.101.233 46.817-20.221-.101-.233z" fill="#000"/><path opacity=".3" d="M64.24 40.248l43.683-9.317 26.613 5.162L98.74 47.802l-34.5-7.554z" fill="#fff"/><path d="M187.958 40.772s2.358.904.974 2.3c-1.384 1.396-54.397 15.977-54.397 15.977l53.423-18.277z" fill="#EAA7FF"/><path opacity=".1" d="M92.356 5.003S87.919-2.77 82.271 1.061c0 0-1.22.344-1.16 1.424 0 0 .468-.206.803.628.126.294.29.575.493.837a2.29 2.29 0 001.15.77s2.43 1.626 7.063.516c0 0 1.294.188 1.506.057l-1.48-.967s-.803.944-1.923 1.028c0 0 1.918-.958 1.712-1.18-.043-.045-.804-.482-.804-.482s-1.396 1.637-3.138 1.72c0 0 2.466-.882 2.846-1.89l-1.206-.602S86.76 4.713 84.78 4.872c0 0 2.54-.999 3.078-2.067l-1.28-.453s-1.38 1.725-3.03 1.85c0 0 2.796-1.406 2.727-1.939 0 0-1.209-.357-1.584-.323 0 0-1.023 1.22-1.988 1.22 0 0 1.75-1.107 1.643-1.286 0 0-1.72-.113-2.626.226a6.04 6.04 0 012.634-.452A2.97 2.97 0 0082.975.88s.96-.308 1.793.8c0 0 1.34.133 1.498.262 0 0-.64-1.19-1.458-1.71 0 0 1.238.211 1.803 1.812l1.3.435S87.163.867 86.475.357c0 0 1.222.383 1.755 2.264l1.19.58s-.518-1.433-1.14-2.138c0 0 1.043.562 1.474 2.314l.742.467s-.401-1.04-.535-1.33c-.134-.289-.067-.348-.067-.348.51.538.832 1.184.932 1.868 0 0 1.434 1.037 1.53.97zm86.466 118.72c3.494 0 6.327-.315 6.327-.703 0-.388-2.833-.703-6.327-.703-3.494 0-6.327.315-6.327.703 0 .388 2.833.703 6.327.703z" fill="#EAA7FF"/><path opacity=".1" d="M161.248 33.743S151.77 34.935 150 36.555l11.248-2.812zm-21.091 8.435a22.305 22.305 0 012.834-1.144c1.481-.464 4.196-1.668 4.196-1.668" fill="#000"/><defs><filter id="filter0_f" x="-60" y="31.822" width="283.624" height="168.337" filterUnits="userSpaceOnUse" color-interpolation-filters="sRGB"><feFlood flood-opacity="0" result="BackgroundImageFix"/><feBlend in="SourceGraphic" in2="BackgroundImageFix" result="shape"/><feGaussianBlur stdDeviation="34" result="effect1_foregroundBlur"/></filter></defs></svg>