<svg width="35" height="35" fill="none" xmlns="http://www.w3.org/2000/svg"><path d="M29.167 5.833H8.751A2.92 2.92 0 005.834 8.75v7.292h2.917v-4.375l9.333 7a1.46 1.46 0 001.75 0l9.333-7v13.125H17.501v2.916h11.666a2.92 2.92 0 002.917-2.916V8.75a2.92 2.92 0 00-2.917-2.917zM18.96 15.677L9.722 8.75h18.474l-9.237 6.927z" fill="url(#paint0_linear)"/><path d="M2.917 17.5h10.208v2.917H2.917V17.5zm2.917 4.375h8.75v2.917h-8.75v-2.917zm4.375 4.375h5.833v2.917h-5.833V26.25z" fill="url(#paint1_linear)"/><defs><linearGradient id="paint0_linear" x1="2.451" y1="-3.85" x2="18.959" y2="27.708" gradientUnits="userSpaceOnUse"><stop stop-color="#7812CF"/><stop offset="1" stop-color="#B464F9"/></linearGradient><linearGradient id="paint1_linear" x1="4.2" y1="-2.8" x2="9.479" y2="29.167" gradientUnits="userSpaceOnUse"><stop stop-color="#7812CF"/><stop offset="1" stop-color="#B464F9"/></linearGradient></defs></svg>