<svg width="357" height="316" fill="none" xmlns="http://www.w3.org/2000/svg"><g clip-path="url(#clip0)"><path d="M180.431 304.486c83.999 0 152.094-68.05 152.094-151.993C332.525 68.549 264.43.5 180.431.5S28.337 68.55 28.337 152.493s68.095 151.993 152.094 151.993z" fill="#F8F0FF"/><path d="M86.811 259.878c-9.797 15.015-7.112 34.111-7.112 34.111s18.568-5.247 28.366-20.261c9.797-15.015 7.112-34.111 7.112-34.111s-18.568 5.247-28.366 20.261z" fill="#3F3D56"/><path d="M79.647 293.814s-.238-.038-.677-.126c-.35-.071-.832-.173-1.42-.312-5.263-1.24-19.254-5.431-28.4-16.451-11.448-13.799-10.966-33.077-10.966-33.077s17.504 2.843 29.038 15.234c.5.533.987 1.085 1.46 1.656 9.96 12.006 10.89 28.16 10.963 32.153.01.599.002.923.002.923z" fill="#B86AF5"/><path d="M72.586 259.878c9.798 15.015 7.113 34.111 7.113 34.111s-18.569-5.247-28.366-20.261c-9.797-15.015-7.112-34.111-7.112-34.111s18.568 5.247 28.365 20.261z" stroke="#3F3D56" stroke-width="1.562" stroke-miterlimit="10"/><path opacity=".1" d="M79.645 292.892c-.259.311-.487.578-.675.796-.416.474-.652.722-.652.722s-.287-.36-.769-1.034c-2.646-3.687-11.158-16.796-10.501-31.938a39.48 39.48 0 01.175-2.356c.5.533.986 1.085 1.459 1.656 9.961 12.006 10.89 28.16 10.963 32.154z" fill="#000"/><path d="M94.171 262.533c-.774 17.908-14.077 31.877-14.077 31.877s-12.046-15.064-11.272-32.972C69.597 243.53 82.9 229.56 82.9 229.56s12.046 15.065 11.272 32.973z" fill="#B86AF5"/><path d="M80.095 293.903l2.924-63.612" stroke="#3F3D56" stroke-width="1.562" stroke-miterlimit="10"/><path d="M178.242 315.145c98.314 0 178.013-6.502 178.013-14.522 0-8.021-79.699-14.522-178.013-14.522C79.929 286.101.23 292.602.23 300.623c0 8.02 79.699 14.522 178.012 14.522z" fill="#3F3D56"/><path d="M206.533 126.389c-4.438 1.498-8.458 5.001-9.367 9.593-.421 2.129-.163 4.342-.518 6.483-.822 4.965-4.722 8.757-8.319 12.279-3.597 3.522-7.312 7.614-7.574 12.64-.288 5.503 3.706 10.659 3.015 16.126-.803 6.352-7.516 10.468-9.176 16.652-1.108 4.129.25 8.577 2.484 12.223 4.258 6.947 11.535 11.664 19.284 14.193 7.75 2.528 16.003 3.06 24.155 3.145 9.926.104 20.702-.747 28.16-7.294a22.534 22.534 0 007.489-14.676c.709-7.584-2.458-15.419-.274-22.715 1.375-4.592 4.823-8.786 4.308-13.552-.503-4.659-4.575-7.962-7.369-11.726-2.608-3.515-4.191-7.665-5.742-11.757l-5.308-14.001c-1.043-2.752-2.189-5.647-4.514-7.453-4.353-3.382-11.353-2.717-16.443-2.02-4.722.647-9.75.328-14.291 1.86z" fill="#2F2E41"/><path d="M208.196 167.173s2.353 7.641-15.293 16.459c-17.647 8.817 1.764 18.222 1.764 18.222l20.588 4.703s21.175-2.94 23.528-6.466c2.353-3.527 6.47-15.284 5.294-17.047a27.404 27.404 0 00-2.941-3.527s-14.117-2.351-13.529-8.818c.588-6.466-19.411-3.526-19.411-3.526z" fill="#FFB9B9"/><path opacity=".1" d="M208.196 167.173s2.353 7.641-15.293 16.459c-17.647 8.817 1.764 18.222 1.764 18.222l20.588 4.703s21.175-2.94 23.528-6.466c2.353-3.527 6.47-15.284 5.294-17.047a27.404 27.404 0 00-2.941-3.527s-14.117-2.351-13.529-8.818c.588-6.466-19.411-3.526-19.411-3.526z" fill="#000"/><path d="M219.666 179.223c10.396 0 18.823-8.422 18.823-18.81 0-10.389-8.427-18.81-18.823-18.81-10.395 0-18.822 8.421-18.822 18.81 0 10.388 8.427 18.81 18.822 18.81z" fill="#FFB9B9"/><path d="M217.608 200.09s-22.669-1.656-23.099-17.287c0 0-8.076-.935-10.429 1.416-2.353 2.351-10 4.115-10 9.993s12.941 23.513 12.941 23.513 7.059 23.513 4.117 27.628c-2.941 4.114-3.529 14.695-3.529 14.695s29.411-2.351 34.116 0c4.706 2.351 23.529 2.351 24.705 0 1.177-2.351-1.176-31.742-1.176-31.742s5.294-7.054 4.117-15.284l14.117-16.459s-5.294-15.871-13.529-15.871c0 0-11.176-2.939-11.47-1.469-.294 1.469 5.588 17.928-20.881 20.867z" fill="#B86AF5"/><path d="M164.668 251.819s5.294 8.229 18.823 9.993c13.529 1.763 15.882-2.939 14.705-4.115-1.176-1.176-15.293-6.466-15.293-6.466l-8.235-6.466-10 7.054zm96.467-7.054l-15.293 8.817s-19.999-1.175-12.353 4.703c7.647 5.878 21.764 3.527 21.764 3.527l13.529-6.466-7.647-10.581z" fill="#FFB9B9"/><path d="M184.668 260.048s-14.117 34.681 2.941 39.972c17.058 5.29 64.115 4.115 74.703-2.939 10.588-7.054 13.529-16.459 11.764-19.398-1.765-2.939-13.529-11.169-21.764-11.757-8.235-.588-67.644-5.878-67.644-5.878z" fill="#2F2E41"/><path opacity=".05" d="M184.668 260.048s-14.117 34.681 2.941 39.972c17.058 5.29 64.115 4.115 74.703-2.939 10.588-7.054 13.529-16.459 11.764-19.398-1.765-2.939-13.529-11.169-21.764-11.757-8.235-.588-67.644-5.878-67.644-5.878z" fill="#000"/><path d="M251.305 262.203s49.829-18.026 49.241 3.723c-.589 21.75-31.764 27.628-31.764 27.628l-9.411 1.175-51.762 1.764s1.764-9.405-2.353-10.581c0 0 13.529-3.527 14.117-4.115.588-.587 34.116-12.344 36.469-12.932 2.353-.587 9.411-5.29 14.705-4.702 0 0 5.882-4.703 12.352-3.527l-18.234 1.176-13.36.391z" fill="#2F2E41"/><path opacity=".1" d="M251.305 262.203s49.829-18.026 49.241 3.723c-.589 21.75-31.764 27.628-31.764 27.628l-9.411 1.175-51.762 1.764s1.764-9.405-2.353-10.581c0 0 13.529-3.527 14.117-4.115.588-.587 34.116-12.344 36.469-12.932 2.353-.587 9.411-5.29 14.705-4.702 0 0 5.882-4.703 12.352-3.527l-18.234 1.176-13.36.391z" fill="#000"/><path d="M242.501 265.122l6.282 14.324 38.234-13.52 2.941-7.641-10-1.764-20.103 3.527-8.719 2.352-8.635 2.722z" fill="#2F2E41"/><path opacity=".1" d="M242.501 265.122l6.282 14.324 38.234-13.52 2.941-7.641-10-1.764-20.103 3.527-8.719 2.352-8.635 2.722z" fill="#000"/><path d="M161.139 282.385s11.176 14.108 24.117 17.635c12.94 3.527 19.999-1.176 19.999-1.176l-4.118-16.459-1.764-10.58-7.647-5.291-15.293-7.054-18.235-5.878s-7.647-1.176-7.647 0 7.059 18.81 7.059 18.81l3.529 9.993z" fill="#2F2E41"/><path d="M174.668 290.027s2.353 17.047 5.294 18.222c2.941 1.176 11.764-1.175 14.117-2.351 2.353-1.175 10.351-6.6 10.351-6.6s-27.997-10.447-29.762-9.271z" fill="#F8F0FF"/><path d="M228.196 291.791l11.176 1.763-1.177 13.52-15.588-3.784 5.589-11.499z" fill="#FFB9B9"/><path d="M235.198 295.553s-5.238 6.23.056 9.757l3.529 2.939s11.764 2.352 12.941 3.527c1.176 1.176 5.882-1.763 5.882-1.763s.588-17.635 0-18.81c-.588-1.176-7.647-2.352-8.235-1.176-.588 1.176-7.647 2.939-11.764 1.763l-2.409 3.763z" fill="#F8F0FF"/><path d="M188.198 264.163s-41.175-24.101-47.645-15.283c-6.471 8.817-13.529 21.161 5.294 30.566 18.822 9.405 77.643 28.803 77.643 28.803s8.823-13.519 8.823-17.046c0 0-31.175-14.108-36.469-15.284-5.293-1.175-26.469-14.695-29.41-15.871-2.941-1.176-7.059-4.702-7.059-4.702l28.823 8.817z" fill="#2F2E41"/><path d="M176.433 191.273l-2.353 1.764s-5.294 13.52-5.882 21.161c-.588 7.642-7.647 31.155-7.059 34.094.589 2.939 1.177 5.29 4.706 8.229 0 0 4.706-10.581 12.941-8.817l9.999-36.445-12.352-19.986zm82.35 0l4.705 5.291s2.941 7.053 2.941 8.817c0 1.763 5.882 27.627 6.471 28.803.588 1.176 2.941 15.871 0 19.398-2.941 3.527-8.235 5.878-8.235 5.878s3.529-12.344-7.647-12.932l1.176-4.702-10.587-35.27 11.176-15.283z" fill="#B86AF5"/><path d="M177.609 231.744v30.963a7.45 7.45 0 007.338 7.443l64.796.959a7.45 7.45 0 007.554-7.157l1.191-30.966a7.43 7.43 0 00-2.038-5.409 7.446 7.446 0 00-5.297-2.321l-65.987-.955a7.463 7.463 0 00-6.98 4.569 7.442 7.442 0 00-.577 2.874z" fill="#3F3D56"/><path d="M220.77 159.809c11.19 0 20.261-4.881 20.261-10.902 0-6.021-9.071-10.902-20.261-10.902-11.189 0-20.26 4.881-20.26 10.902 0 6.021 9.071 10.902 20.26 10.902z" fill="#2F2E41"/><path d="M217.314 252.701a4.705 4.705 0 004.706-4.703 4.705 4.705 0 00-4.706-4.703 4.705 4.705 0 00-4.706 4.703 4.705 4.705 0 004.706 4.703z" fill="#F8F0FF"/><path d="M345.397 247.045v53.701c0 .923-.497 1.054-1.304 1.502-2.724 1.51-9.439 4.2-17.501-.058-.828-.437-1.337-.585-1.337-1.52v-53.281s10.243 4.129 20.142-.344z" fill="#2F2E41"/><path d="M335.326 249.146c5.562 0 10.071-.957 10.071-2.137 0-1.181-4.509-2.137-10.071-2.137-5.562 0-10.071.956-10.071 2.137 0 1.18 4.509 2.137 10.071 2.137z" fill="#3F3D56" stroke="#B86AF5" stroke-width=".781" stroke-miterlimit="10"/><path opacity=".8" d="M344.477 269.57a.226.226 0 100-.452.226.226 0 000 .452zm-1.146.321a.226.226 0 100-.453.226.226 0 000 .453zm-1.417.451a.226.226 0 100-.452.226.226 0 000 .452zm-2.541.547a.226.226 0 100-.451.226.226 0 000 .451zm-2.679.325a.226.226 0 10-.226-.226c0 .124.101.226.226.226zm-2.774.127a.226.226 0 100-.452.226.226 0 000 .452zm-3.984-.547a.226.226 0 100-.452.226.226 0 000 .452zm1.32.321a.226.226 0 100-.452.226.226 0 000 .452zm-3.785-.773a.226.226 0 100-.452.226.226 0 000 .452zm1.189.226a.226.226 0 000-.452.226.226 0 000 .452zm-2.489-.677a.226.226 0 000-.452.226.226 0 100 .452zm14.446.773a.226.226 0 100-.452.226.226 0 000 .452zm-2.622.451a.226.226 0 100-.452.226.226 0 000 .452zm-2.845.226a.226.226 0 100-.452.226.226 0 000 .452zm-2.589 0a.226.226 0 100-.452.226.226 0 000 .452zm11.916-.659a.226.226 0 000-.452.226.226 0 000 .452zm-1.146.32a.226.226 0 100-.452.226.226 0 000 .452zm-1.417.452a.226.226 0 100-.452.226.226 0 000 .452zm-2.541.547a.226.226 0 100-.452.226.226 0 000 .452zm-2.679.324a.226.226 0 100-.453.226.226 0 000 .453zm-2.774.127a.226.226 0 100-.451.226.226 0 000 .451zm-3.984-.547a.226.226 0 100-.451.226.226 0 000 .451zm1.32.322a.226.226 0 100-.453.226.226 0 000 .453zm-3.785-.773a.226.226 0 100-.452.226.226 0 000 .452zm1.189.225a.226.226 0 00.226-.225.226.226 0 00-.452 0c0 .124.101.225.226.225zm-2.489-.677a.226.226 0 10-.001-.451.226.226 0 00.001.451zm14.446.773a.226.226 0 100-.452.226.226 0 000 .452zm-2.622.452a.226.226 0 100-.453.226.226 0 000 .453zm-2.845.225a.226.226 0 100-.451.226.226 0 000 .451zm-2.589 0a.226.226 0 100-.451.226.226 0 000 .451zm11.916-.659a.226.226 0 100-.452.226.226 0 000 .452zm-1.146.32a.226.226 0 100-.452.226.226 0 000 .452zm-1.417.452a.226.226 0 100-.452.226.226 0 000 .452zm-2.541.547a.226.226 0 100-.452.226.226 0 000 .452zm-2.679.324a.226.226 0 100-.453.226.226 0 000 .453zm-2.774.127a.226.226 0 100-.451.226.226 0 000 .451zm-3.984-.547a.226.226 0 100-.451.226.226 0 000 .451zm1.32.322a.226.226 0 100-.453.226.226 0 000 .453zm-3.785-.773a.226.226 0 100-.452.226.226 0 000 .452zm1.189.225a.226.226 0 00.226-.225.226.226 0 00-.452 0c0 .124.101.225.226.225zm-2.489-.677a.226.226 0 10-.001-.451.226.226 0 00.001.451zm14.446.773a.226.226 0 100-.452.226.226 0 000 .452zm-2.622.452a.226.226 0 100-.453.226.226 0 000 .453zm-2.845.225a.226.226 0 100-.451.226.226 0 000 .451zm-2.589 0a.226.226 0 100-.451.226.226 0 000 .451zm11.916-.659a.226.226 0 100-.452.226.226 0 000 .452zm-1.146.32a.226.226 0 100-.452.226.226 0 000 .452zm-1.417.452a.226.226 0 100-.452.226.226 0 000 .452zm-2.541.547a.226.226 0 100-.452.226.226 0 000 .452zm-2.679.324a.226.226 0 000-.452.226.226 0 000 .452zm-2.774.127a.226.226 0 100-.451.226.226 0 000 .451zm-3.984-.547a.226.226 0 100-.451.226.226 0 000 .451zm1.32.322a.226.226 0 100-.452.226.226 0 000 .452zm-3.785-.773a.226.226 0 100-.452.226.226 0 000 .452zm1.189.226a.226.226 0 10-.226-.226c0 .124.101.226.226.226zm-2.489-.678a.226.226 0 10-.001-.451.226.226 0 00.001.451zm14.446.773a.226.226 0 100-.452.226.226 0 000 .452zm-2.622.452a.226.226 0 100-.452.226.226 0 000 .452zm-2.845.225a.226.226 0 100-.451.226.226 0 000 .451zm-2.589 0a.226.226 0 100-.451.226.226 0 000 .451zm11.916-.659a.226.226 0 100-.452.226.226 0 000 .452zm-1.146.321a.226.226 0 100-.452.226.226 0 000 .452zm-1.417.451a.226.226 0 100-.452.226.226 0 000 .452zm-2.541.547a.226.226 0 100-.452.226.226 0 000 .452zm-2.679.324a.226.226 0 00.226-.225.226.226 0 00-.452 0c0 .124.101.225.226.225zm-2.774.128a.226.226 0 100-.452.226.226 0 000 .452zm-3.984-.547a.226.226 0 100-.452.226.226 0 000 .452zm1.32.321a.226.226 0 100-.452.226.226 0 000 .452zm-3.785-.773a.226.226 0 100-.452.226.226 0 000 .452zm1.189.226a.226.226 0 100-.453.226.226 0 000 .453zm-2.489-.677a.226.226 0 10-.001-.451.226.226 0 00.001.451zm14.446.772a.226.226 0 100-.451.226.226 0 000 .451zm-2.622.452a.226.226 0 100-.452.226.226 0 000 .452zm-2.845.226a.226.226 0 100-.452.226.226 0 000 .452zm-2.589 0a.226.226 0 100-.452.226.226 0 000 .452zm11.916-.66a.226.226 0 100-.452.226.226 0 000 .452zm-1.146.321a.226.226 0 100-.452.226.226 0 000 .452zm-1.417.451a.226.226 0 100-.452.226.226 0 000 .452zm-2.541.547a.226.226 0 100-.452.226.226 0 000 .452zm-2.679.325a.226.226 0 10-.226-.226c0 .124.101.226.226.226zm-2.774.127a.226.226 0 100-.452.226.226 0 000 .452zm-3.984-.547a.226.226 0 100-.452.226.226 0 000 .452zm1.32.321a.226.226 0 100-.452.226.226 0 000 .452zm-3.785-.773a.226.226 0 100-.452.226.226 0 000 .452zm1.189.226a.226.226 0 100-.453.226.226 0 000 .453zm-2.489-.677a.226.226 0 10-.001-.451.226.226 0 00.001.451zm14.446.773a.226.226 0 100-.452.226.226 0 000 .452zm-2.622.451a.226.226 0 100-.452.226.226 0 000 .452zm-2.845.226a.226.226 0 100-.452.226.226 0 000 .452zm-2.589 0a.226.226 0 100-.452.226.226 0 000 .452zm11.916-.66a.226.226 0 100-.452.226.226 0 000 .452zm-1.146.321a.226.226 0 100-.452.226.226 0 000 .452zm-1.417.451a.226.226 0 100-.452.226.226 0 000 .452zm-2.541.548a.226.226 0 100-.452.226.226 0 000 .452zm-2.679.324a.226.226 0 100-.453.226.226 0 000 .453zm-2.774.127a.226.226 0 100-.452.226.226 0 000 .452zm-3.984-.547a.226.226 0 100-.452.226.226 0 000 .452zm1.32.321a.226.226 0 100-.452.226.226 0 000 .452zm-3.785-.773a.226.226 0 100-.452.226.226 0 000 .452zm1.189.226a.226.226 0 00.226-.225.226.226 0 00-.452 0c0 .124.101.225.226.225zm-2.489-.677a.226.226 0 10-.001-.451.226.226 0 00.001.451zm14.446.773a.226.226 0 100-.452.226.226 0 000 .452zm-2.622.451a.226.226 0 100-.452.226.226 0 000 .452zm-2.845.226a.226.226 0 100-.452.226.226 0 000 .452zm-2.589 0a.226.226 0 100-.452.226.226 0 000 .452zm11.916-.659a.226.226 0 000-.452.226.226 0 000 .452zm-1.146.32a.226.226 0 100-.452.226.226 0 000 .452zm-1.417.452a.226.226 0 100-.453.226.226 0 000 .453zm-2.541.547a.226.226 0 100-.452.226.226 0 000 .452zm-2.679.324a.226.226 0 100-.453.226.226 0 000 .453zm-2.774.127a.226.226 0 100-.451.226.226 0 000 .451zm-3.984-.547a.226.226 0 100-.452.226.226 0 000 .452zm1.32.322a.226.226 0 100-.453.226.226 0 000 .453zm-3.785-.773a.226.226 0 100-.453.226.226 0 000 .453zm1.189.225a.226.226 0 00.226-.225.226.226 0 00-.452 0c0 .124.101.225.226.225zm-2.489-.677a.226.226 0 10-.001-.451.226.226 0 00.001.451zm14.446.773a.226.226 0 100-.452.226.226 0 000 .452zm-2.622.452a.226.226 0 100-.453.226.226 0 000 .453zm-2.845.225a.226.226 0 100-.451.226.226 0 000 .451zm-2.589 0a.226.226 0 100-.451.226.226 0 000 .451zm11.916-.659a.226.226 0 100-.452.226.226 0 000 .452zm-1.146.32a.226.226 0 100-.451.226.226 0 000 .451zm-1.417.452a.226.226 0 100-.452.226.226 0 000 .452zm-2.541.547a.226.226 0 100-.452.226.226 0 000 .452zm-2.679.324a.226.226 0 00.226-.226.226.226 0 00-.452 0c0 .125.101.226.226.226zm-2.774.128a.226.226 0 100-.452.226.226 0 000 .452zm-3.984-.547a.226.226 0 000-.452.226.226 0 000 .452zm1.32.321a.226.226 0 100-.452.226.226 0 000 .452zm-3.785-.773a.226.226 0 100-.452.226.226 0 000 .452zm1.189.226a.226.226 0 100-.453.226.226 0 000 .453zm-2.489-.678a.225.225 0 100-.45.225.225 0 000 .45zm14.446.773a.226.226 0 100-.451.226.226 0 000 .451zm-2.622.452a.226.226 0 100-.452.226.226 0 000 .452zm-2.845.226a.226.226 0 100-.452.226.226 0 000 .452zm-2.589 0a.226.226 0 100-.452.226.226 0 000 .452zm11.916-.66a.226.226 0 100-.452.226.226 0 000 .452zm-1.146.321a.226.226 0 100-.453.226.226 0 000 .453zm-1.417.451a.226.226 0 100-.452.226.226 0 000 .452zm-2.541.547a.226.226 0 100-.452.226.226 0 000 .452zm-2.679.324a.226.226 0 00.226-.225.226.226 0 00-.452 0c0 .124.101.225.226.225zm-2.774.128a.226.226 0 100-.452.226.226 0 000 .452zm-3.984-.547a.226.226 0 100-.452.226.226 0 000 .452zm1.32.321a.226.226 0 100-.452.226.226 0 000 .452zm-3.785-.773a.226.226 0 100-.452.226.226 0 000 .452zm1.189.226a.226.226 0 100-.453.226.226 0 000 .453zm-2.489-.677a.226.226 0 000-.452.226.226 0 100 .452zm14.446.772a.226.226 0 100-.452.226.226 0 000 .452zm-2.622.452a.226.226 0 100-.452.226.226 0 000 .452zm-2.845.226a.226.226 0 100-.452.226.226 0 000 .452zm-2.589 0a.226.226 0 100-.452.226.226 0 000 .452zm11.916-.66a.226.226 0 100-.452.226.226 0 000 .452zm-1.146.321a.226.226 0 100-.452.226.226 0 000 .452zm-1.417.451a.226.226 0 100-.452.226.226 0 000 .452zm-2.541.547a.226.226 0 100-.452.226.226 0 000 .452zm-2.679.324a.226.226 0 00.226-.225.226.226 0 00-.452 0c0 .124.101.225.226.225zm-2.774.128a.226.226 0 100-.452.226.226 0 000 .452zm-3.984-.547a.226.226 0 100-.452.226.226 0 000 .452zm1.32.321a.226.226 0 100-.452.226.226 0 000 .452zm-3.785-.773a.226.226 0 100-.452.226.226 0 000 .452zm1.189.226a.226.226 0 100-.453.226.226 0 000 .453zm-2.489-.677a.226.226 0 10-.001-.451.226.226 0 00.001.451zm14.446.773a.226.226 0 100-.453.226.226 0 000 .453zm-2.622.451a.226.226 0 100-.452.226.226 0 000 .452zm-2.845.226a.226.226 0 100-.452.226.226 0 000 .452zm-2.589 0a.226.226 0 100-.452.226.226 0 000 .452zm11.916-.66a.226.226 0 100-.451.226.226 0 000 .451zm-1.146.321a.226.226 0 100-.452.226.226 0 000 .452zm-1.417.451a.226.226 0 100-.451.226.226 0 000 .451zm-2.541.548a.226.226 0 100-.453.226.226 0 000 .453zm-2.679.324a.226.226 0 100-.453.226.226 0 000 .453zm-2.774.127a.226.226 0 100-.452.226.226 0 000 .452zm-3.984-.547a.226.226 0 100-.452.226.226 0 000 .452zm1.32.321a.226.226 0 100-.451.226.226 0 000 .451zm-3.785-.773a.226.226 0 100-.451.226.226 0 000 .451zm1.189.226a.226.226 0 00.226-.226.226.226 0 00-.452 0c0 .125.101.226.226.226zm-2.489-.677a.226.226 0 10-.001-.451.226.226 0 00.001.451zm14.446.773a.226.226 0 100-.452.226.226 0 000 .452zm-2.622.451a.226.226 0 100-.451.226.226 0 000 .451zm-2.845.226a.226.226 0 100-.452.226.226 0 000 .452zm-2.589 0a.226.226 0 100-.452.226.226 0 000 .452zm11.916-.659a.226.226 0 100-.452.226.226 0 000 .452zm-1.146.32a.226.226 0 100-.452.226.226 0 000 .452zm-1.417.452a.226.226 0 100-.452.226.226 0 000 .452zm-2.541.547a.226.226 0 100-.452.226.226 0 000 .452zm-2.679.324a.226.226 0 000-.452.226.226 0 000 .452zm-2.774.127a.226.226 0 100-.451.226.226 0 000 .451zm-3.984-.547a.226.226 0 100-.451.226.226 0 000 .451zm1.32.322a.226.226 0 100-.452.226.226 0 000 .452zm-3.785-.773a.226.226 0 100-.452.226.226 0 000 .452zm1.189.226a.226.226 0 10-.226-.226c0 .124.101.226.226.226zm-2.489-.678a.226.226 0 10-.001-.451.226.226 0 00.001.451zm14.446.773a.226.226 0 100-.452.226.226 0 000 .452zm-2.622.452a.226.226 0 100-.452.226.226 0 000 .452zm-2.845.225a.226.226 0 100-.451.226.226 0 000 .451zm-2.589 0a.226.226 0 100-.451.226.226 0 000 .451zm11.916-.659a.226.226 0 100-.452.226.226 0 000 .452zm-1.146.32a.226.226 0 100-.451.226.226 0 000 .451zm-1.417.452a.226.226 0 100-.452.226.226 0 000 .452zm-2.541.547a.226.226 0 100-.452.226.226 0 000 .452zm-2.679.324a.226.226 0 00.226-.226.226.226 0 00-.452 0c0 .125.101.226.226.226zm-2.774.128a.226.226 0 100-.453.226.226 0 000 .453zm-3.984-.547a.226.226 0 100-.452.226.226 0 000 .452zm1.32.321a.226.226 0 100-.452.226.226 0 000 .452zm-3.785-.773a.226.226 0 100-.452.226.226 0 000 .452zm1.189.226a.226.226 0 100-.453.226.226 0 000 .453zm-2.489-.678a.225.225 0 100-.45.225.225 0 000 .45zm14.446.773a.226.226 0 100-.451.226.226 0 000 .451zm-2.622.452a.226.226 0 100-.452.226.226 0 000 .452zm-2.845.226a.226.226 0 100-.453.226.226 0 000 .453zm-2.589 0a.226.226 0 100-.453.226.226 0 000 .453zm11.916-.66a.226.226 0 100-.452.226.226 0 000 .452zm-1.146.32a.226.226 0 100-.452.226.226 0 000 .452zm-1.417.452a.226.226 0 100-.452.226.226 0 000 .452zm-2.541.547a.226.226 0 100-.452.226.226 0 000 .452zm-2.679.324a.226.226 0 00.226-.226.226.226 0 00-.452 0c0 .125.101.226.226.226zm-2.774.128a.226.226 0 100-.452.226.226 0 000 .452zm-3.984-.547a.226.226 0 000-.452.226.226 0 000 .452zm1.32.321a.226.226 0 100-.452.226.226 0 000 .452zm-3.785-.773a.226.226 0 100-.452.226.226 0 000 .452zm1.189.226a.226.226 0 100-.453.226.226 0 000 .453zm-2.489-.678a.226.226 0 10-.001-.451.226.226 0 00.001.451zm14.446.773a.226.226 0 100-.451.226.226 0 000 .451zm-2.622.452a.226.226 0 100-.452.226.226 0 000 .452zm-2.845.226a.226.226 0 100-.452.226.226 0 000 .452zm-2.589 0a.226.226 0 100-.452.226.226 0 000 .452zm11.916-.66a.226.226 0 100-.452.226.226 0 000 .452zm-1.146.321a.226.226 0 100-.452.226.226 0 000 .452zm-1.417.451a.226.226 0 100-.452.226.226 0 000 .452zm-2.541.547a.226.226 0 100-.451.226.226 0 000 .451zm-2.679.325a.226.226 0 10-.226-.226c0 .124.101.226.226.226zm-2.774.127a.226.226 0 100-.452.226.226 0 000 .452zm-3.984-.547a.226.226 0 100-.452.226.226 0 000 .452zm1.32.321a.226.226 0 100-.452.226.226 0 000 .452zm-3.785-.773a.226.226 0 100-.452.226.226 0 000 .452zm1.189.226a.226.226 0 000-.452.226.226 0 000 .452zm-2.489-.677a.226.226 0 10-.001-.451.226.226 0 00.001.451zm14.446.773a.226.226 0 100-.452.226.226 0 000 .452zm-2.622.451a.226.226 0 100-.452.226.226 0 000 .452zm-2.845.226a.226.226 0 100-.452.226.226 0 000 .452zm-2.589 0a.226.226 0 100-.452.226.226 0 000 .452zm11.916-.659a.226.226 0 000-.452.226.226 0 000 .452zm-1.146.32a.226.226 0 100-.452.226.226 0 000 .452zm-1.417.452a.226.226 0 100-.453.226.226 0 000 .453zm-2.541.547a.226.226 0 100-.452.226.226 0 000 .452zm-2.679.324a.226.226 0 100-.453.226.226 0 000 .453zm-2.774.127a.226.226 0 100-.451.226.226 0 000 .451zm-3.984-.547a.226.226 0 100-.452.226.226 0 000 .452zm1.32.321a.226.226 0 100-.451.226.226 0 000 .451zm-3.785-.772a.226.226 0 100-.453.226.226 0 000 .453zm1.189.225a.226.226 0 00.226-.225.226.226 0 00-.452 0c0 .124.101.225.226.225zm-2.489-.677a.226.226 0 10-.001-.451.226.226 0 00.001.451zm14.446.773a.226.226 0 100-.452.226.226 0 000 .452zm-2.622.451a.226.226 0 100-.451.226.226 0 000 .451zm-2.845.226a.226.226 0 100-.451.226.226 0 000 .451zm-2.589 0a.226.226 0 100-.451.226.226 0 000 .451zm11.916-.659a.226.226 0 100-.452.226.226 0 000 .452zm-1.146.32a.226.226 0 100-.452.226.226 0 000 .452zm-1.417.452a.226.226 0 100-.452.226.226 0 000 .452zm-2.541.547a.226.226 0 100-.452.226.226 0 000 .452zm-2.679.324a.226.226 0 100-.453.226.226 0 000 .453zm-2.774.127a.226.226 0 100-.451.226.226 0 000 .451zm-3.984-.547a.226.226 0 100-.452.226.226 0 000 .452zm1.32.322a.226.226 0 100-.453.226.226 0 000 .453zm-3.785-.773a.226.226 0 100-.452.226.226 0 000 .452zm1.189.225a.226.226 0 00.226-.225.226.226 0 00-.452 0c0 .124.101.225.226.225zm-2.489-.677a.226.226 0 10-.001-.451.226.226 0 00.001.451zm14.446.773a.226.226 0 100-.452.226.226 0 000 .452zm-2.622.452a.226.226 0 100-.453.226.226 0 000 .453zm-2.845.225a.226.226 0 100-.451.226.226 0 000 .451zm-2.589 0a.226.226 0 100-.451.226.226 0 000 .451zm11.916-.659a.226.226 0 100-.452.226.226 0 000 .452zm-1.146.32a.226.226 0 100-.452.226.226 0 000 .452zm-1.417.452a.226.226 0 100-.452.226.226 0 000 .452zm-2.541.547a.226.226 0 100-.452.226.226 0 000 .452zm-2.679.324a.226.226 0 000-.452.226.226 0 000 .452zm-2.774.127a.226.226 0 100-.451.226.226 0 000 .451zm-3.984-.547a.226.226 0 100-.451.226.226 0 000 .451zm1.32.322a.226.226 0 100-.452.226.226 0 000 .452zm-3.785-.773a.226.226 0 100-.452.226.226 0 000 .452zm1.189.226a.226.226 0 10-.226-.226c0 .124.101.226.226.226zm-2.489-.678a.226.226 0 10-.001-.451.226.226 0 00.001.451zm14.446.773a.226.226 0 100-.452.226.226 0 000 .452zm-2.622.452a.226.226 0 100-.452.226.226 0 000 .452zm-2.845.225a.226.226 0 100-.451.226.226 0 000 .451zm-2.589 0a.226.226 0 100-.451.226.226 0 000 .451zm11.916-.659a.226.226 0 100-.452.226.226 0 000 .452zm-1.146.321a.226.226 0 100-.452.226.226 0 000 .452zm-1.417.451a.226.226 0 100-.452.226.226 0 000 .452zm-2.541.547a.226.226 0 100-.451.226.226 0 000 .451zm-2.679.324a.226.226 0 00.226-.225.226.226 0 00-.452 0c0 .124.101.225.226.225zm-2.774.128a.226.226 0 100-.452.226.226 0 000 .452zm-3.984-.547a.226.226 0 100-.452.226.226 0 000 .452zm1.32.321a.226.226 0 100-.452.226.226 0 000 .452zm-3.785-.773a.226.226 0 100-.452.226.226 0 000 .452zm1.189.226a.226.226 0 100-.453.226.226 0 000 .453zm-2.489-.677a.226.226 0 10-.001-.451.226.226 0 00.001.451zm14.446.773a.226.226 0 100-.453.226.226 0 000 .453zm-2.622.451a.226.226 0 100-.452.226.226 0 000 .452zm-2.845.226a.226.226 0 100-.452.226.226 0 000 .452zm-2.589 0a.226.226 0 100-.452.226.226 0 000 .452zm11.916-.66a.226.226 0 100-.452.226.226 0 000 .452zm-1.146.321a.226.226 0 100-.452.226.226 0 000 .452zm-1.417.451a.226.226 0 100-.452.226.226 0 000 .452zm-2.541.547a.226.226 0 100-.452.226.226 0 000 .452zm-2.679.324a.226.226 0 00.226-.225.226.226 0 00-.452 0c0 .124.101.225.226.225zm-2.774.128a.226.226 0 100-.452.226.226 0 000 .452zm-3.984-.547a.226.226 0 100-.452.226.226 0 000 .452zm1.32.321a.226.226 0 100-.452.226.226 0 000 .452zm-3.785-.773a.226.226 0 100-.452.226.226 0 000 .452zm1.189.226a.226.226 0 100-.453.226.226 0 000 .453zm-2.489-.677a.226.226 0 10-.001-.451.226.226 0 00.001.451zm14.446.772a.226.226 0 100-.451.226.226 0 000 .451zm-2.622.452a.226.226 0 100-.452.226.226 0 000 .452zm-2.845.226a.226.226 0 100-.452.226.226 0 000 .452zm-2.589 0a.226.226 0 100-.452.226.226 0 000 .452zm11.916-.66a.226.226 0 100-.451.226.226 0 000 .451zm-1.146.321a.226.226 0 100-.452.226.226 0 000 .452zm-1.417.451a.226.226 0 100-.451.226.226 0 000 .451zm-2.541.548a.226.226 0 100-.453.226.226 0 000 .453zm-2.679.324a.226.226 0 100-.453.226.226 0 000 .453zm-2.774.127a.226.226 0 100-.452.226.226 0 000 .452zm-3.984-.547a.226.226 0 100-.451.226.226 0 000 .451zm1.32.321a.226.226 0 100-.451.226.226 0 000 .451zm-3.785-.773a.226.226 0 100-.451.226.226 0 000 .451zm1.189.226a.226.226 0 00.226-.226.226.226 0 00-.452 0c0 .125.101.226.226.226zm-2.489-.677a.226.226 0 10-.001-.451.226.226 0 00.001.451zm14.446.773a.226.226 0 100-.452.226.226 0 000 .452zm-2.622.451a.226.226 0 100-.451.226.226 0 000 .451zm-2.845.226a.226.226 0 100-.452.226.226 0 000 .452zm-2.589 0a.226.226 0 100-.452.226.226 0 000 .452zm11.916-.659a.226.226 0 000-.452.226.226 0 000 .452zm-1.146.32a.226.226 0 100-.452.226.226 0 000 .452zm-1.417.452a.226.226 0 100-.453.226.226 0 000 .453zm-2.541.547a.226.226 0 100-.452.226.226 0 000 .452zm-2.679.324a.226.226 0 100-.453.226.226 0 000 .453zm-2.774.127a.226.226 0 100-.452.226.226 0 000 .452zm-3.984-.547a.226.226 0 100-.452.226.226 0 000 .452zm1.32.321a.226.226 0 100-.451.226.226 0 000 .451zm-3.785-.772a.226.226 0 100-.453.226.226 0 000 .453zm1.189.226a.226.226 0 10-.226-.226c0 .124.101.226.226.226zm-2.489-.678a.226.226 0 10-.001-.451.226.226 0 00.001.451zm14.446.773a.226.226 0 100-.452.226.226 0 000 .452zm-2.622.451a.226.226 0 100-.451.226.226 0 000 .451zm-2.845.226a.226.226 0 100-.452.226.226 0 000 .452zm-2.589 0a.226.226 0 100-.452.226.226 0 000 .452zm11.916-.659a.226.226 0 100-.452.226.226 0 000 .452zm-1.146.32a.226.226 0 100-.451.226.226 0 000 .451zm-1.417.452a.226.226 0 100-.452.226.226 0 000 .452zm-2.541.547a.226.226 0 100-.452.226.226 0 000 .452zm-2.679.324a.226.226 0 00.226-.226.226.226 0 00-.452 0c0 .125.101.226.226.226zm-2.774.128a.226.226 0 100-.452.226.226 0 000 .452zm-3.984-.547a.226.226 0 100-.452.226.226 0 000 .452zm1.32.321a.226.226 0 100-.452.226.226 0 000 .452zm-3.785-.773a.226.226 0 100-.452.226.226 0 000 .452zm1.189.226a.226.226 0 100-.453.226.226 0 000 .453zm-2.489-.678a.225.225 0 100-.45.225.225 0 000 .45zm14.446.773a.226.226 0 100-.451.226.226 0 000 .451zm-2.622.452a.226.226 0 100-.452.226.226 0 000 .452zm-2.845.226a.226.226 0 100-.452.226.226 0 000 .452zm-2.589 0a.226.226 0 100-.452.226.226 0 000 .452z" fill="#000"/></g><defs><clipPath id="clip0"><path fill="#fff" transform="translate(.23 .5)" d="M0 0h356.025v314.645H0z"/></clipPath></defs></svg>