<svg width="309" height="302" fill="none" xmlns="http://www.w3.org/2000/svg"><path d="M153.981 291.687c80.29 0 145.377-65.088 145.377-145.378 0-80.29-65.087-145.377-145.377-145.377S8.604 66.02 8.604 146.31c0 80.29 65.088 145.378 145.377 145.378z" fill="#F8F0FF"/><path d="M153.981 301.918c84.528 0 153.051-7.062 153.051-15.774 0-8.711-68.523-15.774-153.051-15.774C69.453 270.37.93 277.433.93 286.144c0 8.712 68.523 15.774 153.051 15.774z" fill="#3F3D56"/><g clip-path="url(#clip0)"><path d="M272.784 289.129c19.856 0 35.952-2.087 35.952-4.661 0-2.574-16.096-4.66-35.952-4.66-19.856 0-35.953 2.086-35.953 4.66 0 2.574 16.097 4.661 35.953 4.661z" fill="#3F3D56"/><path d="M138.459 89.625H29.919v67.637h108.54V89.625z" fill="#F2F2F2"/><path d="M145.306 83.035H36.766v67.637h108.54V83.035z" stroke="#3F3D56" stroke-width="1.705" stroke-miterlimit="10"/><path d="M107.706 133.258a23.366 23.366 0 006.405-11.968 23.362 23.362 0 00-9.951-23.996 23.419 23.419 0 00-13-3.939v23.374l16.546 16.529z" fill="#3F3D56"/><path d="M91.16 93.355a23.42 23.42 0 00-14.36 4.92 23.375 23.375 0 00-8.317 12.688 23.353 23.353 0 001.227 15.115 23.388 23.388 0 0010.255 11.182l11.195-20.531V93.355z" fill="#B86AF5"/><path d="M107.707 133.258L91.16 116.729 79.966 137.26a23.435 23.435 0 0027.741-4.002z" fill="#575A89"/><path d="M45.355 136.623h-4.481v4.476h4.48v-4.476z" fill="#B86AF5"/><path d="M51.827 136.623h-4.481v4.476h4.48v-4.476z" fill="#3F3D56"/><path d="M58.299 136.623h-4.481v4.476h4.481v-4.476z" fill="#575A89"/><path d="M136.717 137.617h-18.422v.746h18.422v-.746zm0 2.238h-18.422v.746h18.422v-.746zm0 2.238h-18.422v.746h18.422v-.746z" fill="#3F3D56"/><path d="M125.763 183.869H64.024v67.636h61.739v-67.636z" fill="#F2F2F2"/><path d="M131.986 177.404H70.248v67.636h61.738v-67.636z" stroke="#3F3D56" stroke-width="1.705" stroke-miterlimit="10"/><path d="M76.814 237.41h-3.33v3.325h3.33v-3.325z" fill="#B86AF5"/><path d="M81.622 237.41h-3.33v3.325h3.33v-3.325z" fill="#3F3D56"/><path d="M86.43 237.41H83.1v3.325h3.33v-3.325z" fill="#575A89"/><path d="M123.771 238.854h-12.945v.524h12.945v-.524zm0 1.573h-12.945v.524h12.945v-.524zm0 1.572h-12.945v.524h12.945v-.524zm-22.653-52.66v5.471c3.249 0 6.426.963 9.128 2.766a16.413 16.413 0 016.051 7.365 16.393 16.393 0 01-3.561 17.886l3.872 3.868a21.862 21.862 0 004.749-23.847 21.887 21.887 0 00-8.069-9.821 21.926 21.926 0 00-12.17-3.688z" fill="#3F3D56"/><path d="M116.609 226.695l-3.873-3.868a16.436 16.436 0 01-21.558 1.46l-3.315 4.357a21.93 21.93 0 0028.746-1.949z" fill="#575A89"/><path d="M84.687 211.222a16.4 16.4 0 014.812-11.605 16.44 16.44 0 0111.618-4.807v-5.471a21.922 21.922 0 00-12.781 4.111 21.881 21.881 0 00-7.98 10.786 21.86 21.86 0 00-.18 13.411 21.882 21.882 0 007.686 10.997l3.314-4.357a16.373 16.373 0 01-6.49-13.065z" fill="#B86AF5"/><path d="M261.842 117.847s-1.016 7.537 1.596 8.407c2.612.869 1.887 7.537 1.887 7.537l-7.836 5.943-6.965.579-1.742-8.986 1.016-2.319s3.918-4.639 1.161-9.422 10.883-1.739 10.883-1.739z" fill="#FFB9B9"/><path opacity=".1" d="M261.842 117.847s-1.016 7.537 1.596 8.407c2.612.869 1.887 7.537 1.887 7.537l-7.836 5.943-6.965.579-1.742-8.986 1.016-2.319s3.918-4.639 1.161-9.422 10.883-1.739 10.883-1.739z" fill="#000"/><path d="M254.586 176.55l-9.142 21.452s-7.11-4.059-11.318-3.624c-4.208.435-9.432-4.638-9.432-4.638l5.224-25.221 9.722-26.815 13.495 8.552 1.451 30.294z" fill="#575A89"/><path opacity=".1" d="M254.586 176.55l-9.142 21.452s-7.11-4.059-11.318-3.624c-4.208.435-9.432-4.638-9.432-4.638l5.224-25.221 9.722-26.815 13.495 8.552 1.451 30.294z" fill="#000"/><path d="M268.952 267.72v6.958h-6.53l1.016-8.117 5.514 1.159zm16.978-12.03l4.788 2.899-3.483 7.972-3.627-.435-3.483-4.928 5.805-5.508z" fill="#575A89"/><path d="M270.258 174.521l8.561 20.147s-3.047 22.322-2.902 24.206c.145 1.884.29 2.609-.435 4.203-.726 1.595-1.016 2.609-.581 4.494.436 1.884.581 2.609.29 3.333-.29.725-2.321 30.584-3.337 32.613s.58 5.363-.435 5.653c-1.016.29-8.562-.435-8.997-2.174-.435-1.74 1.451-5.943.435-7.248-1.015-1.304.145-48.266-1.306-51.455s-17.413-6.088-17.413-6.088-1.451-9.276-.58-10.726c.871-1.449 2.031-10.581 2.031-10.581l24.669-6.377zm-8.416 98.997s4.063-4.783 7.546 0c0 0 .29 5.653 2.757 6.813 2.467 1.159 1.306 5.798-2.177 5.943-3.483.145-7.981.724-8.126-1.16-.145-1.884.58-3.044-.726-3.624-1.306-.579 0-3.913 0-3.913l.726-4.059z" fill="#2F2E41"/><path d="M262.277 204.234s-.145 10.436-1.161 11.886c-1.015 1.449-1.596 2.319-1.015 3.913.58 1.595 1.451 4.494 1.015 5.074-.435.579.436 3.623.436 3.623s11.173 5.363 16.397 16.524c0 0 5.369 8.842 6.965 8.987 1.596.145 3.483-1.015 2.612 2.319-.871 3.333-4.208 7.682-6.675 7.247-2.467-.435-4.353-4.638-4.353-4.638s-19.3-19.568-21.331-20.148c-2.032-.58-7.836-5.218-8.852-8.117-1.016-2.899-3.192-27.104-2.176-28.699 1.015-1.594 4.788-3.768 4.788-3.768l13.35 5.797z" fill="#2F2E41"/><path d="M287.381 255.11s8.997.29 9.142 2.464c.145 2.174-3.773 15.075-3.193 18.119.581 3.043-4.498 10.001-7.836 8.551-3.337-1.449-.725-8.986-.725-8.986s-3.338-10.291-2.757-10.436c.58-.145 6.385-1.885 6.094-3.624-.29-1.739-.725-6.088-.725-6.088z" fill="#2F2E41"/><path d="M255.095 125.601c4.968 0 8.996-4.023 8.996-8.986 0-4.963-4.028-8.987-8.996-8.987-4.969 0-8.997 4.024-8.997 8.987s4.028 8.986 8.997 8.986z" fill="#FFB9B9"/><path d="M264.164 130.457s-4.934 5.218-8.561 4.348c-3.628-.869-5.514-7.102-5.514-7.102l-6.53-1.159s-4.644 20.582-4.644 22.611 4.644 23.916 4.644 27.83c0 3.913-3.773 6.232 2.031 6.087 5.805-.145 3.047-2.029 11.464-2.174 8.416-.145 9.722 1.739 11.463-1.304a24.258 24.258 0 014.354-5.363l-3.048-10.726-.435-30.294s-3.72-7.247-5.415-6.667c0 0 .917 3.188.191 3.913z" fill="#B86AF5"/><path d="M262.376 125.262s7.737.847 9.914 2.441c2.176 1.595 8.271 2.754 8.126 3.914-.145 1.159-7.11 17.683-7.11 17.683s-3.193 13.045-.436 16.089c2.757 3.044 13.06 36.236 11.319 38.99-1.742 2.754-7.256-8.407-7.256-8.407s-7.4-23.916-11.463-27.974c-4.063-4.058-4.354-25.945-4.354-26.96 0-1.014 1.26-15.776 1.26-15.776zm-11.316 1.681s-9.533-3.588-12.871-2.139c-3.337 1.45-5.369 1.739-5.369 1.739l-1.16 14.205s-.436 20.437-4.209 25.366c-3.772 4.928-6.239 25.51-5.659 27.539.581 2.03-1.016 5.508 1.451 4.639 2.467-.87 9.287-20.873 9.287-20.873s0-11.45 4.063-14.639 10.738-16.379 11.028-19.568c.291-3.189 3.048-12.03 3.048-12.03l.391-4.239z" fill="#575A89"/><path d="M283.753 172.636s-4.354 8.117-4.934 9.567c-.58 1.449-4.643 11.305-10.448 9.131-5.804-2.174 5.659-12.755 5.659-12.755l2.612-8.842s6.82-1.449 7.111 2.899z" fill="#FFB9B9"/><path d="M234.271 126.544h-1.451s-1.451-1.16-3.193-.435c-1.741.724-5.804-.29-5.804.145 0 .434-4.498-1.305-6.385-.435-1.886.869-8.706 1.159-8.706 1.159s-2.757 6.958-.871 8.262c1.887 1.305 4.644.29 5.95 1.305 1.306 1.014 3.772-.145 4.643 1.159.871 1.305 4.063 3.624 4.789 2.174.725-1.449-.726-2.753 2.321-1.159 3.048 1.594 7.836 1.594 7.836 1.594l.871-13.769z" fill="#575A89"/><path d="M255.905 109.975c-1.217-.281-2.481.03-3.714.232s-2.592.269-3.635-.419c-.77-.507-1.244-1.347-1.689-2.154a2.496 2.496 0 01-.363-.951c-.052-.597.328-1.142.732-1.586 1.876-2.06 4.618-3.188 7.383-3.546 2.273-.294 4.643-.097 6.742.823 2.099.919 3.904 2.603 4.729 4.739a13.46 13.46 0 01.706 3.385c.125.848.141 1.71.048 2.563a11.065 11.065 0 01-.498 1.857l-1.367 4.123a2.73 2.73 0 01-.537 1.063.934.934 0 01-1.089.238 3.39 3.39 0 00.049-1.368 1.156 1.156 0 00-.912-.918c-.504-.054-.934.337-1.412.505a1.753 1.753 0 01-1.383-.173 1.745 1.745 0 01-.811-1.132c-.075-.471.052-.976-.127-1.418-.21-.519-.766-.791-1.183-1.163a2.716 2.716 0 01-.747-2.827c.112-.343.427-.499.364-.893-.083-.517-.846-.879-1.286-.98z" fill="#2F2E41"/><path d="M217.873 141.596h-61.739v67.637h61.739v-67.637z" fill="#F2F2F2"/><path d="M224.096 135.131h-61.738v67.636h61.738v-67.636z" stroke="#3F3D56" stroke-width="1.705" stroke-miterlimit="10"/><path d="M168.332 139.358v51.722h50.038" stroke="#3F3D56" stroke-width="1.705" stroke-miterlimit="10"/><path d="M182.274 172.928h-11.203v17.903h11.203v-17.903z" fill="#575A89"/><path d="M198.455 160.743h-11.203v30.088h11.203v-30.088z" fill="#3F3D56"/><path d="M214.635 146.569h-11.202v44.262h11.202v-44.262zm-43.721 48.568h-3.329v3.325h3.329v-3.325z" fill="#B86AF5"/><path d="M175.722 195.137h-3.329v3.325h3.329v-3.325z" fill="#3F3D56"/><path d="M180.531 195.137h-3.329v3.325h3.329v-3.325z" fill="#575A89"/><path d="M217.873 196.581h-12.946v.524h12.946v-.524zm0 1.573h-12.946v.524h12.946v-.524zm0 1.572h-12.946v.524h12.946v-.524z" fill="#3F3D56"/><path d="M210.231 126.97c2.646.115 4.612 2.512 4.326 5.142-.259 2.382-1.216 5.347-4.229 6.486-5.369 2.029-5.079-9.422-4.063-9.856.677-.29 1.741-1.869 3.966-1.772z" fill="#FFB9B9"/><path d="M278.82 130.842l1.596.775s3.483 7.102 3.628 8.116c.145 1.015 2.467 4.784 1.596 5.798-.871 1.015-2.177 3.624-1.306 4.639.871 1.014 2.902 5.073 2.902 6.522 0 1.45-2.176 5.363-.725 5.798 1.451.435 1.015 6.088.725 6.522-.29.435-4.063 7.538-4.063 7.538s-.725-8.117-7.836-4.784c0 0-.58-4.058 0-4.348.581-.29 2.032-2.029.871-2.319-1.161-.29-2.757-3.769-2.467-4.203.29-.435 1.016-1.015.29-1.45-.725-.435-1.306-2.899-1.161-3.334.146-.435-1.596-2.464-1.596-2.464l7.546-22.806z" fill="#575A89"/></g><defs><clipPath id="clip0"><path fill="#fff" transform="translate(29.92 82.787)" d="M0 0h278.817v206.342H0z"/></clipPath></defs></svg>