<svg width="305" height="311" xmlns="http://www.w3.org/2000/svg"><defs><linearGradient y2=".5" x2="0" y1=".5" x1="1" id="a"><stop stop-opacity=".25" stop-color="gray"/><stop stop-opacity=".12" stop-color="gray" offset=".54"/><stop stop-opacity=".1" stop-color="gray" offset="1"/></linearGradient></defs><path fill="none" d="M-1-1h307v313H-1z"/><path fill="#F8F0FF" d="M148.191 292.687c80.289 0 145.377-65.088 145.377-145.378 0-80.29-65.088-145.377-145.377-145.377C67.901 1.932 2.813 67.02 2.813 147.31c0 80.29 65.088 145.378 145.378 145.378z"/><path fill="#B86AF5" d="M258.069 288.423c10.068 0 18.229-2.158 18.229-4.82 0-2.662-8.161-4.82-18.229-4.82s-18.23 2.158-18.23 4.82c0 2.662 8.162 4.82 18.23 4.82z" opacity=".1"/><g opacity=".1"><path fill="#3F3D56" d="M141.428 221.735c.012.267.031.528.06.783a109.444 109.444 0 006.526-2.837 5.295 5.295 0 003.016-1.469 88.322 88.322 0 001.86-.965 7.521 7.521 0 00-.473-.851c-1.199-1.887-3.022-3.067-5.03-3.002-2.008.066-3.746 1.362-4.82 3.317a9.751 9.751 0 00-1.139 5.024z" opacity=".1"/><path fill="#3F3D56" d="M141.101 211.814a9.775 9.775 0 001.467 4.914c1.202 1.881 3.025 3.061 5.033 2.996.14 0 .285-.02.413-.031a5.305 5.305 0 003.017-1.47 7.237 7.237 0 001.387-1.81 10.132 10.132 0 00-.325-9.93c-1.202-1.886-3.025-3.067-5.033-3.001-2.008.065-3.743 1.361-4.817 3.316a9.757 9.757 0 00-1.142 5.016z" opacity=".1"/><path fill="#3F3D56" d="M147.273 209.803c3.438-.112 6.106-3.838 5.958-8.321-.147-4.484-3.055-8.027-6.493-7.915-3.439.112-6.106 3.838-5.959 8.322.148 4.483 3.055 8.027 6.494 7.914z" opacity=".1"/><path fill="#3F3D56" d="M146.946 199.884c3.438-.112 6.106-3.838 5.958-8.322-.148-4.483-3.055-8.027-6.493-7.914-3.439.112-6.107 3.838-5.959 8.321.148 4.484 3.055 8.027 6.494 7.915z" opacity=".1"/><path fill="#3F3D56" d="M146.619 189.962c3.439-.113 6.107-3.838 5.959-8.322-.148-4.484-3.055-8.027-6.494-7.915-3.438.113-6.106 3.839-5.958 8.322.148 4.484 3.055 8.027 6.493 7.915z" opacity=".1"/><path fill="#B86AF5" d="M167.431 113.195a29.528 29.528 0 002.205-3.475l-16.446-2.14 17.694-.448a29.659 29.659 0 00-.205-23.547l-23.331 13.036 21.362-16.739a29.77 29.77 0 00-8.41-8.71 29.894 29.894 0 00-11.196-4.654 29.953 29.953 0 00-12.131.17 29.892 29.892 0 00-11.06 4.967 29.77 29.77 0 00-8.161 8.942 29.638 29.638 0 00-3.911 11.439 29.592 29.592 0 00.984 12.044 29.659 29.659 0 005.717 10.658 29.766 29.766 0 00-3.222 5.527l21.594 10.293-22.89-6.826a29.623 29.623 0 00-.663 14.589 29.696 29.696 0 006.391 13.143 29.613 29.613 0 00-2.342 31.448 29.759 29.759 0 0011.405 11.835 29.922 29.922 0 0015.972 4.004 29.92 29.92 0 0015.671-5.047 29.75 29.75 0 0010.593-12.561 29.61 29.61 0 002.289-16.246 29.665 29.665 0 00-6.715-14.979 29.648 29.648 0 005.782-18.567 29.65 29.65 0 00-6.976-18.156z" opacity=".1"/><path d="M114.766 133.298a29.514 29.514 0 006.987 18.158 29.634 29.634 0 00-5.708 15.388 29.608 29.608 0 003.359 16.06 29.772 29.772 0 0011.403 11.837 29.929 29.929 0 0015.971 4.006 29.908 29.908 0 0015.672-5.044 29.75 29.75 0 0010.596-12.559 29.608 29.608 0 002.291-16.245 29.655 29.655 0 00-6.712-14.981c3.831-5.181-53.968-19.953-53.859-16.62z" opacity=".1"/></g><g opacity=".1"><path fill="#3F3D56" d="M76.11 273.997c0 .187-.02.374-.043.567a82.477 82.477 0 01-4.646-2.005 3.766 3.766 0 01-2.147-1.042 82.685 82.685 0 01-1.325-.686c.099-.208.211-.409.336-.602.855-1.344 2.148-2.184 3.578-2.139 1.43.046 2.666.965 3.418 2.355a6.926 6.926 0 01.829 3.552z" opacity=".1"/><path fill="#3F3D56" d="M76.332 266.935a6.959 6.959 0 01-1.037 3.499c-.854 1.339-2.15 2.181-3.577 2.136l-.285-.023a3.767 3.767 0 01-2.148-1.041 5.098 5.098 0 01-.988-1.288 7.221 7.221 0 01.222-7.061c.854-1.345 2.15-2.185 3.578-2.14 1.427.046 2.666.965 3.432 2.355a6.926 6.926 0 01.803 3.563z" opacity=".1"/><path fill="#3F3D56" d="M76.563 259.887c.101-3.19-1.8-5.839-4.247-5.916-2.447-.077-4.512 2.447-4.613 5.637-.101 3.19 1.8 5.839 4.246 5.916 2.447.077 4.512-2.447 4.614-5.637z" opacity=".1"/><path fill="#3F3D56" d="M76.783 252.827c.101-3.19-1.8-5.839-4.247-5.916-2.446-.077-4.512 2.447-4.613 5.637-.101 3.19 1.8 5.839 4.247 5.916 2.446.077 4.512-2.447 4.613-5.637z" opacity=".1"/><path fill="#3F3D56" d="M77.008 245.764c.101-3.19-1.8-5.839-4.247-5.916-2.446-.077-4.511 2.447-4.613 5.637-.101 3.19 1.8 5.838 4.247 5.915 2.446.077 4.512-2.446 4.613-5.636z" opacity=".1"/><path fill="#B86AF5" d="M57.52 196.778a21.472 21.472 0 01-1.575-2.471l11.701-1.549-12.593-.284a21.104 21.104 0 01.126-16.761l16.614 9.257-15.216-11.902a21.195 21.195 0 015.971-6.233 21.301 21.301 0 0124.512.285 21.185 21.185 0 015.823 6.37 21.086 21.086 0 012.081 16.742 21.13 21.13 0 01-4.087 7.593 21.024 21.024 0 012.298 3.932l-15.358 7.342 16.284-4.88a21.1 21.1 0 01.484 10.384 21.14 21.14 0 01-4.534 9.362 21.075 21.075 0 011.701 22.378 21.185 21.185 0 01-8.104 8.435 21.305 21.305 0 01-22.52-.709 21.167 21.167 0 01-7.553-8.927 21.07 21.07 0 01-1.646-11.559 21.105 21.105 0 014.762-10.667 21.092 21.092 0 01-4.127-13.211 21.094 21.094 0 014.956-12.924v-.003z" opacity=".1"/><path d="M95.003 211.037a21.017 21.017 0 01-4.953 12.928 21.076 21.076 0 011.701 22.378 21.185 21.185 0 01-8.104 8.435 21.303 21.303 0 01-22.52-.709 21.174 21.174 0 01-7.553-8.927 21.08 21.08 0 013.116-22.226c-2.731-3.689 38.393-14.254 38.313-11.879z" opacity=".1"/></g><g opacity=".1"><path fill="#3F3D56" d="M224.445 237.101c0 .19-.02.374-.04.567a81.551 81.551 0 01-4.646-2.006 3.782 3.782 0 01-2.15-1.041 87.473 87.473 0 01-1.325-.686 6.01 6.01 0 01.337-.602c.854-1.345 2.147-2.184 3.577-2.139 1.43.045 2.666.965 3.418 2.355a6.924 6.924 0 01.829 3.552z" opacity=".1"/><path fill="#3F3D56" d="M224.683 230.039a6.952 6.952 0 01-1.039 3.498c-.855 1.34-2.148 2.182-3.578 2.137l-.285-.023a3.78 3.78 0 01-2.15-1.041 5.208 5.208 0 01-.989-1.288 7.219 7.219 0 01.223-7.062c.854-1.342 2.15-2.184 3.577-2.139 1.427.046 2.669.965 3.432 2.355a6.928 6.928 0 01.809 3.563z" opacity=".1"/><path fill="#3F3D56" d="M224.906 222.989c.102-3.19-1.8-5.839-4.246-5.916-2.447-.077-4.512 2.447-4.613 5.637-.101 3.19 1.8 5.839 4.246 5.916 2.447.077 4.512-2.447 4.613-5.637z" opacity=".1"/><path fill="#3F3D56" d="M225.13 215.928c.102-3.19-1.8-5.838-4.246-5.915-2.447-.077-4.512 2.446-4.613 5.637-.101 3.19 1.8 5.838 4.246 5.915 2.447.077 4.512-2.446 4.613-5.637z" opacity=".1"/><path fill="#3F3D56" d="M225.355 208.868c.101-3.19-1.801-5.838-4.247-5.915-2.447-.077-4.512 2.446-4.613 5.637-.101 3.19 1.8 5.838 4.246 5.915 2.447.077 4.512-2.447 4.614-5.637z" opacity=".1"/><path fill="#B86AF5" d="M205.853 159.882a20.824 20.824 0 01-1.573-2.472l11.701-1.534-12.592-.304a21.117 21.117 0 01.122-16.761l16.615 9.257-15.216-11.896a21.186 21.186 0 015.968-6.251 21.32 21.32 0 0116.638-3.263 21.29 21.29 0 017.902 3.531 21.178 21.178 0 015.829 6.38 21.068 21.068 0 012.068 16.764 21.116 21.116 0 01-4.105 7.595 21.11 21.11 0 012.296 3.933l-15.359 7.342 16.284-4.88a21.073 21.073 0 01.487 10.383 21.129 21.129 0 01-4.537 9.36 21.072 21.072 0 011.703 22.376 21.167 21.167 0 01-8.102 8.435 21.305 21.305 0 01-22.519-.709 21.172 21.172 0 01-7.552-8.927 21.076 21.076 0 013.119-22.224 21.086 21.086 0 01.828-26.135h-.005z" opacity=".1"/><path d="M243.341 174.141a21.004 21.004 0 01-4.956 12.925 21.074 21.074 0 011.701 22.376 21.178 21.178 0 01-8.103 8.433 21.292 21.292 0 01-22.517-.708 21.172 21.172 0 01-7.552-8.927 21.072 21.072 0 013.116-22.223c-2.734-3.686 38.385-14.254 38.311-11.876z" opacity=".1"/></g><path fill="#3F3D56" d="M148.19 302.918c84.528 0 153.051-7.062 153.051-15.774 0-8.711-68.523-15.774-153.051-15.774-84.527 0-153.051 7.063-153.051 15.774 0 8.712 68.524 15.774 153.051 15.774z"/><path fill="#B86AF5" d="M38.319 282.023c8.968 0 16.238-1.392 16.238-3.109 0-1.718-7.27-3.11-16.238-3.11-8.969 0-16.239 1.392-16.239 3.11 0 1.717 7.27 3.109 16.239 3.109z"/><path fill="#3F3D56" d="M38.047 280.057c1.045 0 1.892-1.104 1.892-2.466 0-1.361-.847-2.465-1.892-2.465-1.044 0-1.891 1.104-1.891 2.465 0 1.362.847 2.466 1.891 2.466z"/><path fill="#3F3D56" d="M38.047 277.044c1.045 0 1.892-1.104 1.892-2.466 0-1.361-.847-2.465-1.892-2.465-1.044 0-1.891 1.104-1.891 2.465 0 1.362.847 2.466 1.891 2.466z"/><path fill="#3F3D56" d="M38.047 274.031c1.045 0 1.892-1.104 1.892-2.465 0-1.362-.847-2.466-1.892-2.466-1.044 0-1.891 1.104-1.891 2.466 0 1.361.847 2.465 1.891 2.465z"/><path fill="#3F3D56" d="M38.047 271.018c1.045 0 1.892-1.104 1.892-2.465 0-1.362-.847-2.466-1.892-2.466-1.044 0-1.891 1.104-1.891 2.466 0 1.361.847 2.465 1.891 2.465z"/><path fill="#3F3D56" d="M38.047 268.005c1.045 0 1.892-1.104 1.892-2.465 0-1.362-.847-2.466-1.892-2.466-1.044 0-1.891 1.104-1.891 2.466 0 1.361.847 2.465 1.891 2.465z"/><path fill="#3F3D56" d="M38.047 264.992c1.045 0 1.892-1.104 1.892-2.465 0-1.362-.847-2.466-1.892-2.466-1.044 0-1.891 1.104-1.891 2.466 0 1.361.847 2.465 1.891 2.465z"/><path fill="#3F3D56" d="M38.047 261.979c1.045 0 1.892-1.104 1.892-2.465 0-1.362-.847-2.466-1.892-2.466-1.044 0-1.891 1.104-1.891 2.466 0 1.361.847 2.465 1.891 2.465z"/><path fill="#B86AF5" d="M45.125 238.894c.257-.328.492-.673.703-1.033l-4.967-.814 5.372.043a9.027 9.027 0 00.173-7.15l-7.209 3.725 6.648-4.877a9.031 9.031 0 00-2.462-2.738 9.075 9.075 0 00-7.043-1.605 9.07 9.07 0 00-5.982 4.037 9.003 9.003 0 00-1.113 7.111 8.996 8.996 0 001.641 3.292 9.033 9.033 0 00-1.031 1.646l6.448 3.336-6.876-2.298a9.003 9.003 0 001.459 8.472 8.993 8.993 0 00-1.026 9.518 9.024 9.024 0 003.341 3.705 9.087 9.087 0 009.611 0 9.003 9.003 0 004.201-8.611 9.003 9.003 0 00-1.886-4.612 9.005 9.005 0 000-11.156l-.002.009z"/><path d="M28.949 244.472a8.962 8.962 0 001.937 5.577 8.996 8.996 0 00-1.026 9.519 9.027 9.027 0 003.341 3.704 9.079 9.079 0 0012.953-3.704 9.003 9.003 0 00.859-4.906 9.006 9.006 0 00-1.886-4.613c1.211-1.535-16.178-6.59-16.178-5.577z" opacity=".1"/><path fill="#3F3D56" d="M81.898 212.617v64.118a713.27 713.27 0 01-14.097-.826l-2.139-.15v-63.142a2.5 2.5 0 012.512-2.502h11.211a2.52 2.52 0 011.777.733 2.5 2.5 0 01.736 1.769zm20.793 64.915V169.777c0-.663.265-1.3.736-1.769a2.518 2.518 0 011.777-.733h11.211a2.515 2.515 0 012.321 1.545c.126.303.191.629.191.957v108.036l-16.236-.281zm37.028.337V192.19c0-.664.264-1.3.735-1.769a2.518 2.518 0 011.777-.733h11.211c.666 0 1.305.263 1.776.733.472.469.736 1.105.736 1.769v85.495l-16.235.184zm54.264-152.229v148.194c-5.411.153-10.823.297-16.235.431V125.64c0-.664.264-1.3.736-1.77a2.518 2.518 0 011.776-.733h11.211a2.52 2.52 0 011.777.733 2.5 2.5 0 01.735 1.77zm36.03 32.789V275.6c-5.412.261-10.824.445-16.236.61V158.429c0-.664.265-1.3.736-1.769a2.514 2.514 0 011.776-.733H227.5c.667 0 1.306.263 1.777.733.471.469.736 1.105.736 1.769z"/><path stroke-linecap="round" stroke-miterlimit="10" stroke-width="5.969" stroke="#3F3D56" d="M73.922 175.224l37.029-41.137 37.028 20.711 37.029-63.551 37.028 30.357"/><path fill="#B86AF5" d="M73.78 183.168c4.405 0 7.975-3.556 7.975-7.944 0-4.387-3.57-7.943-7.975-7.943-4.405 0-7.975 3.556-7.975 7.943 0 4.388 3.57 7.944 7.975 7.944zm37.029-41.137c4.405 0 7.976-3.557 7.976-7.944 0-4.387-3.571-7.944-7.976-7.944-4.405 0-7.975 3.557-7.975 7.944 0 4.387 3.57 7.944 7.975 7.944zm37.027 20.71c4.405 0 7.976-3.556 7.976-7.943 0-4.388-3.571-7.944-7.976-7.944-4.404 0-7.975 3.556-7.975 7.944 0 4.387 3.571 7.943 7.975 7.943zm37.03-63.55c4.404 0 7.975-3.556 7.975-7.944 0-4.387-3.571-7.943-7.975-7.943-4.405 0-7.976 3.556-7.976 7.943 0 4.388 3.571 7.944 7.976 7.944zm71.209 67.522c4.404 0 7.975-3.556 7.975-7.944 0-4.387-3.571-7.943-7.975-7.943-4.405 0-7.976 3.556-7.976 7.943 0 4.388 3.571 7.944 7.976 7.944z"/><path fill="#B86AF5" d="M49.762 271.787c2.939 0 5.321-.401 5.321-.897 0-.495-2.382-.896-5.321-.896-2.938 0-5.32.401-5.32.896 0 .496 2.382.897 5.32.897z" opacity=".1"/><path fill="#A8A8A8" d="M46.191 266.728s3.034-.093 3.948-.743c.914-.65 4.668-1.419 4.896-.383.228 1.035 4.558 5.175 1.14 5.203-3.418.028-7.962-.533-8.873-1.086-.911-.554-1.111-2.991-1.111-2.991z"/><path d="M56.229 270.442c-3.418.029-7.959-.53-8.873-1.084-.695-.422-.971-1.934-1.065-2.632h-.1s.191 2.437 1.105 2.99c.915.553 5.446 1.115 8.873 1.086.988 0 1.33-.357 1.31-.876-.137.315-.513.511-1.25.516z" opacity=".2"/><path fill="#B86AF5" d="M286.21 280.139c5.397 0 9.772-.737 9.772-1.645 0-.909-4.375-1.646-9.772-1.646s-9.773.737-9.773 1.646c0 .908 4.376 1.645 9.773 1.645z" opacity=".1"/><path fill="#A8A8A8" d="M279.656 270.848s5.574-.17 7.255-1.362c1.68-1.192 8.573-2.613 8.989-.704.416 1.91 8.38 9.505 2.085 9.556-6.295.051-14.623-.976-16.301-1.986-1.678-1.01-2.028-5.504-2.028-5.504z"/><path d="M298.091 277.674c-6.295.051-14.624-.976-16.302-1.986-1.276-.775-1.785-3.555-1.956-4.823h-.186s.354 4.479 2.028 5.495c1.675 1.016 10.01 2.046 16.302 1.986 1.817 0 2.444-.658 2.409-1.611-.253.567-.945.927-2.295.939z" opacity=".2"/><path fill="url(#a)" d="M225.199 163.641c.053.497.251.967.57 1.353.413.465 1.031.678 1.586.956a6.245 6.245 0 013.065 3.51c.949 2.757 1.071 5.674 2.279 8.335 1.207 2.661 2.626 5.217 3.668 7.944.593 1.546 1.066 3.154 1.934 4.562a7.092 7.092 0 001.587 1.818 41.315 41.315 0 00-.085 2.985 1.146 1.146 0 01.974.511c.21.323.356.684.427 1.063.39 1.609-.091 3.323.259 4.94a25.031 25.031 0 01-.854 13.516c-.391 1.1-.881 4.743-.465 5.835 1.55-.156 2.923.792 4.373 1.419a5.96 5.96 0 01-.206 2.553c-.521 1.495-.518 3.121-.509 4.701l.071 11.706c0 1.484.02 2.987.393 4.426.424 1.62 1.316 3.271 1.287 4.945-.077 3.603 1.632 7.036 1.496 10.61-.026.687-.12 1.368-.185 2.049a23.169 23.169 0 00.136 5.444c.519 3.592 1.889 7.124 1.547 10.736-.023.244-.105.567-.336.661.285.32.587.638.894.942a.814.814 0 01-.248.258 2.513 2.513 0 01-1.088.283 2.314 2.314 0 00-1.244.403 1.785 1.785 0 00-.519.948 2.546 2.546 0 00.342 2.122c.254.319.587.567.966.721 1.316.567 2.825.156 4.198-.259l5.378-1.622c.328-.068.63-.225.874-.454a.948.948 0 00.214-.46c1.188.284 2.492-.065 3.703-.425l5.377-1.626c.329-.067.632-.224.875-.454a1.032 1.032 0 00.219-.851c.04-.017.08-.029.12-.048.41-.185.854-.545.755-.979-.072-.284-.356-.448-.479-.709a1.019 1.019 0 01.199-1.002c.211-.284.496-.519.69-.817.621-.948.199-2.193-.034-3.302-.505-2.369-.037-4.843-.356-7.243-.109-.809-.305-1.603-.462-2.406a48.903 48.903 0 01-.658-5.737c-.205-2.746-.971-5.453-.533-8.176.213-1.599.304-3.211.271-4.823a20.939 20.939 0 00-.134-3.076c-.111-.76-.307-1.506-.393-2.269a20.552 20.552 0 01-.045-2.579 25.446 25.446 0 00-.53-5.708c-.57-2.579-1.641-5.047-2.097-7.632.154.034.308.068.456.108.017-1.986-1.729-6.304-2.375-8.188a2.348 2.348 0 01-.171-.723c.039-.328.099-.653.179-.974.083-.686-.285-1.339-.384-2.025a4.716 4.716 0 01.105-1.441c.459-2.54 1.028-5.059 1.598-7.575.248-.912.334-1.86.253-2.801a3.493 3.493 0 01.124-1.486c.147-.482.396-.926.731-1.302.25-.23.463-.497.632-.792.095-.253.138-.522.126-.791a12.706 12.706 0 00-.513-3.448c.501-.905.686-2.017.832-3.066.319-2.318.638-4.647.626-6.988a11.782 11.782 0 00-.512-3.688 14.57 14.57 0 00-.975-2.139c-1.498-2.874-2.931-5.899-4.822-8.531-.57-.801-.211-1.904-.171-2.891.043-1.192-.43-2.335-.894-3.43a5.625 5.625 0 00-1.071-1.836 1.727 1.727 0 00-.568-.412 1.729 1.729 0 00-.685-.155 1.884 1.884 0 00-1.336.814 4.364 4.364 0 00-.801 3.282 6.341 6.341 0 001.45 3.101c.367.444.787.841 1.251 1.183.471 1.491.945 2.98 1.424 4.469.752 2.369 1.504 4.749 2.563 6.99.311.65.653 1.311.69 2.029.039.774-.285 1.512-.544 2.241a15.743 15.743 0 00-.918 4.726 1.68 1.68 0 00-.239.131c-.897.584-1.179 1.858-2.113 2.38-.544.304-1.205.284-1.815.423-.054 0-.108.028-.165.045-.023-.113-.046-.224-.06-.34a.883.883 0 010-.218 9.548 9.548 0 003.541-3.36c.183-.26.324-.547.418-.851.077-.363.092-.738.043-1.106a17.547 17.547 0 00-.527-3.646 6.063 6.063 0 00-1.905-3.089c-.467-.375-1.006-.656-1.47-1.033-.906-.729-1.527-1.807-2.564-2.349a3.095 3.095 0 00-3.876.999 2.24 2.24 0 01-.57.72c-.181.086-.358.18-.53.284-.313.25-.33.729-.228 1.118.195.798.304 1.615.325 2.437a5.949 5.949 0 00-1.429 3.851 5.949 5.949 0 001.412 3.857c0 .528 0 1.055-.02 1.583 0 .099 0 .202-.02.301a2.049 2.049 0 01-.854-.568c-.319-.397-.376-.981-.766-1.307a2.168 2.168 0 00-.935-.341 5.821 5.821 0 01-2.278-1.075c-.527-.406-1.074-.925-1.69-1.044a37.21 37.21 0 00-3.702-5.629c-.356-.417-.68-.86-.969-1.325-.612-1.064-.794-2.315-1.182-3.481-1.082-3.268-3.782-5.89-4.44-9.271-.24-1.226-1.02-2.293-1.556-3.422-.361-.763-.76-1.569-1.484-2.006-.931-.567-2.219-.306-2.993.457a3.573 3.573 0 00-.926 3.016zm33.818 114.813a2.528 2.528 0 01-1.088.284c-.191.02-.381.05-.569.09-.071-.595-.111-1.2-.157-1.787-.151-1.926-.453-3.838-.752-5.748-.313-1.986-.461-4.159-1.139-6.065-1.091-3.104-2.196-6.302-2.057-9.59.032-.746.126-1.486.165-2.23.092-1.841-.168-3.722.285-5.512.203-.814.547-1.592.678-2.42.084-.748.093-1.503.029-2.253a29.83 29.83 0 01.646-7.759c.53.689.704 1.58.855 2.434l1.068 5.771c.635 3.424 1.196 7.056 2.88 10.103-.237 1.097-.47 2.269-.08 3.319.168.454.444.851.615 1.311.285.763.245 1.603.33 2.411.186 1.702.892 3.376.374 5.019a24.344 24.344 0 00-1.034 5.209c-.029.492-.086.981-.171 1.466-.091.437-.239.852-.322 1.3a4.274 4.274 0 00.083 1.892c.127.342.206.7.233 1.064 0 .363-.447.624-.806.681.105.136.219.267.336.394a1.232 1.232 0 01-.402.616z"/><path fill="#3F3D56" d="M247.768 281.728a2.306 2.306 0 00-1.244.403 1.748 1.748 0 00-.519.942 2.509 2.509 0 00.342 2.105c.255.318.587.565.966.718 1.316.567 2.825.153 4.198-.259l5.378-1.611a1.81 1.81 0 00.874-.451 1.182 1.182 0 00.023-1.379 2.687 2.687 0 00-1.139-.905c-1.672-.811-3.558-.996-5.395-1.03-.684 0-1.359-.164-1.823.36-.245.284-.199.588-.57.829a2.57 2.57 0 01-1.091.278z"/><path fill="#3F3D56" d="M257.929 278.783a2.337 2.337 0 00-1.245.403 1.757 1.757 0 00-.518.942 2.514 2.514 0 00.342 2.108c.255.316.587.562.965.715 1.319.567 2.826.156 4.199-.256l5.377-1.614c.328-.067.631-.223.875-.451a1.175 1.175 0 00.023-1.376c-.29-.4-.684-.713-1.14-.905-1.675-.811-3.56-.999-5.397-1.033-.684 0-1.356-.161-1.823.363-.245.284-.2.585-.57.826a2.5 2.5 0 01-1.088.278z"/><path fill="#696791" d="M253.254 220.652a66.354 66.354 0 019.54-.267c.21-.002.418.03.618.096.7.284.809 1.198.874 1.944.285 3.03 1.612 5.853 2.279 8.82.391 1.866.569 3.769.53 5.674-.039.852-.024 1.704.045 2.554.086.757.285 1.5.393 2.255.12 1.014.165 2.035.134 3.056.033 1.6-.058 3.2-.27 4.786-.439 2.704.327 5.39.532 8.125.102 1.913.318 3.818.647 5.705.156.798.353 1.586.461 2.389.319 2.386-.148 4.843.356 7.198.234 1.101.655 2.338.034 3.28-.193.283-.478.524-.689.811a1.013 1.013 0 00-.199.996c.122.258.407.428.478.703.111.434-.344.789-.755.973-3.09 1.391-7.075.412-9.16-2.252.359-.057.798-.315.806-.678a3.826 3.826 0 00-.233-1.056 4.24 4.24 0 01-.083-1.878c.083-.437.231-.851.322-1.291.085-.482.142-.969.171-1.458a24.113 24.113 0 011.034-5.175c.518-1.631-.188-3.282-.373-4.984-.086-.806-.049-1.637-.331-2.398-.171-.448-.447-.851-.615-1.299-.39-1.047-.157-2.21.08-3.3-1.684-3.027-2.245-6.635-2.88-10.037l-1.068-5.731c-.16-.851-.333-1.733-.855-2.42a29.443 29.443 0 00-.646 7.708 11.32 11.32 0 01-.029 2.239c-.131.822-.475 1.597-.678 2.403-.441 1.779-.182 3.645-.284 5.475-.04.741-.134 1.476-.166 2.216-.139 3.268.966 6.446 2.057 9.53.669 1.892.817 4.043 1.139 6.023.285 1.898.601 3.796.752 5.711.14 1.759.202 3.662 1.302 5.044-1.006.65-2.042 1.311-3.219 1.535a5.958 5.958 0 01-3.965-.766 12.459 12.459 0 01-3.133-2.653c.231-.079.314-.414.336-.655.342-3.592-1.028-7.093-1.546-10.667a22.865 22.865 0 01-.137-5.408c.065-.678.159-1.356.185-2.037.137-3.549-1.581-6.968-1.518-10.52.028-1.665-.855-3.305-1.288-4.914-.373-1.418-.384-2.922-.393-4.397l-.071-11.632c0-1.572 0-3.183.51-4.667.627-1.787-.091-3.838-.199-5.728a23.813 23.813 0 009.168 1.019z"/><path fill="#A0616A" d="M243.101 187.231a37.05 37.05 0 00-4.361-6.857 10.744 10.744 0 01-.968-1.317c-.613-1.058-.795-2.301-1.183-3.458-1.082-3.246-3.782-5.853-4.44-9.209-.239-1.22-1.02-2.27-1.555-3.405-.362-.757-.761-1.557-1.484-1.986-.932-.567-2.219-.306-2.994.454a3.541 3.541 0 00-.917 2.993c.053.495.251.962.57 1.345.413.463 1.031.673 1.586.951a6.214 6.214 0 013.065 3.486c.948 2.738 1.071 5.638 2.279 8.282 1.207 2.644 2.626 5.18 3.668 7.884.593 1.535 1.066 3.121 1.934 4.539.869 1.419 2.225 2.608 3.863 2.82a9.45 9.45 0 01.464-3.03c.356-1.117.988-2.434.473-3.492zm17.634 2.122a15.616 15.616 0 01.925-5.895c.262-.724.57-1.459.544-2.227-.037-.715-.378-1.371-.689-2.018-1.071-2.227-1.823-4.587-2.563-6.942l-1.425-4.44a6.938 6.938 0 01-1.25-1.177 6.267 6.267 0 01-1.45-3.081 4.298 4.298 0 01.071-1.709 4.297 4.297 0 01.73-1.548 1.877 1.877 0 011.335-.812 1.748 1.748 0 011.254.568c.47.534.833 1.152 1.071 1.821.464 1.09.937 2.224.894 3.405-.04.981-.407 2.076.171 2.874 1.891 2.615 3.324 5.62 4.822 8.477.382.68.708 1.391.974 2.125.366 1.188.539 2.428.513 3.671 0 2.323-.307 4.638-.627 6.942-.202 1.444-.467 3.016-1.563 3.972-1.14-1.453-2.285-2.871-3.737-4.006z"/><path fill="#A0616A" d="M253.488 190.459c3.265 0 5.911-2.635 5.911-5.886 0-3.252-2.646-5.887-5.911-5.887-3.264 0-5.91 2.635-5.91 5.887 0 3.251 2.646 5.886 5.91 5.886z"/><path fill="#A0616A" d="M256.35 190.772c.143 1.063.715 2.017 1.273 2.936.336.567.767 1.172 1.425 1.234a28.814 28.814 0 01-5.37 2.151 6.092 6.092 0 01-1.959.314 4.781 4.781 0 01-1.632-.417 8.1 8.1 0 01-4.612-5.367c.736.019 1.472-.037 2.196-.168.414-.031.799-.22 1.077-.527a1.7 1.7 0 00.222-.948c.029-.982.031-1.966 0-2.948a11.723 11.723 0 014.295.528c.57.184 1.14.406 1.709.55.359.091 1.348 0 1.613.208.435.292-.337 1.73-.237 2.454z"/><path fill="#F86D70" d="M253.753 194.349a3.697 3.697 0 01.881-2.102 3.728 3.728 0 011.95-1.192c.61-.136 1.271-.119 1.815-.42.934-.519 1.216-1.784 2.113-2.366.897-.581 2.171-.258 2.951.477.78.735 1.176 1.782 1.495 2.806.477 1.385.735 2.834.767 4.298.011.268-.031.535-.126.786a3.284 3.284 0 01-.632.786 3.462 3.462 0 00-.855 2.771 7.907 7.907 0 01-.253 2.781c-.57 2.502-1.139 5.002-1.598 7.527a4.63 4.63 0 00-.105 1.418c.088.684.467 1.331.384 2.014-.081.319-.14.642-.179.968.018.247.076.489.171.718.646 1.869 2.392 6.153 2.375 8.133-3.033-.774-7.505-.947-10.638-.961a23.906 23.906 0 00-2.581.113c-2.059.221-4.167.82-6.164.267-1.854-.514-3.495-1.986-5.412-1.802-.416-1.083.074-4.701.465-5.796a24.713 24.713 0 00.854-13.428c-.35-1.605.131-3.31-.259-4.905a2.941 2.941 0 00-.427-1.058 1.148 1.148 0 00-.975-.508 36.022 36.022 0 01.713-7.64c.187-.894.569-1.949 1.489-2.102.815-.139 1.498.547 2.154 1.049a5.792 5.792 0 002.278 1.067c.334.04.654.156.934.34.391.324.448.905.767 1.3.569.706 1.843.647 2.247 1.461.088.242.16.491.214.743.191.484.517.903.94 1.209a5.284 5.284 0 002.247 1.248z"/><path fill="#2D293D" d="M248.685 178.314c-.102-.389-.085-.851.228-1.112.157-.122.362-.167.53-.284a2.26 2.26 0 00.57-.718 3.1 3.1 0 013.871-.978c1.028.536 1.649 1.608 2.563 2.332.464.374 1.003.652 1.47 1.027a6.017 6.017 0 011.905 3.069c.303 1.185.48 2.399.527 3.621.049.366.034.738-.042 1.1a3.067 3.067 0 01-.419.851c-.94 1.419-2.179 2.707-3.731 3.439-1.553.732-3.441.851-4.974.085a.847.847 0 01-.381-.303 1.093 1.093 0 01-.06-.656 4.469 4.469 0 00-.496-2.511c-.285-.567-.712-1.055-.94-1.642a5.698 5.698 0 01-.267-2.037c-.026-1.785.096-3.564-.354-5.283z"/></svg>