<svg width="324" height="315" xmlns="http://www.w3.org/2000/svg"><defs><clipPath id="a"><path transform="matrix(-1 0 0 1 416.318 29.07)" fill="#fff" d="M0 0h400.747v285.638H0z"/></clipPath></defs><path fill="none" d="M-1-1h326v317H-1z"/><path fill="#F8F0FF" d="M151.833 291.687c80.289 0 145.377-65.088 145.377-145.378C297.21 66.019 232.122.932 151.833.932 71.543.932 6.456 66.02 6.456 146.31c0 80.29 65.087 145.378 145.377 145.378z"/><path fill="#3F3D56" d="M153.275 301.918c84.527 0 153.051-7.062 153.051-15.774 0-8.711-68.524-15.774-153.051-15.774-84.528 0-153.051 7.063-153.051 15.774 0 8.712 68.523 15.774 153.051 15.774z"/><g clip-path="url(#a)"><path fill="#F1DFFF" d="M93.802 180.298c-27.128 0-49.12-22.889-49.12-51.125s21.992-51.125 49.12-51.125c27.127 0 49.119 22.889 49.119 51.125s-21.992 51.125-49.12 51.125z"/><path fill="#3F3D56" d="M95.386 275.54h-2.773V135.123c0-3.952.466-7.888 1.387-11.722a50.204 50.204 0 011.386 11.722V275.54z"/><path fill="#3F3D56" d="M94.155 172.652l-1.46-2.453 20.516-13.233a8.48 8.48 0 014.745-1.362 8.986 8.986 0 01-3.284 3.816l-20.517 13.232zm-.965-13.336l1.46-2.453-14.119-9.106a5.084 5.084 0 00-3.753-.723 5.451 5.451 0 002.293 3.176l14.119 9.106zm0 56.073l1.46-2.453-14.119-9.107a5.079 5.079 0 00-3.753-.722 5.451 5.451 0 002.293 3.176l14.119 9.106z"/><path fill="#2F2E41" d="M170.18 227.827l.63 3.11.786 3.111 2.517 37.003-8.652.655-3.932-40.441.629-2.128 8.022-1.31z"/><path fill="#2F2E41" d="M177.574 265.975l3.618 5.73s10.067 8.514 2.831 9.005c-7.236.492-9.91-5.075-9.91-5.075s-2.517-.819-2.831-1.637c-.315-.819.629-8.023.629-8.023h5.663z"/><path fill="#2F2E41" d="M173.484 270.396s3.618 9.496 3.146 11.133c-.472 1.637-1.258 1.637-1.101 3.111.157 1.473.629 4.912-5.349 5.075-5.977.164-3.146-8.186-3.146-8.186l.787-11.133h5.663zm11.012-70.239s2.202 3.929 1.887 6.385c-.314 2.456-4.876 28.816-4.876 28.816l-3.618 32.091-8.023-.655 3.146-29.635-.786-23.577-1.416 17.355-9.281.328-5.505-24.723s4.09-6.876 4.876-7.368c.787-.491 23.596.983 23.596.983z"/><path fill="#FFB8B8" d="M173.563 150.466c-3.736 0-6.764-3.152-6.764-7.041 0-3.888 3.028-7.04 6.764-7.04s6.764 3.152 6.764 7.04c0 3.889-3.028 7.041-6.764 7.041z"/><path fill="#FFB8B8" d="M175.53 147.928l-.944 9.332-10.382-1.637 5.663-10.97 5.663 3.275z"/><path fill="#F1DFFF" d="M164.991 152.84s5.348 4.093 10.539 1.801l7.865 20.793v26.033s-11.798 3.602-18.404-.655c0 0-4.72-.983-5.506-.819-.787.164 2.831-44.37 2.831-44.37l2.675-2.783z"/><path fill="#575A89" d="M169.866 153.822l-3.618 5.403a6.759 6.759 0 00-.629 4.421c.472 2.619.944 36.838-3.46 38.148-4.405 1.31-7.236 1.146-7.236 1.146s3.932-19.647 2.516-23.085l-4.404-20.63 11.64-6.876s.728-3.111 1.937-1.392a11.326 11.326 0 003.254 2.865zm10.54 30.453l-5.374-31.435 5.374 2.947s6.134 2.62 7.393 5.73c1.258 3.111 6.292 18.01 6.292 18.01s-1.258 9.005-5.978 5.24c-4.719-3.766-3.618-5.567-3.618-5.567s4.09 17.355 3.461 17.846c-.629.491-.944 5.076-.944 5.076l-4.876-.983-1.73-16.864z"/><path fill="#FFB8B8" d="M186.541 166.757l-2.045-3.111s-4.625-9.66-7.976-6.386c-3.35 3.275 6.245 10.806 6.245 10.806l3.776-1.309zm-27.686 33.891l1.259 1.681-3.146 4.213-1.416-2.947 3.303-2.947z"/><path fill="#2F2E41" d="M176.275 137.594c.694.007 1.301.454 1.871.865.57.412 1.216.822 1.905.741.322-.06.625-.199.885-.405.26-.207.469-.475.609-.782a6.511 6.511 0 00.524-1.952l-.785.288.636-.752-6.757-2.137c-2.044-.646-4.355-1.269-6.228-.199a6.3 6.3 0 00-2.262 2.567 13.825 13.825 0 00-1.577 6.613c.032 2.309.637 4.57 1.756 6.564 1.037-.092 1.712-1.222 1.88-2.29.168-1.068.005-2.175.212-3.236.208-1.061.985-2.147 2.025-2.114l.547 1.215c-.35-.777 1.73-2.676 2.226-3.029a6.74 6.74 0 001.212-.919c.43-.467.538-1.047 1.321-1.038z"/><path fill="#575A89" d="M185.911 164.956l-3.775 2.455 3.775 16.373s5.978 7.695 8.18 0c1.843-6.441-5.13-15.291-7.452-18.005-.452-.528-.728-.823-.728-.823zm-29.258-6.058h-3.618s-3.146 6.385-3.461 9.823c-.314 3.439-.314 17.028-.314 17.028l6.135 18.992 4.719-3.602-3.933-11.297s.472-2.456 0-3.602 1.416-7.04 1.73-7.368c.315-.327-1.258-19.974-1.258-19.974z"/><path fill="#3F3D56" d="M242.126 82.784H199.56v-3.948h42.566v3.948zm0 14.544H199.56V93.38h42.566v3.948zm0 13.028H199.56v-3.948h42.566v3.948zm69.105 8.486L290.353 96.7h-23.602v-.825h23.933l.117.123 20.994 22.264-.564.58z"/><path fill="#B86AF5" d="M255.517 86.87c-2.573 0-4.658-2.17-4.658-4.848 0-2.677 2.085-4.848 4.658-4.848 2.572 0 4.657 2.17 4.657 4.848s-2.085 4.848-4.657 4.848zm0 14.543c-2.573 0-4.658-2.17-4.658-4.847 0-2.678 2.085-4.848 4.658-4.848 2.572 0 4.657 2.17 4.657 4.848 0 2.677-2.085 4.847-4.657 4.847zm0 13.029c-2.573 0-4.658-2.171-4.658-4.848s2.085-4.848 4.658-4.848c2.572 0 4.657 2.171 4.657 4.848s-2.085 4.848-4.657 4.848z"/><path fill="#3F3D56" d="M258.137 80.81a5.3 5.3 0 00-.834-2.861 5 5 0 00-2.221-1.897 4.768 4.768 0 00-2.859-.294c-.96.2-1.842.69-2.534 1.41a5.221 5.221 0 00-1.355 2.637 5.36 5.36 0 00.282 2.976 5.114 5.114 0 001.823 2.312 4.81 4.81 0 002.749.868 4.86 4.86 0 003.498-1.51 5.266 5.266 0 001.451-3.64zm-.582 0c0 .9-.256 1.778-.736 2.525a4.41 4.41 0 01-1.96 1.674 4.208 4.208 0 01-2.523.259 4.312 4.312 0 01-2.235-1.244 4.608 4.608 0 01-1.196-2.327 4.717 4.717 0 01.249-2.626c.33-.83.89-1.54 1.608-2.04a4.246 4.246 0 012.426-.766 4.284 4.284 0 013.086 1.333 4.648 4.648 0 011.281 3.212zm.582 14.544a5.3 5.3 0 00-.834-2.862 5 5 0 00-2.221-1.897 4.767 4.767 0 00-2.859-.293c-.96.199-1.842.69-2.534 1.41a5.221 5.221 0 00-1.355 2.637 5.36 5.36 0 00.282 2.976 5.114 5.114 0 001.823 2.311 4.81 4.81 0 002.749.868 4.856 4.856 0 003.498-1.51 5.266 5.266 0 001.451-3.64zm-.582 0c0 .899-.256 1.777-.736 2.525a4.41 4.41 0 01-1.96 1.674 4.209 4.209 0 01-2.523.258 4.312 4.312 0 01-2.235-1.244 4.608 4.608 0 01-1.196-2.327 4.718 4.718 0 01.249-2.626c.33-.83.89-1.54 1.608-2.04a4.245 4.245 0 012.426-.765 4.284 4.284 0 013.086 1.333 4.648 4.648 0 011.281 3.212zm.582 13.028c0-1.019-.29-2.014-.834-2.862a5 5 0 00-2.221-1.897 4.78 4.78 0 00-2.859-.293c-.96.199-1.842.69-2.534 1.41a5.22 5.22 0 00-1.355 2.637 5.36 5.36 0 00.282 2.976 5.117 5.117 0 001.823 2.312 4.81 4.81 0 002.749.868 4.863 4.863 0 003.498-1.51 5.268 5.268 0 001.451-3.641zm-.582 0c0 .899-.256 1.778-.736 2.525a4.413 4.413 0 01-1.96 1.674 4.211 4.211 0 01-2.523.259 4.32 4.32 0 01-2.235-1.244 4.612 4.612 0 01-1.196-2.327 4.717 4.717 0 01.249-2.626c.33-.831.89-1.54 1.608-2.04a4.248 4.248 0 012.426-.766 4.288 4.288 0 013.086 1.333 4.647 4.647 0 011.281 3.212zm-96.239-76.136h42.566v3.948h-42.566v-3.948zm0 14.544h42.566v3.948h-42.566V46.79zm0 13.028h42.566v3.948h-42.566v-3.948zM96.172 76.375L113.09 50.11h23.602v-.825h-23.933l-.116.123-17.034 26.387.564.58z"/><path fill="#B86AF5" d="M147.926 40.28c-2.572 0-4.657-2.17-4.657-4.848 0-2.677 2.085-4.848 4.657-4.848 2.573 0 4.658 2.17 4.658 4.848s-2.085 4.848-4.658 4.848zm0 14.544c-2.572 0-4.657-2.17-4.657-4.848s2.085-4.848 4.657-4.848c2.573 0 4.658 2.17 4.658 4.848 0 2.677-2.085 4.848-4.658 4.848zm0 13.028c-2.572 0-4.657-2.17-4.657-4.848 0-2.677 2.085-4.848 4.657-4.848 2.573 0 4.658 2.17 4.658 4.848s-2.085 4.848-4.658 4.848z"/><path fill="#3F3D56" d="M150.254 39.371a4.81 4.81 0 002.749-.868 5.114 5.114 0 001.823-2.311 5.35 5.35 0 00.281-2.976 5.22 5.22 0 00-1.354-2.638 4.892 4.892 0 00-2.534-1.41 4.767 4.767 0 00-2.859.294 5 5 0 00-2.221 1.897 5.3 5.3 0 00-.834 2.861 5.266 5.266 0 001.451 3.64 4.86 4.86 0 003.498 1.511zm0-9.695c.863 0 1.708.266 2.426.766a4.51 4.51 0 011.608 2.04c.33.83.417 1.743.248 2.625a4.599 4.599 0 01-1.195 2.327 4.311 4.311 0 01-2.235 1.244 4.208 4.208 0 01-2.523-.259 4.41 4.41 0 01-1.96-1.674 4.676 4.676 0 01-.736-2.525 4.648 4.648 0 011.281-3.212 4.284 4.284 0 013.086-1.332zm0 24.239a4.81 4.81 0 002.749-.868 5.114 5.114 0 001.823-2.312 5.35 5.35 0 00.281-2.976 5.22 5.22 0 00-1.354-2.637 4.892 4.892 0 00-2.534-1.41 4.768 4.768 0 00-2.859.293 5 5 0 00-2.221 1.897 5.3 5.3 0 00-.834 2.862 5.266 5.266 0 001.451 3.64 4.86 4.86 0 003.498 1.51zm0-9.696a4.25 4.25 0 012.426.766 4.52 4.52 0 011.608 2.04c.33.83.417 1.744.248 2.626a4.599 4.599 0 01-1.195 2.326 4.312 4.312 0 01-2.235 1.244 4.208 4.208 0 01-2.523-.258 4.41 4.41 0 01-1.96-1.674 4.676 4.676 0 01-.736-2.525 4.648 4.648 0 011.281-3.212 4.284 4.284 0 013.086-1.333zm0 22.724a4.81 4.81 0 002.749-.868 5.115 5.115 0 001.823-2.312 5.35 5.35 0 00.281-2.976 5.22 5.22 0 00-1.354-2.637 4.892 4.892 0 00-2.534-1.41 4.768 4.768 0 00-2.859.293 5 5 0 00-2.221 1.897 5.3 5.3 0 00-.834 2.862 5.266 5.266 0 001.451 3.64 4.86 4.86 0 003.498 1.51zm0-9.696a4.25 4.25 0 012.426.766 4.52 4.52 0 011.608 2.04c.33.83.417 1.744.248 2.626a4.599 4.599 0 01-1.195 2.327 4.311 4.311 0 01-2.235 1.244 4.208 4.208 0 01-2.523-.259 4.41 4.41 0 01-1.96-1.674 4.676 4.676 0 01-.736-2.525 4.648 4.648 0 011.281-3.212 4.285 4.285 0 013.086-1.333zm86.056 130.089h-29.728v-2.757h29.728v2.757zm0 10.157h-29.728v-2.757h29.728v2.757zm0 9.1h-29.728v-2.758h29.728v2.758zm48.265 5.926l-14.582-15.464h-16.485v-.576h16.716l.081.085 14.663 15.55-.393.405z"/><path fill="#B86AF5" d="M245.662 190.189c-1.797 0-3.253-1.515-3.253-3.385 0-1.87 1.456-3.386 3.253-3.386 1.796 0 3.253 1.516 3.253 3.386s-1.457 3.385-3.253 3.385zm0 10.158c-1.797 0-3.253-1.516-3.253-3.386s1.456-3.386 3.253-3.386c1.796 0 3.253 1.516 3.253 3.386s-1.457 3.386-3.253 3.386zm0 9.099c-1.797 0-3.253-1.516-3.253-3.386s1.456-3.385 3.253-3.385c1.796 0 3.253 1.515 3.253 3.385 0 1.87-1.457 3.386-3.253 3.386z"/><path fill="#3F3D56" d="M247.491 185.957c0-.711-.202-1.407-.582-1.998a3.49 3.49 0 00-1.551-1.325 3.325 3.325 0 00-1.997-.205 3.414 3.414 0 00-1.77.985 3.653 3.653 0 00-.946 1.841 3.735 3.735 0 00.197 2.079 3.575 3.575 0 001.273 1.614 3.356 3.356 0 001.92.607 3.394 3.394 0 002.443-1.055 3.678 3.678 0 001.013-2.543zm-.406 0a3.27 3.27 0 01-.514 1.764 3.074 3.074 0 01-1.369 1.169c-.557.24-1.17.303-1.762.18a3.008 3.008 0 01-1.561-.868 3.218 3.218 0 01-.835-1.625 3.29 3.29 0 01.174-1.834c.23-.58.621-1.076 1.123-1.425a2.962 2.962 0 011.694-.535 2.995 2.995 0 012.156.931c.571.595.893 1.402.894 2.243zm.406 10.158c0-.712-.202-1.408-.582-1.999a3.49 3.49 0 00-1.551-1.325 3.332 3.332 0 00-1.997-.205 3.42 3.42 0 00-1.77.985 3.652 3.652 0 00-.946 1.842 3.732 3.732 0 00.197 2.078 3.577 3.577 0 001.273 1.615 3.362 3.362 0 001.92.606 3.394 3.394 0 002.443-1.055 3.676 3.676 0 001.013-2.542zm-.406 0c0 .627-.179 1.241-.514 1.763a3.074 3.074 0 01-1.369 1.169c-.557.24-1.17.303-1.762.181a3.017 3.017 0 01-1.561-.869 3.218 3.218 0 01-.835-1.625 3.29 3.29 0 01.174-1.834c.23-.58.621-1.076 1.123-1.425a2.962 2.962 0 011.694-.535 2.995 2.995 0 012.156.931c.571.595.893 1.402.894 2.244zm.406 9.099c0-.712-.202-1.407-.582-1.999a3.502 3.502 0 00-1.551-1.325 3.332 3.332 0 00-1.997-.204 3.412 3.412 0 00-1.77.984 3.652 3.652 0 00-.946 1.842 3.736 3.736 0 00.197 2.079 3.575 3.575 0 001.273 1.614 3.362 3.362 0 001.92.606 3.39 3.39 0 002.443-1.055 3.674 3.674 0 001.013-2.542zm-.406 0c0 .628-.179 1.241-.514 1.763a3.074 3.074 0 01-1.369 1.169 2.929 2.929 0 01-1.762.181 3.01 3.01 0 01-1.561-.869 3.214 3.214 0 01-.835-1.625 3.29 3.29 0 01.174-1.834c.23-.58.621-1.076 1.123-1.424a2.962 2.962 0 011.694-.535 2.994 2.994 0 012.156.93 3.25 3.25 0 01.894 2.244z"/></g></svg>