<svg width="185" height="160" fill="none" xmlns="http://www.w3.org/2000/svg"><path d="M68.847 0s-8.812 11.517 4.072 28.918 23.494 32.083 19.214 42.931c0 0-19.437-32.306-35.248-32.767-15.811-.46-5.41-19.66 11.962-39.082z" fill="#EAA7FF"/><path opacity=".1" d="M68.847 0a14.265 14.265 0 00-1.798 3.611c-15.425 18.13-23.657 35.055-8.812 35.471 13.82.402 30.39 25.114 34.357 31.34-.127.504-.28 1-.46 1.487 0 0-19.438-32.307-35.25-32.767-15.81-.46-5.408-19.72 11.963-39.142z" fill="#000"/><path d="M52.502 14.682c0 4.057.46 7.34 1.01 7.34s1.025-3.283 1.025-7.34-.564-2.14-1.13-2.14c-.564 0-.905-1.917-.905 2.14z" fill="#EAA7FF"/><path d="M46.87 19.526c3.551 1.932 6.657 3.106 6.925 2.616.267-.49-2.393-2.467-5.945-4.458-3.551-1.992-2.154-.535-2.422 0-.267.535-2.125-.104 1.442 1.842zM115.419 0s8.812 11.517-4.072 28.918-23.494 32.083-19.2 42.931c0 0 19.423-32.306 35.249-32.767 15.826-.46 5.35-19.66-11.977-39.082z" fill="#EAA7FF"/><path opacity=".1" d="M115.419 0a14.301 14.301 0 011.798 3.611c15.425 18.13 23.657 35.055 8.812 35.471-13.805.402-30.39 25.114-34.357 31.34.125.506.284 1.003.476 1.487 0 0 19.422-32.307 35.248-32.767 15.826-.46 5.35-19.72-11.977-39.142z" fill="#000"/><path d="M131.796 14.682c0 4.057-.446 7.34-1.01 7.34-.565 0-1.026-3.283-1.026-7.34s.58-2.14 1.13-2.14c.55 0 .906-1.917.906 2.14z" fill="#EAA7FF"/><path d="M137.414 19.526c-3.552 1.932-6.658 3.106-6.925 2.616-.268-.49 2.392-2.467 5.944-4.458 3.551-1.992 2.154-.535 2.422 0 .267.535 2.125-.104-1.441 1.842z" fill="#EAA7FF"/><path opacity=".1" d="M92.133 160C41.25 160 0 153.673 0 145.868s41.25-14.132 92.133-14.132c50.884 0 92.134 6.327 92.134 14.132S143.017 160 92.134 160z" fill="#E0A7FF"/><path d="M44.715 56.32l.446 3.596.624 5.082.253 2.125.624 5.082.267 2.126.61 5.067 7.058 57.806c.624 5.157 9.05 9.184 19.23 9.184h36.63c10.179 0 18.59-4.027 19.229-9.184l7.059-57.806.624-5.067.252-2.126.624-5.082.268-2.125.609-5.082.446-3.596c.342-2.972-4.205-5.38-9.971-5.38H54.672c-5.751 0-10.313 2.452-9.957 5.38z" fill="#65617D"/><path d="M45.162 59.916L45.77 65h92.728l.624-5.082h-93.96zm.875 7.208l.61 5.082h90.974l.624-5.082H46.037zm.877 7.206l.624 5.083h89.206l.61-5.082h-90.44z" fill="#9D9CB5"/></svg>