<svg width="22" height="22" fill="none" xmlns="http://www.w3.org/2000/svg"><path opacity=".75" d="M10.537 7.025a3.522 3.522 0 00-3.515 3.515 3.522 3.522 0 003.515 3.515 3.522 3.522 0 003.515-3.515 3.522 3.522 0 00-3.515-3.515zM21.08 10.54c0-1.456.013-2.898-.069-4.35-.082-1.688-.466-3.186-1.7-4.42C18.072.533 16.578.151 14.89.07 13.435-.013 11.993 0 10.54 0 9.084 0 7.642-.011 6.19.07c-1.689.08-3.187.465-4.42 1.7C.533 3.007.151 4.502.07 6.19-.013 7.644 0 9.086 0 10.54c0 1.453-.012 2.898.07 4.35.081 1.688.466 3.186 1.7 4.42 1.237 1.236 2.732 1.618 4.42 1.7 1.455.082 2.897.069 4.35.069 1.455 0 2.898.013 4.35-.069 1.688-.082 3.186-.466 4.42-1.7 1.236-1.237 1.618-2.732 1.7-4.42.084-1.453.069-2.895.069-4.35zm-10.542 5.408A5.4 5.4 0 015.13 10.54a5.4 5.4 0 015.408-5.408 5.4 5.4 0 015.408 5.408 5.4 5.4 0 01-5.408 5.408zm5.63-9.775a1.261 1.261 0 01-1.264-1.263c0-.698.565-1.263 1.263-1.263a1.261 1.261 0 01.894 2.157 1.261 1.261 0 01-.893.37z" fill="#fff"/></svg>