<svg width="927" height="745" xmlns="http://www.w3.org/2000/svg"><defs><linearGradient y2="0" x2=".505" y1="1" x1=".493" id="a"><stop stop-opacity=".25" stop-color="gray"/><stop stop-opacity=".12" stop-color="gray" offset=".54"/><stop stop-opacity=".1" stop-color="gray" offset="1"/></linearGradient></defs><path fill="none" d="M-1-1h929v747H-1z"/><path fill="#B04FFD" d="M167.11 390.308s9.06-6.411 18.372-2.363c0 0-2.643 5.536-14.274 5.398l-4.098-3.035zm-1.125.367s-2.473 10.818 4.828 17.89c0 0 4.099-4.56-.467-15.254l-4.361-2.636zm-11.869-9.926s.384-9.142 21.078-6.785c0 0 .287 5.884-6.848 8.904-7.135 3.02-10.532.8-14.23-2.12zm-1.279-.026s-8.622 3.082-.225 22.15c0 0 5.698-1.471 6.466-9.184.767-7.713-2.367-10.281-6.241-12.966zm-12.08-12.555s-1.652-14.975 19.433-14.12c0 0 1.93 13.54-15.6 17.605l-3.833-3.485zm-14.459-16.494s2.336-17.1 23.566-12.72c0 0 .557 14.707-19.97 16.666l-3.596-3.946zm-10.732-17.194s4.292-16.758 25.305-12.44c0 0-4.44 15.069-23.818 15.46l-1.487-3.02zm-10.211-16.79s4.166-17.377 24.437-12.838c0 0-6.187 16.556-23.035 15.726l-1.402-2.888zm-6.751-16.048s2.952-21.151 21.852-17.107c0 0-4.83 19.313-20.39 20.117l-1.462-3.01zm-6.472-19.448s3.667-21.338 22.845-15.788c0 0-6.802 20.276-21.426 18.676l-1.42-2.888zm-4.209-18.13s6.216-21.42 20.937-21.324c0 0-6.354 22.584-19.57 25.534l-1.367-4.21zm-2.873-17.782s6.704-25.767 18.719-24.182c0 0-4.58 19.67-18.167 28.144l-.551-3.962zm-1.988-21.258s6.365-21.488 18.135-22.724c0 0-4.126 21.075-17.697 28.242l-.438-5.518zm-2.074-19.779s8.114-21.573 15.896-22.311c0 0-3.143 21.08-15.003 25.779l-.893-3.468zm-1.572-18.436s4.66-23.3 12.382-25.463c0 0-.45 18.938-11.548 27.164l-.834-1.701zm-3.713-24.07s5.095-18.606 11.307-21.624c0 0-.545 21.748-9.724 26.045l-1.583-4.421zm-2.951-15.8l-2.202-32.447s12.56 24.138 3.256 38.152l-1.054-5.705zm-10.167-31.99s-9.25-23.45-11.331-24.705c0 0 17.139 14.89 16.153 34.704l-4.822-10zm77.597 253.128s-15-1.471-13.862 19.608c0 0 13.563 1.759 17.399-15.828l-3.537-3.78zM125.58 351.13s-17.248.499-15.147 22.046c0 0 14.56 2.12 18.69-18.083l-3.543-3.963zm-10.133-15.241s-15.9-6.837-25.305 12.44c0 0 14.662 5.646 26.784-9.413l-1.48-3.027zm-10.438-18.029s-16.28-7.298-25.1 11.53c0 0 16.893 5.206 26.519-8.65l-1.42-2.88z"/><path fill="#B04FFD" d="M98.82 302.087s-15.908-14.241-27.735 1.072c0 0 16.158 11.615 28.55 2.187l-.815-3.26zm-5.833-20.428s-16.01-14.572-27.72 1.577c0 0 17.827 11.807 28.38 1.55l-.66-3.127zm-3.494-18.273s-12.57-18.432-26.517-13.781c0 0 13.058 19.53 26.525 18.21l-.008-4.43zm-4.083-17.233s-12.834-23.323-24.084-18.84c0 0 9.274 17.944 24.514 22.81l-.43-3.97zm-1.565-22.369s-12.996-18.26-24.522-15.605c0 0 10.74 18.596 25.9 20.973l-1.378-5.368zm-1.558-19.002s-10.276-20.628-18.09-20.561c0 0 5.282 20.65 17.556 24.099l.534-3.538zm-2.501-18.442S68.424 165.48 60.4 165.694c0 0 6.054 17.959 19.087 22.525l.298-1.877zm-2.332-22.39s-8.555-17.295-15.227-19.065c0 0 4.686 21.257 14.495 23.75l.732-4.685z"/><path fill="#B04FFD" d="M71.779 146.359l-18.714-26.593s5.437 26.672 21.486 31.69l-2.772-5.097zM58.58 117.266s-21.157-13.636-22.013-15.93c0 0 11.194 19.712 30.892 22.612l-8.88-6.682zm-1.452-6.394S32.584 88.759 26.51 88.985c0 0 19.66.255 31.199 20.655l-.581 1.232z"/><path fill="#444053" d="M77.328 167.429l-.871.142c-5.606-34.877-12.803-55.356-20.254-57.68l.258-.868c7.885 2.448 15.127 22.63 20.867 58.406z"/><path fill="#444053" d="M86.625 250.9l-1.305.15c-.382-3.256-.71-6.6-.96-9.924-2.188-28.941-4.99-55.493-8.18-75.365l.729-.962c3.198 19.908 6.569 47.246 8.765 76.23.25 3.308.57 6.625.95 9.872z"/><path fill="#444053" d="M192.1 406.185c-.235-.097-23.634-9.65-48.377-33.441a190.237 190.237 0 01-36.121-47.803c-11.797-22.176-19.44-49.662-22.58-76.494l1.389.6c7.04 60.229 35.88 100.628 58.442 122.38 24.5 23.583 47.657 33.038 47.874 33.126l-.627 1.632z"/><g opacity=".7"><path fill="#B04FFD" d="M203.834 335.399s10.556-3.418 18.252 3.214c0 0-4.177 4.5-15.24.902l-3.012-4.116zm-1.184.011s-5.572 9.599-.71 18.51c0 0 5.24-3.127 4.099-14.697l-3.388-3.813zm-8.39-13.004s3.097-8.613 22.145-.21c0 0-1.47 5.709-9.191 6.464-7.721.755-10.278-2.384-12.953-6.254zm-1.205-.399s-9.138.382-6.806 21.076c0 0 5.888.296 8.915-6.847 3.026-7.142.792-10.523-2.11-14.23zm-7.79-15.61s2.863-14.774 22.745-7.697c0 0-2.176 13.499-20.126 12.167l-2.62-4.47zm-8.895-20.063s7.313-15.618 26.253-5.135c0 0-3.842 14.203-24.028 9.968l-2.225-4.833zm-5.141-19.562s9.09-14.737 27.867-4.352c0 0-8.777 13.052-27.34 7.67l-.527-3.318zm-4.75-19.072s9.138-15.33 27.166-4.983c0 0-10.827 13.962-26.663 8.16l-.503-3.177zm-1.674-17.332s9.109-19.314 25.967-9.818c0 0-10.357 16.992-25.448 13.136l-.52-3.318zm-.385-20.492s9.85-19.283 26.499-8.275c0 0-12.518 17.328-26.004 11.454l-.495-3.18zm1.39-18.584s12.29-18.6 26.324-14.131c0 0-12.793 19.7-26.281 18.56l-.043-4.43zm2.575-17.812s14.054-22.6 25.065-17.514c0 0-10.23 17.419-25.714 21.46l.649-3.945zm4.377-20.88s12.48-18.624 24.074-16.302c0 0-10.204 18.898-25.29 21.698l1.216-5.396zm3.916-19.51s14.159-18.187 21.805-16.558c0 0-9.274 19.19-21.991 20.134l.186-3.575zm3.978-18.063s11.38-20.814 19.4-20.628c0 0-6.073 17.948-19.107 22.509l-.293-1.881zm3.613-24.087s10.406-16.244 17.233-17.3c0 0-6.994 20.614-17.026 22.008l-.207-4.708zm1.886-15.963l7.555-31.642s4.81 26.78-8.25 37.362l.695-5.72zm-.167-33.558s-1.862-25.137-3.47-26.991c0 0 11.946 19.28 5.102 37.945l-1.632-10.954zm-1.251 264.74s-13.887-5.86-19.062 14.609c0 0 12.417 5.71 21.314-9.941l-2.252-4.668zm-8.903-20.524s-16.617-4.648-21.022 16.547c0 0 13.274 6.359 23.23-11.705l-2.208-4.842zm-5.134-17.561s-13.141-11.257-27.867 4.352c0 0 12.315 9.756 28.378-1.034l-.511-3.318zm-4.596-20.316s-13.382-11.807-27.393 3.537c0 0 14.576 10.004 27.888-.358l-.495-3.18z" opacity=".7"/><path fill="#B04FFD" d="M164.89 230.864s-10.958-18.336-26.806-7.24c0 0 11.974 15.905 26.613 10.597l.194-3.357zm.508-21.244s-10.957-18.674-26.932-6.726c0 0 13.51 16.61 26.626 9.927l.306-3.2zm2.092-18.491s-6.512-21.33-21.21-21.007c0 0 6.654 22.539 19.907 25.28l1.304-4.273zm1.226-17.664s-5.31-26.09-17.383-25.15c0 0 3.52 19.892 16.62 29.078l.763-3.928zm5.174-21.815s-6.973-21.305-18.775-22.201c0 0 4.723 20.952 18.49 27.733l.286-5.532zm4.164-18.611s-3.677-22.748-11.164-25.01c0 0-1.091 21.283 9.596 28.237l1.568-3.227zm3.093-18.349s-4.64-23.301-12.362-25.478c0 0 .437 18.944 11.525 27.179l.837-1.7zm4.427-22.037s-3.02-19.055-8.863-22.734c0 0-1.867 21.688 6.802 27.01l2.06-4.276z" opacity=".7"/><path fill="#B04FFD" d="M185.404 74.102l-9.962-30.961s-2.77 27.076 11.095 36.649l-1.133-5.688zm-3.946-31.665s-16.182-19.332-16.29-21.76c0 0 4.855 22.154 22.762 30.776l-6.472-9.016zm.517-6.531s-16.86-28.42-22.723-30.02c0 0 18.687 6.105 23.599 28.989l-.876 1.03z" opacity=".7"/><path fill="#444053" d="M184.44 95.847l-.87-.127c5.018-34.954 4.249-56.657-2.18-61.088l.5-.72c6.819 4.713 7.694 26.129 2.55 61.935z" opacity=".7"/><path fill="#444053" d="M168.469 178.405l-1.294-.242c.61-3.225 1.29-6.51 2.04-9.767 6.527-28.281 11.753-54.456 14.61-74.38l.988-.707c-2.867 19.993-7.785 47.066-14.311 75.39-.75 3.188-1.43 6.456-2.033 9.706z" opacity=".7"/><path fill="#444053" d="M222.982 357.993c-.191-.157-19.69-16.237-36.27-46.324a190.08 190.08 0 01-20.252-56.383c-4.666-24.684-3.794-53.198 1.2-79.748l1.143.98c-11.183 59.6 4.33 106.76 19.429 134.246 16.356 29.799 35.646 45.712 35.845 45.87l-1.095 1.359z" opacity=".7"/></g><path fill="#B04FFD" d="M824.692 660.662s-36.771-2.435-32.581 23.369c0 0-.897 4.545 3.224 6.639 0 0 .08-1.913 3.783-1.24 1.317.23 2.657.303 3.992.216a8.368 8.368 0 004.9-1.99s10.362-4.211 14.48-21.082c0 0 2.998-3.671 2.89-4.62l-6.227 2.573s2.096 4.493.404 8.198c0 0-.153-8.031-1.346-7.838-.244.042-3.237 1.538-3.237 1.538s3.608 7.852.79 13.473c0 0 1.102-9.607-1.96-12.923l-4.364 2.532s4.216 8.082 1.289 14.633c0 0 .799-10.08-2.214-14.02l-3.977 3.065s3.964 7.966 1.487 13.398c0 0-.253-11.738-2.344-12.637 0 0-3.498 3.033-4.02 4.326 0 0 2.708 5.775.993 8.81 0 0-.998-7.836-1.86-7.841 0 0-3.51 5.156-3.861 8.678 0 0 .179-5.28 3.03-9.205a10.349 10.349 0 00-5.297 2.7s.56-3.658 6.113-3.948c0 0 2.877-3.906 3.644-4.146 0 0-5.574-.493-8.958.983 0 0 2.995-3.462 9.98-1.83l3.926-3.17s-7.328-1.043-10.441.044c0 0 3.594-3.033 11.498-.76l4.269-2.514s-6.24-1.386-9.965-.93c0 0 3.945-2.1 11.222.24l3.053-1.347s-4.58-.897-5.92-1.08c-1.337-.181-1.405-.52-1.405-.52a15.857 15.857 0 018.59 1.007s6.53-2.371 6.42-2.781z"/><path fill="#B04FFD" d="M799.139 697.34c14.376.085 26.042-1.818 26.056-4.25.014-2.43-11.628-4.47-26.004-4.554-14.376-.085-26.042 1.817-26.056 4.249-.015 2.43 11.628 4.47 26.004 4.555z" opacity=".1"/><path fill="#B04FFD" d="M895.647 593.157s-20.725-1.366-18.348 13.177a3.547 3.547 0 001.814 3.744s.05-1.08 2.136-.701a9.234 9.234 0 002.252.126 4.655 4.655 0 002.756-1.123s5.843-2.376 8.17-11.89c0 0 1.692-2.07 1.625-2.6l-3.49 1.476s1.178 2.53.226 4.62c0 0-.086-4.532-.757-4.423-.14-.001-1.823.859-1.823.859s2.027 4.415.46 7.598c0 0 .623-5.416-1.106-7.28l-2.47 1.42s2.374 4.557.725 8.254c0 0 .45-5.68-1.25-7.908l-2.237 1.727s2.227 4.494.826 7.557c0 0-.144-6.613-1.324-7.125a13.907 13.907 0 00-2.268 2.414s1.529 3.263.562 4.972c0 0-.565-4.415-1.044-4.435 0 0-1.966 2.912-2.178 4.912a10.63 10.63 0 011.71-5.21 5.851 5.851 0 00-2.993 1.522s.317-2.06 3.493-2.224c0 0 1.623-2.21 2.05-2.337 0 0-3.14-.28-5.05.553 0 0 1.69-1.94 5.627-1.037l2.22-1.78s-4.138-.59-5.89.027c0 0 2.029-1.728 6.484-.432l2.41-1.421a21.982 21.982 0 00-5.626-.521s2.225-1.178 6.324.142l1.745-.764s-2.607-.52-3.337-.603c-.731-.082-.8-.3-.8-.3a8.974 8.974 0 014.852.568s3.584-1.32 3.524-1.554z"/><path fill="#B04FFD" d="M881.248 613.84c8.106.048 14.684-1.024 14.692-2.393.008-1.37-6.557-2.52-14.663-2.566-8.106-.048-14.683 1.024-14.691 2.393-.01 1.369 6.556 2.518 14.662 2.566z" opacity=".1"/><path fill="#B04FFD" d="M773.173 605.052s-25.03-1.661-22.175 15.905a4.27 4.27 0 002.192 4.519s.007-1.296 2.57-.854c.9.155 1.813.207 2.724.155a5.722 5.722 0 003.33-1.355s7.057-2.865 9.865-14.36c0 0 2.042-2.493 1.959-3.137l-4.231 1.776s1.427 3.062.272 5.587c0 0-.098-5.473-.917-5.347-.165-.001-2.198 1.04-2.198 1.04s2.448 5.33.555 9.173c0 0 .75-6.538-1.332-8.795l-2.986 1.723s2.865 5.498.873 9.967c0 0 .545-6.862-1.501-9.58l-2.71 2.08s2.7 5.42 1.017 9.125c0 0-.171-7.988-1.603-8.605 0 0-2.37 2.065-2.732 2.916 0 0 1.839 3.935.67 5.998 0 0-.674-5.32-1.256-5.35 0 0-2.37 3.51-2.645 5.928a12.85 12.85 0 012.064-6.27 7.072 7.072 0 00-3.604 1.84s.38-2.494 4.192-2.69c0 0 1.956-2.66 2.479-2.821 0 0-3.792-.335-6.095.669 0 0 2.033-2.346 6.785-1.248l2.675-2.15s-4.981-.717-7.108.027c0 0 2.448-2.065 7.833-.52l2.908-1.722s-4.25-.947-6.792-.632c0 0 2.688-1.42 7.638.167l2.085-.84s-3.111-.628-4.024-.73c-.913-.1-.955-.352-.955-.352a10.814 10.814 0 015.85.687s4.405-1.645 4.328-1.924z"/><path fill="#B04FFD" d="M755.782 630.015c9.787.057 17.729-1.236 17.739-2.89.01-1.651-7.917-3.038-17.704-3.096-9.787-.057-17.73 1.236-17.74 2.889-.01 1.653 7.917 3.039 17.705 3.097z" opacity=".1"/><path d="M563.722 612.92l-87.467 33.252-127.848 48.552c-4.76-8.963-11.786-21.228-20.487-35.791-29.912-50.246-79.444-128.412-123.533-197.107-49.692-77.403-92.461-142.766-92.461-142.766l31.295-8.873 255.62-72.51L563.72 612.92z" opacity=".1"/><path fill="#fff" d="M565.498 606.84l-87.468 33.252-127.848 48.552c-4.758-8.963-11.785-21.228-20.487-35.791-29.912-50.246-79.443-128.412-123.532-197.108C156.47 378.343 113.7 312.979 113.7 312.979l31.295-8.872 255.62-72.51L565.499 606.84z"/><path d="M565.497 606.84l-87.467 33.252a656.3 656.3 0 01-148.335 12.76c-29.912-50.244-79.443-128.411-123.532-197.106l-61.167-151.64 255.62-72.51 164.88 375.245z" opacity=".1"/><path fill="#BE6CFF" d="M630.547 586.22s-136.051 79.4-338.356 60.114L133.12 251.983l77.412-12.83 267.6-44.337L627.565 578.6l2.982 7.62z"/><path d="M627.564 578.6c-31.937 1.378-68.86 1.013-106-3.634-40.182-4.951-80.527-14.95-115.135-33.024-28.9-15.108-53.591-31.48-75.095-51.086-55.913-50.894-90.28-123.43-120.767-251.702l267.6-44.337L627.565 578.6z" opacity=".1"/><path fill="#fff" d="M727.144 557.19s-100.094 19.006-201.691 6.34c-40.183-4.977-80.571-14.95-115.135-33.023-28.901-15.11-53.591-31.48-75.096-51.086-69.231-63.05-105.39-159.155-142.13-353.116 0 0 165.933 41.075 330.626-45.794 0 0 53.342 345.947 203.426 476.68z"/><path d="M525.453 563.53c-40.183-4.977-80.571-14.95-115.135-33.024-28.901-15.108-53.591-31.48-75.096-51.085 59.266-4.463 67.974-36.803 67.974-36.803C446.703 512.58 525.453 563.53 525.453 563.53z" opacity=".1"/><path fill="#B04FFD" d="M278.602 197.94s89.2 10.713 173.022-35.74l5.616 18.417S377.08 220 278.475 219.42l.127-21.48z" opacity=".3"/><path d="M278.07 288.672s88.78-6.638 187.849-53.802l3.296 7.658s-36.626 45.539-191.206 56.584l.06-10.44zm10.31 35.453s88.78-6.638 187.849-53.793l3.296 7.658s-36.618 45.582-191.207 56.636l.062-10.501zm9.397 38.205s88.78-6.637 187.849-53.793l3.296 7.658s-36.67 45.557-191.207 56.637l.062-10.501zm11.232 32.762s88.78-6.638 187.849-53.793l3.296 7.658s-36.618 45.565-191.207 56.645l.062-10.51z" opacity=".3"/><path d="M319.325 430.58s88.78-6.638 187.849-53.793l3.296 7.658s-36.626 45.565-191.207 56.636l.062-10.501z" opacity=".1"/><path fill="#B04FFD" d="M505.549 211.278l-24.882 8.307 8.308 24.882 24.88-8.307-8.306-24.882zm13.907 37.024l-24.881 8.307 8.307 24.882 24.882-8.308-8.308-24.881zm22.229 71.211l-24.881 8.307 8.307 24.882 24.882-8.308-8.308-24.881zm12.77 38.225l-24.881 8.307 8.307 24.88 24.88-8.306-8.306-24.881zm-23.705-70.993l-24.881 8.307 8.307 24.882 24.88-8.308-8.306-24.881z" opacity=".3"/><path fill="url(#a)" d="M789.753 395.5l-.926-.875c2.404-.473 4.668-.677 4.668-.677s-8.064-29.854-21.9-39.88c-6.843-4.956-12.52-13.176-16.524-20.221a304.264 304.264 0 00-24.572-36.485l-2.487-3.173-1.071-1.381c1.519-2.27 3.376-4.426 3.183-7.072a.114.114 0 010-.052c.009-.14.01-.278.002-.417a4.8 4.8 0 00-.168-.967l-.096.147c-1.155-3.417-5.661-4.95-9-6.848-7.804-4.457-11.096-14.116-12.714-23.086-1.264-6.968-2.297-14.804-7.717-19.317-3.463-2.9-8.19-3.876-11.68-6.76-3.307-2.733-5.135-6.86-7.201-10.656-3.443-6.327-8.002-12.227-14.044-16.03-6.041-3.802-13.732-5.3-20.403-2.817-2.554.96-4.877 2.46-7.407 3.498-6.28 2.573-13.454 2.183-19.673 4.904-7.66 3.348-12.671 10.818-17.254 17.908-2.37 3.666-6.091 9.03-8.22 14.438l.004-.566a20.723 20.723 0 00-1.663 7.525 11.317 11.317 0 00.338 3.273c.919 3.485 3.709 5.425 7.025 6.784.185 1.108.435 2.205.746 3.284a32.189 32.189 0 0020.668 21.359c.286.106.582.177.868.266.238.69.584 1.338 1.024 1.92 2.755 3.496 8.329 2.537 11.963.027.148-.095.288-.216.428-.32.02.493.07.985.148 1.472.076.418.134.87.219 1.245 3.159 17.602 11.455 27.143 11.455 27.143s.767 1.17 2.018 3.109c-.72 9.696 3.658 18.56 8.733 25.42-4.426 2.524-13.964 7.462-19.843 7.01 0 0-21.627 2.665-24.124 1.25-.347-.194-.68.066-.996.655-5.93-3.663-24.894-14.232-26.6-.817-1.542 12.17 15.788 13.83 24.043 13.94-.395 3.564-.62 6.417-.62 6.417l35.518-2.22 18.504-2.613c-2.061 2.693-4.38 5.09-6.641 6.25 0 0-16.792 13.43-19.681 13.536-.41-.002-.542.406-.484 1.059-7.03-.042-28.9.847-22.907 13.063 5.442 11.073 20.99 3.525 28.028-.653 1.634 3.22 3.028 5.743 3.028 5.743l28.769-20.233 6.234-5.184a22.103 22.103 0 006.175-1.155c0 .078.06.157.086.226.217.642.379 1.3.484 1.969 1.68 10.007-4.302 33.288-4.302 33.288s-13.052 32.715-6.901 37.223c6.15 4.508 1.472 23.35 1.472 23.35a34.901 34.901 0 003.676 5.138 15.49 15.49 0 002.155 2.075c-.292.78-.535 1.578-.728 2.388a19.51 19.51 0 00.947 12.047c4.185 10.326 1.513 25.239 1.513 25.239l-8.665 56.257c-4-.632-9.163-1.167-11.093-.065-2.96 1.644-2.042 10.028 4.784 13.67a17.638 17.638 0 01-7.067 3.204c-6.098 1.356-10.383 2.218-13.205 2.74-.183 0-14.597-3.27-18.316-1.186-3.718 2.084-2.003 13.77 8.524 16.694 10.302 2.853 48.757 7.177 59.85 5.572l.706-.118c9.433-1.806 1.232-14.235.197-15.746-.067-.505-.124-1.036-.191-1.611a81.875 81.875 0 01-.348-4.352c10.504 1.028 20.87 1.559 25.634.873.226 0 .436-.067.627-.11 8.353-1.603 1.11-12.591.178-13.92-.04-.335-.08-.692-.124-1.07v-.095c.002-.252-.058-.523-.082-.784-.025-.261.002-.443-.066-.68-.068-.234.003-.416-.057-.634-.032-.43-.064-.873-.096-1.332l.003-.565c.002-.348-.04-.697-.055-1.053 0-.192.002-.383.004-.583.003-.522.006-1.062-.043-1.601l.002-.444.008-1.322c0-.21.003-.418.004-.636l.008-1.391c0-.157.002-.305.003-.462.003-.582.059-1.182.097-1.783l.056-.643c.003-.444.075-.87.12-1.322.002-.217.004-.435.075-.652.073-.608.155-1.217.245-1.834 0-.183.063-.365.09-.548.08-.46.163-.93.252-1.4.002-.225.09-.46.144-.694.107-.504.223-1.008.348-1.512 0-.14.062-.278.098-.417.16-.608.338-1.207.524-1.807.062-.208.133-.416.204-.625.15-.451.309-.868.477-1.337l.212-.555c.239-.591.495-1.172.759-1.736.07-.147.15-.295.229-.442.22-.451.457-.868.704-1.336l.298-.512a25.46 25.46 0 011.054-1.638c9.65-13.585 12.328-39.88 12.127-45.604-.202-5.726 1.243-17.594 2.967-19.341 1.155-1.168 7.89-10.394 11.926-17.417a50.963 50.963 0 001.865-3.565 112.763 112.763 0 004.726-1.712 40.366 40.366 0 01-1.361-11.223c.113-7.403 2.206-17.144 10.657-25.011 12.475-11.62 14.274-23.198 14.466-27.651l.005-.827a18.266 18.266 0 00-.063-1.218z"/><path fill="#A5636D" d="M756.263 468.272a149.456 149.456 0 01-11.411 17.22c-1.646 1.73-3.03 13.477-2.836 19.124.193 5.648-2.352 31.664-11.575 45.095-9.223 13.43-4.662 36.766-4.662 36.766l-14.62 5.03-17.531-.103-12.054-3.682-3.132-8.805s4.249-.628 14.808-3.072a13.69 13.69 0 007.572-4.327 13.694 13.694 0 003.42-8.023l7.707-51.66s2.26-13.037-1.288-22.09a17.968 17.968 0 011.276-15.74l.237-.363s11.476-8.954 23.15-14.532c10.338-4.916 20.809-7.221 23.724 1.627.376 1.142-.894 4.066-2.785 7.535z"/><path d="M756.263 468.272a149.543 149.543 0 01-11.411 17.22c-1.646 1.73-3.03 13.477-2.836 19.124.193 5.648-2.352 31.664-11.575 45.095-6.494 9.47-6.152 23.846-5.406 31.515.32 3.212.726 5.225.726 5.225l-14.62 5.029-17.512-.103-12.055-3.655-3.132-8.806s1.062-.16 3.483-.614c2.422-.456 6.098-1.235 11.377-2.456a13.687 13.687 0 0010.94-12.351l7.707-51.66s2.26-13.037-1.288-22.09a17.97 17.97 0 011.276-15.74l.237-.363s11.476-8.954 23.15-14.532c10.338-4.916 20.809-7.221 23.724 1.627.376 1.142-.894 4.066-2.785 7.535z" opacity=".05"/><path d="M725.779 586.486l-14.62 5.029-17.53-.103-12.054-3.69-3.132-8.806s1.062-.16 3.483-.614a6.572 6.572 0 005.013 7.129l6.854.275c.966.005 1.94.063 2.897.069a87.41 87.41 0 0028.372-4.54c.329 3.212.717 5.25.717 5.25z" opacity=".1"/><path fill="#BEBED0" d="M693.775 587.185l-6.863-.275s-6.395-1.395-4.786-8.65c0 0-12.338-2.874-15.507-1.04-3.17 1.835-1.706 12.066 7.205 14.624 8.686 2.496 41.254 6.28 50.633 4.865l.6-.101c8.502-1.69.083-13.92.083-13.92a87.785 87.785 0 01-31.365 4.497z"/><path fill="#A5636D" d="M736.737 470.158c-.467.92-.968 1.874-1.54 2.87-4.352 7.806-11.318 17.622-12.534 18.894-1.856 1.955-3.405 15.205-3.207 21.61.197 6.404-2.655 35.725-13.063 50.889-5.327 7.799-6.581 18.449-6.545 27.028a87.24 87.24 0 00.462 8.702c.362 3.544.837 5.756.837 5.756l-16.495 5.672-19.81-.117-13.608-4.134-3.51-9.974s1.194-.184 3.877-.7c2.683-.514 6.864-1.377 12.84-2.751a15.468 15.468 0 0012.376-13.935l8.686-58.301s2.549-14.732-1.445-24.935a20.006 20.006 0 01-.905-11.916 19.01 19.01 0 012.647-6.266s3.199-2.486 8.02-5.773a177.82 177.82 0 017.258-4.673c11.666-7.126 26.994-14.38 34.288-8.986a9.472 9.472 0 013.347 4.884c.29 1.01-.55 3.294-1.976 6.156z"/><path d="M701.105 605.916l-16.494 5.67-19.766-.115-13.61-4.135-3.507-9.973s1.193-.185 3.875-.7a7.265 7.265 0 002.277 6.443 7.747 7.747 0 004.896 1.873l6.236.237c1.088.007 2.183.074 3.27.08a98.955 98.955 0 0032.03-5.136c.363 3.543.793 5.756.793 5.756z" opacity=".1"/><path fill="#BEBED0" d="M664.993 606.695l-6.228-.245a7.833 7.833 0 01-4.904-1.873c-1.575-1.42-2.927-3.863-2.015-7.956 0 0-13.902-3.24-17.507-1.173-3.605 2.067-1.916 13.622 8.133 16.509 9.84 2.816 46.566 7.086 57.154 5.495l.67-.118c9.582-1.91.094-15.73.094-15.73a98.696 98.696 0 01-35.397 5.09z"/><path d="M756.264 468.272c-5.972 2.044-14.74 4.75-19.543 4.836a8.714 8.714 0 01-1.488-.08c-3.355-.48-13.738.199-23.261.995-3.821.317-7.495.652-10.533.948-4.527.443-7.643.764-7.643.764l.017-2.95a177.896 177.896 0 017.258-4.672c11.665-7.127 26.994-14.38 34.288-8.986 10.338-4.916 20.81-7.221 23.724 1.627.342 1.125-.928 4.049-2.82 7.518z" opacity=".1"/><path fill="#5C5C8E" d="M785.264 399.824c-.191 4.41-1.911 15.849-13.828 27.35-15.19 14.658-8.912 35.87-8.912 35.87s-18.05 6.969-25.82 7.114a8.8 8.8 0 01-1.487-.078c-4.66-.68-23.183.925-33.83 1.94-4.526.444-7.643.765-7.643.765l.369-62.64 83.577-19.77 7.516 7.57c.062.624.08 1.252.058 1.879z"/><path d="M695.157 472.019l-1.376.14-.003.66s3.116-.32 7.643-.763c7.643-.73 19.316-1.748 27.035-2.025-5.34-.518-22.992 1.005-33.3 1.988zm90.082-74.039l-7.516-7.58-5.044 1.233 6.296 6.345c.039.628.035 1.259-.011 1.888-.191 4.4-1.912 15.849-13.83 27.35-15.19 14.649-8.91 35.87-8.91 35.87s-14.937 5.759-23.48 6.919c.815.002 1.628.05 2.436.144.492.072.99.1 1.487.087 7.77-.145 25.82-7.112 25.82-7.112s-6.312-21.223 8.912-35.871c11.917-11.501 13.638-22.95 13.829-27.351a13.7 13.7 0 00.01-1.922z" opacity=".1"/><path fill="#A5636D" d="M618.747 354.596s-25.128-17.653-27.074-1.9c-1.946 15.755 27.004 13.672 27.004 13.672l.07-11.772z"/><path fill="#F7CDDD" d="M662.314 343.246s-13.703 8.95-21.251 8.349c0 0-20.653 2.645-23.046 1.248-2.393-1.398-3.98 19.987-3.98 19.987l33.943-2.193 21.77-3.195s10.913-6.566 10.947-12.282c.034-5.716-18.383-11.914-18.383-11.914z"/><path d="M662.314 343.246s-13.703 8.95-21.251 8.349c0 0-20.653 2.645-23.046 1.248-2.393-1.398-3.98 19.987-3.98 19.987l33.943-2.193 21.77-3.195s10.913-6.566 10.947-12.282c.034-5.716-18.383-11.914-18.383-11.914z" opacity=".05"/><path fill="#A5636D" d="M642.027 388.68s-30.677-1.45-23.888 12.91c6.789 14.36 30.146-2.884 30.146-2.884l-6.258-10.025z"/><path fill="#5C5C8E" d="M673.074 358.42s-24.764-18.754-21.124-41.397c3.639-22.642 21.264 17.474 21.264 17.474l-.14 23.924z"/><path fill="#A5636D" d="M666.805 255.635a31.482 31.482 0 01-8.976 21.794 29.631 29.631 0 01-4.564 3.845 32.438 32.438 0 01-10.347 4.706 32.78 32.78 0 01-4.467.766c-1.08.098-2.168.152-3.272.146a30.691 30.691 0 01-10.352-1.801 31.436 31.436 0 01-20.62-25.399 31.433 31.433 0 0113.11-29.973 31.438 31.438 0 0132.649-2.098 31.445 31.445 0 0116.839 28.049v-.035z"/><path d="M785.264 399.824c-2.822.506-6.307 1.425-6.316 2.886-.014 2.462-39.398 15.499-39.398 15.499s1.45 3.436-2.51 9.31c-3.957 5.877-36.102 39.584-36.102 39.584l.098 1.01.386 3.908 1.839 18.682s-12.258-4.492-16.193-4.028c-1.272.158-2.607-.668-3.913-1.85a18.992 18.992 0 012.647-6.266s3.198-2.487 8.02-5.773l.369-62.64 83.577-19.771 7.516 7.57c.036.626.029 1.254-.02 1.879z" opacity=".1"/><path fill="#F7CDDD" d="M788.815 396.383s-9.836.916-9.851 3.378c-.014 2.462-39.398 15.499-39.398 15.499s1.45 3.436-2.51 9.31c-3.957 5.877-36.102 39.593-36.102 39.593l2.323 23.59s-12.258-4.491-16.193-4.027c-1.742.207-3.69-1.422-5.288-3.32a34.17 34.17 0 01-3.511-5.075s4.538-18.653-1.335-23.107c-5.872-4.454 6.603-36.807 6.603-36.807s5.686-23.022 4.109-32.923a11.903 11.903 0 00-.46-1.952c.002-.07-.041-.148-.067-.218-3.425-9.468-40.681-88.981-40.681-88.981a57.05 57.05 0 01.509-6.722c.082-.617.19-1.261.307-1.912.198-1.172.46-2.333.786-3.476.204-.733.447-1.454.727-2.162 1.183-2.986 2.98-5.281 5.642-5.317 0 0 2.969-3.246 9.89-4.092 5.068-.632 12.293.072 22.056 4.279 23.024 9.95 28.432 10.486 28.432 10.486l11.507 15.293 2.366 3.137a301.025 301.025 0 0123.46 36.07c3.823 6.983 9.248 15.097 15.779 19.999 13.209 9.935 20.9 39.457 20.9 39.457z"/><path d="M703.039 339.066s32.75 8.3 45.342 28.82l-45.342-28.82zm9.923 35.981s5.959 41.683 4.218 44.805c-1.741 3.122-4.218-44.805-4.218-44.805zm-2.343 21.363c-2.403 3.109-12.227 27.195-12.227 27.195l2.554 40.557 2.323 23.592s-12.25-4.492-16.185-4.028c-1.741.207-3.697-1.422-5.287-3.32 2.63-13.791 8.255-42.652 9.24-43.203 1.302-.732 8.076-23.904 8.463-30.401.386-6.497 9.693-20.928 9.693-20.928s3.845 7.427 1.426 10.536zm-9.031-39.848c-.62 1.832-1.622 12.519-1.622 12.519-.734 9.409-7.904 12.447-12.303 13.413a11.9 11.9 0 00-.458-1.952c-2.9-8.36-40.75-89.164-40.75-89.164a52.99 52.99 0 011.603-12.12c8.358-2.403 21.542 1.45 21.542 1.45 3.822-.482 16.135 24.36 16.135 24.36s8.188 19.015 9.086 21.604c.898 2.589-.04 6.82.317 8.302.356 1.48 4.229 2.774 4.765 4.813.536 2.039.156 6.09.517 6.815.36.725 1.797 8.119 1.168 9.96z" opacity=".1"/><path fill="#F7CDDD" d="M698.648 355.066c-.62 1.84-1.622 12.518-1.622 12.518-.603 7.827-5.67 11.277-9.89 12.74a20.527 20.527 0 01-5.905 1.14l-5.954 5.116-27.48 19.979s-10.085-18.913-7.318-19.001c2.767-.088 18.8-13.392 18.8-13.392 4.897-2.581 9.838-11.252 12.135-15.711a13.696 13.696 0 01-.286-1.62c-.935-8.35-21.383-40.416-21.383-40.416s-7.922-9.434-10.926-26.844c-.085-.4-.143-.81-.22-1.228a12.447 12.447 0 01-.146-1.636c-.335-6.693 4.552-9.1 10.332-9.64a41.17 41.17 0 019.046.332c2.983.393 5.936.992 8.837 1.792 2.473-.317 8.503 9.994 12.453 17.299 2.126 3.963 3.656 7.05 3.656 7.05s8.188 19.025 9.087 21.605c.898 2.58-.04 6.83.316 8.302.357 1.473 4.23 2.783 4.766 4.822.536 2.039.155 6.09.517 6.815.36.725 1.814 8.137 1.185 9.978z"/><path d="M730.635 312.745c-5.251 5.302-13.682 5.27-20.434 2.49-6.752-2.781-12.457-7.721-18.707-11.577-4.057-2.512-8.36-4.574-12.356-7.164a59.828 59.828 0 01-1.733-1.176c-4.61-3.298-8.595-7.524-13.371-10.518a20.879 20.879 0 00-10.767-3.544 12.259 12.259 0 00-5.148 1.049c-.301.12-.592.26-.873.42a22.18 22.18 0 00-4.37 3.238c-1.363 1.21-2.667 2.498-4.101 3.63-.084-.401-.143-.81-.22-1.228a12.477 12.477 0 01-.146-1.637 33.735 33.735 0 01-3.272.146c-3.528 0-7.03-.61-10.351-1.801 0-.13 0-.261-.076-.392-1.138-6.201-3.223-12.773-8.187-16.282-2.877-2.036-7.483-2.89-11.476-4.418a31.45 31.45 0 015.824-28.276 31.438 31.438 0 0155.796 17.365 31.443 31.443 0 01-2.393 14.66c5.067-.63 12.293.073 22.056 4.28 23.023 9.95 28.43 10.486 28.43 10.486l11.509 15.293c-1.265 1.907-2.694 3.787-2.837 6.022-.242 4.096 3.734 6.982 7.203 8.934z" opacity=".1"/><path fill="#4C3E42" d="M616.573 265.432c4.965 3.509 7.049 10.073 8.196 16.266.354 1.933.69 3.97 1.864 5.509 2.59 3.443 7.955 2.509 11.423.067 3.468-2.442 6.213-6.158 10.078-7.875 5.129-2.284 11.139-.561 15.915 2.469 4.776 3.029 8.762 7.255 13.372 10.518 4.46 3.185 9.442 5.468 14.088 8.34 6.25 3.856 11.955 8.823 18.707 11.577 6.753 2.754 15.209 2.795 20.426-2.49-3.47-1.952-7.445-4.83-7.151-8.97.294-4.138 5.132-7.198 4.835-11.446-.297-4.247-5.281-5.938-8.853-8.047-7.457-4.394-10.593-13.983-12.142-22.823-1.204-6.915-2.185-14.638-7.318-19.105-3.315-2.873-7.807-3.831-11.15-6.678-3.16-2.707-4.901-6.78-6.897-10.541-3.296-6.258-7.637-12.086-13.401-15.853-5.763-3.766-13.115-5.297-19.481-2.777-2.441.952-4.67 2.435-7.076 3.439-6.001 2.575-12.845 2.16-18.786 4.849-7.32 3.315-12.104 10.699-16.487 17.712-3.706 6.007-11.051 16.596-9.035 24.438 2.006 7.972 13.484 7.614 18.873 11.42z"/><path d="M728.32 288.919a5.445 5.445 0 00-.16-.958c-1.333 2.07-2.99 4.08-3.16 6.515a5.892 5.892 0 00.129 1.68c1.484-2.332 3.385-4.522 3.192-7.237zm-16.595 17.041c-6.752-2.754-12.448-7.72-18.698-11.577-4.655-2.872-9.636-5.155-14.097-8.34-4.61-3.297-8.596-7.523-13.372-10.518-4.776-2.995-10.777-4.753-15.915-2.477-3.865 1.717-6.601 5.399-10.078 7.884-3.477 2.485-8.79 3.428-11.423-.067-1.174-1.54-1.51-3.576-1.864-5.51-1.138-6.192-3.231-12.756-8.187-16.265-5.398-3.817-16.876-3.458-18.908-11.422a12.345 12.345 0 01-.244-4.351c-1.352 3.54-2.06 7.104-1.27 10.215 2.04 7.999 13.519 7.64 18.908 11.42 4.965 3.51 7.049 10.083 8.196 16.276.354 1.933.69 3.97 1.855 5.509 2.59 3.443 7.955 2.509 11.432.024 3.478-2.485 6.205-6.158 10.078-7.876 5.129-2.275 11.14-.552 15.916 2.478 4.776 3.029 8.762 7.255 13.37 10.519 4.463 3.193 9.443 5.467 14.09 8.339 6.25 3.865 11.954 8.83 18.707 11.586 6.752 2.754 15.209 2.786 20.425-2.49a25.024 25.024 0 01-3.787-2.537c-4.726 1.704-10.351 1.13-15.134-.82z" opacity=".1"/><path fill="#5C5C8E" d="M557.396 364.562l69.752-25.586a6.621 6.621 0 015.062.204 6.617 6.617 0 01-.507 12.22l-69.752 25.595-14.903-1.584 10.348-10.85z"/><path fill="#fff" d="M633.54 340.806a6.63 6.63 0 01-3.938 8.503l-69.753 25.586-11.198-1.188-1.62 1.73 14.903 1.585 69.752-25.595a6.626 6.626 0 004.337-5.942 6.628 6.628 0 00-.398-2.553 6.594 6.594 0 00-2.686-3.321c.237.379.438.779.602 1.195z" opacity=".1"/><path fill="#EFC8C4" d="M557.396 364.562l4.565 12.434-12.234-1.3-2.678-.284 3.685-3.86 6.662-6.99z"/><path fill="#727A9C" d="M550.726 371.553c.287.212.528.479.709.787a1.126 1.126 0 01-.007 1.209 2.755 2.755 0 01-.682.475 2.21 2.21 0 00-1.001 1.673l-2.68-.285 3.66-3.86z"/><path fill="#C34BFF" d="M497.436 229.784l-11.703-5.794a1.42 1.42 0 01-.642-1.9l1.26-2.551a1.395 1.395 0 01.816-.718 1.426 1.426 0 011.084.077l7.886 3.9 8.356-16.882a1.428 1.428 0 011.9-.65l2.55 1.268a1.41 1.41 0 01.642 1.9l-10.25 20.708a1.416 1.416 0 01-1.9.642zm25.206 73.376l-11.703-5.792a1.434 1.434 0 01-.715-.818 1.436 1.436 0 01.073-1.083l1.26-2.55a1.43 1.43 0 011.909-.642l7.877 3.9 8.347-16.898a1.43 1.43 0 011.901-.651l2.542 1.268a1.417 1.417 0 01.65 1.901l-10.25 20.708a1.436 1.436 0 01-1.91.64l.019.018zm-11.296-36.162l-11.703-5.794a1.426 1.426 0 01-.65-1.9l1.268-2.551a1.421 1.421 0 01.816-.718 1.426 1.426 0 011.084.077l7.886 3.9 8.357-16.908a1.4 1.4 0 01.817-.714 1.4 1.4 0 01.549-.071c.186.012.367.06.534.144l2.55 1.259a1.434 1.434 0 01.642 1.909l-10.258 20.725a1.434 1.434 0 01-.818.715 1.416 1.416 0 01-1.083-.073h.009zm22.237 69.289l-11.703-5.794a1.418 1.418 0 01-.641-1.901l1.259-2.55a1.415 1.415 0 011.901-.641l7.885 3.9 8.357-16.882a1.434 1.434 0 011.909-.65l2.542 1.268a1.417 1.417 0 01.788 1.366 1.4 1.4 0 01-.147.534l-10.241 20.708a1.435 1.435 0 01-1.91.642zM93.492 558.476s5.137 6.799-2.484 16.969c-7.62 10.169-13.917 18.762-11.458 25.163 0 0 11.526-18.908 20.81-19.114 9.285-.206 3.279-11.543-6.868-23.018z"/><path d="M93.49 558.476a8.31 8.31 0 011.05 2.129c8.994 10.702 13.799 20.666 5.054 20.91-8.118.179-17.94 14.633-20.283 18.282.068.296.156.588.264.872 0 0 11.526-18.908 20.81-19.114 9.285-.206 3.253-11.604-6.894-23.08z" opacity=".1"/><path fill="#FFD037" d="M103.06 567.163c-.013 2.375-.294 4.349-.625 4.347-.33-.002-.58-1.935-.566-4.354.014-2.42.338-1.26.669-1.258.33.002.537-1.12.523 1.265z"/><path fill="#FFD037" d="M106.343 570.019c-2.095 1.127-3.926 1.812-4.081 1.516-.155-.297 1.418-1.436 3.495-2.59 2.078-1.154 1.264-.306 1.418.008.155.315 1.27-.062-.832 1.066z"/><path fill="#C34BFF" d="M66.155 558.315s-5.208 6.739 2.293 16.997c7.5 10.258 13.687 18.925 11.16 25.296 0 0-11.293-19.042-20.583-19.357-9.29-.316-3.151-11.581 7.13-22.936z"/><path d="M66.156 558.315a8.535 8.535 0 00-1.066 2.117c-9.128 10.595-14.041 20.502-5.3 20.849 8.108.274 17.758 14.843 20.068 18.519a6.632 6.632 0 01-.284.869s-11.293-19.12-20.6-19.436c-9.308-.316-3.1-11.563 7.182-22.918z" opacity=".1"/><path fill="#FFD037" d="M56.49 566.889c-.013 2.375.237 4.352.567 4.354.33.002.612-1.928.626-4.347.014-2.418-.323-1.263-.654-1.265-.33-.002-.524-1.126-.538 1.258z"/><path fill="#FFD037" d="M53.17 569.706c2.09 1.152 3.904 1.859 4.062 1.564.159-.295-1.401-1.453-3.464-2.631-2.064-1.178-1.27-.32-1.427-.008-.16.312-1.253-.077.829 1.075z"/><path fill="#B04FFD" d="M79.28 652.355c29.882.176 54.127-3.398 54.154-7.982.027-4.583-24.174-8.442-54.056-8.617-29.881-.176-54.126 3.397-54.153 7.98-.027 4.585 24.175 8.443 54.056 8.619z" opacity=".1"/><path fill="#65617D" d="M107.478 591.637l-.273 2.112-.375 2.982-.164 1.243-.374 2.982-.172 1.244-.375 2.982-4.34 33.905c-.392 3.025-5.356 5.362-11.342 5.327l-21.497-.126c-5.977-.035-10.905-2.431-11.28-5.461l-3.94-33.954-.348-2.986-.141-1.245-.356-2.986-.141-1.245-.348-2.986-.248-2.116c-.19-1.741 2.489-3.152 5.873-3.132l44.013.259c3.393.02 6.056 1.488 5.828 3.2z"/><path fill="#9D9CB5" d="M107.212 593.749l-.383 2.982-54.452-.32-.34-2.986 55.175.324zm-.537 4.225l-.383 2.982-53.417-.314-.348-2.986 54.148.318zm-.546 4.226l-.383 2.98-52.382-.307-.348-2.986 53.113.313z"/></svg>