<svg width="21" height="21" fill="none" xmlns="http://www.w3.org/2000/svg"><path d="M17.5 6.59a6.082 6.082 0 01-1.654.465 2.79 2.79 0 001.271-1.6 5.71 5.71 0 01-1.832.697c-.556-.601-1.253-.902-2.092-.902-.793 0-1.47.28-2.03.84a2.77 2.77 0 00-.84 2.031c0 .264.022.483.068.656a8.128 8.128 0 01-3.309-.888 8.139 8.139 0 01-2.625-2.12 2.844 2.844 0 00-.396 1.45c0 1.039.414 1.836 1.244 2.392-.429-.009-.884-.127-1.367-.355v.027c0 .684.227 1.292.683 1.825a2.871 2.871 0 001.682.992 2.71 2.71 0 01-.698.109c-.118 0-.296-.018-.533-.055a2.915 2.915 0 001.019 1.422 2.728 2.728 0 001.66.574 5.67 5.67 0 01-3.567 1.23 5.5 5.5 0 01-.684-.04 8.054 8.054 0 004.402 1.285 8.377 8.377 0 002.871-.485c.894-.324 1.66-.757 2.297-1.3a8.623 8.623 0 001.648-1.872 8.254 8.254 0 001.36-4.519c0-.164-.004-.287-.014-.369A5.58 5.58 0 0017.5 6.59zM21 3.938v13.124c0 1.085-.385 2.012-1.155 2.783-.77.77-1.698 1.155-2.782 1.155H3.938c-1.085 0-2.013-.385-2.783-1.155S0 18.147 0 17.063V3.938c0-1.085.385-2.013 1.155-2.783S2.853 0 3.938 0h13.124c1.085 0 2.012.385 2.783 1.155.77.77 1.155 1.698 1.155 2.783z" fill="#fff" opacity=".75"/></svg>