<svg width="21" height="21" fill="none" xmlns="http://www.w3.org/2000/svg"><path opacity=".75" d="M13.723 0H7.277C1.394 0 0 1.394 0 7.277v6.446C0 19.605 1.394 21 7.277 21h6.446C19.605 21 21 19.605 21 13.723V7.277C21 1.394 19.592 0 13.723 0zm3.23 14.98h-1.524c-.578 0-.756-.458-1.795-1.51-.902-.875-1.302-.991-1.524-.991-.314 0-.403.089-.403.52v1.377c0 .37-.117.591-1.095.591-1.616 0-3.41-.978-4.669-2.8C4.046 9.499 3.527 7.5 3.527 7.086c0-.222.089-.43.516-.43h1.528c.386 0 .533.178.684.591.755 2.18 2.013 4.091 2.532 4.091.192 0 .28-.089.28-.578V8.508C9.01 7.47 8.462 7.38 8.462 7.011c0-.178.147-.356.383-.356h2.402c.325 0 .444.178.444.56v3.039c0 .328.147.444.236.444.192 0 .356-.116.71-.472 1.098-1.23 1.884-3.128 1.884-3.128.102-.222.28-.43.667-.43h1.527c.459 0 .56.236.459.564-.192.888-2.062 3.527-2.062 3.527-.16.266-.222.383 0 .68.164.222.698.684 1.053 1.097.653.742 1.155 1.364 1.289 1.794.15.427-.072.65-.503.65h.002z" fill="#fff"/></svg>